<?xml version="1.0" encoding="UTF-8"?>
<!DOCTYPE svg PUBLIC "-//W3C//DTD SVG 1.1//EN" "http://www.w3.org/Graphics/SVG/1.1/DTD/svg11.dtd">
<!-- Creator: CorelDRAW X7 -->
<svg xmlns="http://www.w3.org/2000/svg" xml:space="preserve" width="61.8066mm" height="59.2666mm" version="1.1" style="shape-rendering:geometricPrecision; text-rendering:geometricPrecision; image-rendering:optimizeQuality; fill-rule:evenodd; clip-rule:evenodd"
viewBox="0 0 6181 5927"
 xmlns:xlink="http://www.w3.org/1999/xlink">
 <defs>
  <style type="text/css">
   <![CDATA[
    .fil0 {fill:black}
   ]]>
  </style>
 </defs>
 <g id="Capa_x0020_1">
  <metadata id="CorelCorpID_0Corel-Layer"/>
  <g id="_312150456">
   <path class="fil0" d="M2366 1548c25,57 3,84 127,139 -4,-14 -9,-24 -16,-39l-44 -108c-12,-26 -20,-47 -30,-72 -8,-21 -21,-46 -28,-72 16,22 28,40 44,65l87 133c29,43 27,49 60,51l-69 -279c-10,-35 -7,-27 2,-31 8,-2 31,55 39,70l95 198c7,14 8,24 27,22l-60 -285c18,13 60,98 79,124 12,16 -1,7 13,11 12,-7 12,-3 12,-19 -1,-28 -26,-174 -23,-203 31,16 50,43 63,83 15,45 31,138 77,161l-29 -303c37,0 28,3 39,33 31,86 81,205 108,285 6,20 9,31 31,29 -1,-24 -9,-61 -13,-89l-31 -230c-2,-12 -8,-33 -2,-44 14,-1 13,13 19,30l101 262c16,0 19,2 32,-3l-27 -227c22,32 84,194 106,213l8 -218c7,8 53,132 59,152l25 -4 -18 -189 25 0c13,46 25,171 42,233l33 -1c3,-21 -5,-58 7,-72 13,15 6,63 5,85 -19,5 -44,14 -64,20 -135,40 -289,98 -426,137l-125 40c-41,14 -81,26 -121,39 -83,27 -164,51 -243,79l-104 -190c12,7 11,6 20,17l112 117 15 -11c-2,-28 -70,-148 -81,-190 19,12 31,27 42,51zm-19 270c22,-22 496,-186 510,-191l401 -129c93,-27 85,-1 131,12l-2 29c-17,11 -343,135 -366,143l10 20c74,-1 171,-38 244,-63 14,-4 31,-11 46,-14 34,-7 65,-16 94,3 -20,80 -254,114 -359,152 -35,12 -86,37 -102,68 127,5 378,-145 451,-128 34,8 28,15 27,51 -38,17 -277,57 -311,135 81,-8 161,-48 246,-70 36,-10 49,-15 78,4 6,40 -8,48 -38,66 -46,26 -31,16 -74,33 -121,47 -78,-7 -154,-7 -154,0 -207,-16 -306,105 -17,21 -31,46 -40,70 -5,13 -8,27 -18,38 -90,-16 5,-27 -190,-27 -35,0 -48,9 -65,30 -19,24 -25,21 -63,28 19,-62 97,-83 158,-112 31,-15 58,-28 87,-43 78,-41 32,-19 77,-55 -10,-4 -24,3 -46,10l-132 49c-58,21 -122,52 -195,49 12,-42 30,-61 62,-84 67,-45 260,-84 296,-130 -81,-1 -156,38 -219,63 -19,7 -33,11 -51,21 -67,34 -100,42 -142,3 4,-30 14,-34 41,-41l177 -64c65,-31 169,-77 241,-81 9,-22 14,-39 0,-55 -17,-2 -91,29 -115,38l-231 82c-27,10 -92,36 -119,40 -7,-10 -12,-14 -21,-25 -6,-9 -14,-17 -18,-23zm172 508c0,-120 182,-194 272,-77 59,78 49,173 -53,212 -19,7 -118,38 -128,36 -13,-8 -7,-5 -16,-18l-42 -51c-24,-32 -33,-58 -33,-102zm299 188c4,-29 15,-53 29,-71 9,-12 14,-19 21,-26 10,-11 16,-15 30,-20 17,35 18,42 -11,73 -21,21 -34,34 -69,44zm-550 -776c27,162 54,127 63,175 22,110 30,64 52,105 6,12 10,50 13,67 6,37 36,50 45,120 -37,-1 -76,-11 -116,-15 -36,-4 -80,-4 -119,-8 -67,-8 -167,-7 -227,-27 -81,-26 -198,-26 -285,-34 -56,-6 -67,-57 -91,-102l-68 -123c-11,-20 -14,-14 -25,-38 -15,-30 -28,-55 -43,-85 -11,-21 -17,-19 -26,-37 -9,-18 -15,-27 -25,-43 -20,-33 -42,-97 -64,-126 -45,-61 -75,-143 -118,-204 -14,-18 -32,-61 -44,-84 -14,-30 -29,-53 -44,-82 -16,-30 -27,-56 -42,-85 -10,-19 -16,-16 -27,-37l-46 -85c-11,-25 -14,-20 -26,-38 -29,-46 -54,-130 -85,-168 -16,-20 -13,-5 -28,-36 -32,-71 -70,-148 -108,-213 -17,-29 -28,-60 -44,-84 -13,-17 -13,-12 -25,-38 -8,-16 -16,-29 -23,-44l-66 -125c-11,-21 -16,-19 -26,-38 -14,-23 -29,-57 -42,-85 -14,-27 -13,-18 -28,-35 -12,-14 -14,-28 -25,-41l-161 0c-21,39 -25,2 -25,72 0,90 -6,70 29,117 16,23 27,73 44,100 25,39 75,143 99,193 11,24 17,50 28,70l99 192c14,30 32,35 72,123 29,62 46,122 92,196 33,54 68,133 100,193 32,60 114,212 131,258 21,62 34,71 62,128 9,18 12,16 21,29 16,24 29,73 44,101l133 256c47,87 -3,79 -34,92 -55,23 -89,58 -127,76 -31,15 -36,40 -75,60 -33,16 -175,162 -205,192 -35,35 -22,8 -76,60 -70,70 -37,31 -73,58 -43,32 -72,78 -108,95 -23,11 -22,17 -39,30l-82 53c-43,35 -3,10 -59,42l-62 36c-19,9 -19,17 -40,28l-180 86c-34,15 -54,28 -92,39l0 48c44,28 26,28 97,28 38,0 90,3 125,-1l238 -13c-4,19 -13,25 -23,37 -9,12 -14,28 -24,40 -16,19 -37,31 -67,60 -43,43 -84,82 -128,125 -21,21 -44,41 -40,87 1,23 10,29 33,29 19,1 44,3 61,-2 30,-9 11,-15 91,-35 27,-7 83,-21 112,-21 -20,48 -72,82 -107,118 -15,14 -17,29 -32,44 -19,21 -16,13 -31,42 -9,18 -106,94 -20,137 21,10 38,10 62,2l177 -52c37,-12 76,-27 115,-37l97 -35c55,-14 -41,72 -52,92 -51,99 -43,47 -67,98 -47,102 -84,141 -50,256 56,1 55,-3 110,-60 16,-16 15,-13 35,-25 15,-9 14,-14 31,-24 45,-24 99,-22 149,-22 0,12 -16,40 -23,51 -8,11 -10,8 -17,21l-48 75c-25,31 -21,9 -27,53l-32 1c0,38 -11,90 59,91 71,0 41,-38 87,-63 47,-26 77,-32 119,-63 27,-20 135,-60 180,-82l106 -43c38,-12 73,-24 113,-34 34,-8 92,-14 117,-32 -3,24 -13,56 -16,80 -21,154 -15,339 -15,494 -1,63 2,82 39,113 14,12 14,20 32,22 61,8 190,-31 246,-59 24,-11 53,-19 75,-30 102,-49 201,-76 328,-85 0,40 1,28 15,58 8,18 11,38 20,56 57,123 62,122 108,259l42 107c10,19 14,36 22,54 8,19 16,27 24,48l63 161c15,46 156,334 171,350 35,34 14,21 33,43 21,22 17,13 33,43 10,19 22,27 36,41 22,23 53,53 81,67 31,16 8,18 63,47 12,6 12,8 23,15 97,66 204,82 214,87l322 0 22 -6c51,-9 25,-14 66,-33 15,-6 30,-11 42,-21 35,-29 17,-2 70,-57 48,-50 18,22 68,-122 28,-79 36,-193 -1,-270 -8,-15 -11,-31 -17,-46 -26,-72 -113,-179 -175,-211 -47,-24 -44,-19 -105,-20 -28,0 -36,-4 -52,10 -37,36 -56,54 -7,124 17,24 24,62 37,89 23,45 35,127 23,162 -10,27 -11,8 -17,51 -45,5 -87,18 -111,15 -33,-3 -71,-23 -91,-40 -30,-26 -49,-15 -69,-58 -16,-32 -40,-46 -61,-70l-51 -76c-12,-17 -36,-65 -44,-87l-127 -326c-8,-25 -35,-78 -57,-142 -7,-19 -12,-30 -20,-44 -8,-14 -17,-27 -23,-44l-73 -186c-14,-33 -27,-58 -38,-93 -6,-19 -12,-29 -19,-45 -6,-14 -12,-33 -17,-50 79,-6 51,31 171,70 116,37 95,31 214,31 183,0 270,12 453,-33 136,-33 137,-22 292,-72 93,-30 104,-4 170,-71 21,-21 47,-32 48,-77 2,-145 10,-86 -31,-153 -8,-13 -17,-24 -15,-44 44,-15 66,-9 86,-74 6,-21 7,-53 -5,-67 -19,-21 -24,-21 -50,-34 0,-31 -1,-27 17,-43 11,-11 18,-19 29,-30l30 -29c16,-16 12,-22 12,-51 -1,-52 11,-74 -36,-85 -73,-19 -64,-4 -113,-11l0 -24c54,-4 111,-33 156,-57 13,-7 26,-21 40,-31 0,-32 0,-65 0,-97 0,-41 -4,-49 -13,-83l-51 -144c-37,-74 -36,-53 -70,-125 -14,-29 -27,-36 -40,-58 -20,-34 -2,-18 -36,-61 -14,-17 -22,-47 -35,-62 -60,-73 2,-54 -59,-234l-50 -145c-12,-45 -49,-94 -50,-140 147,36 304,11 420,-46 14,-6 27,-14 40,-20 68,-32 4,-35 152,-36 86,0 68,12 110,15 39,3 89,0 128,0 3,-39 1,-29 40,-39 24,-6 45,-11 65,-20 52,-23 74,-17 141,-24 96,-10 322,-47 408,-88 33,-15 79,-38 114,-50 27,-9 29,-17 52,-28 32,-17 27,-22 48,-38 21,-16 27,-10 48,-32l168 -162c14,-13 49,-78 68,-97 37,-36 19,-28 35,-50l67 -99c20,-39 54,-50 75,-89 11,-21 23,-29 38,-43 22,-21 39,-74 125,-125 34,-20 11,-25 70,-56 13,-7 15,-11 25,-18l0 -63c-39,-16 -47,-16 -89,-10 -100,15 -88,18 -177,44 -20,6 -68,24 -86,25 10,-18 26,-25 36,-40 20,-27 26,-79 51,-106l68 -89c12,-25 24,-26 36,-44l31 -46c14,-18 16,-39 12,-68 -92,0 -105,3 -191,20 -152,29 -104,35 -160,55 -6,-20 31,-49 51,-87 10,-18 15,-33 25,-51 13,-21 20,-14 34,-43l56 -92c32,-38 34,-61 34,-122 -42,0 -47,6 -80,16 -75,24 -145,52 -221,72 -70,19 -134,58 -199,89 -15,7 -50,33 -64,24 3,-22 23,-4 44,-65 11,-31 20,-52 30,-80 31,-83 44,-63 43,-122 -2,-72 -102,-13 -140,-1 -30,10 -29,16 -51,26 -50,22 -116,43 -168,60 -19,6 -38,13 -58,18 -36,10 -22,22 -62,21 9,-43 21,-70 11,-130 -73,-4 -40,14 -90,36 -32,15 -58,28 -91,45 -19,9 -29,10 -50,17 -17,6 -29,14 -47,21 -89,33 -103,30 -196,75 -33,16 -59,27 -92,44 -21,11 -19,17 -40,27 -16,8 -33,14 -46,22 -42,24 -97,81 -113,90 -61,35 -31,31 -66,70 -26,28 -42,34 -65,70 -10,16 -15,18 -27,41 -10,20 -16,18 -28,40 -8,16 -13,28 -22,45 -16,31 -33,57 -48,89 -7,15 -10,33 -17,50 -7,17 -14,26 -20,47 -11,34 -20,73 -30,105 -12,36 -15,75 -24,112 -38,-18 -76,-15 -128,-14 -13,68 21,110 49,163 9,17 8,23 8,47 0,31 -1,23 -14,41 -42,59 -35,41 -79,86 -16,16 -10,13 -21,34 -14,25 -40,36 -52,58 -11,24 -18,64 -31,79 -14,14 -59,25 -83,29 -4,-92 -10,-47 -24,-132 -8,-52 -5,-100 -6,-156 -16,-14 -18,-16 -47,-16 0,-68 7,-73 -20,-124 -60,-114 16,-389 -43,-461 -28,-34 -276,10 -317,24 -172,56 -423,81 -594,130 -126,35 -198,56 -315,117 -52,28 -55,36 -93,53 -1,161 39,103 82,189 10,21 22,29 31,49 26,51 83,68 101,178zm-45 561l195 22c6,23 22,46 31,70 17,43 74,195 74,223 0,100 4,58 -25,154 -18,-13 -220,-372 -244,-410 -10,-15 -26,-41 -31,-59zm-197 -50c74,11 116,60 160,114 105,132 218,377 260,543 -27,-12 -97,-119 -118,-152l-231 -375c-10,-18 -14,-26 -23,-44 -14,-24 -40,-61 -48,-86zm-255 -57c52,-5 126,33 151,62 18,21 32,37 50,60l295 459c12,20 32,44 44,66l111 211c39,64 31,33 -4,103 -3,7 -4,12 -7,17 -10,16 -5,14 -41,13 0,-39 2,-50 -7,-83 -38,2 -84,52 -131,68 2,-43 33,-161 10,-192 -39,-52 -93,15 -148,30l35 -200c-30,3 -37,8 -61,22 -16,8 -39,24 -60,18 -22,-18 22,-102 27,-118 10,-30 20,-67 22,-101 -72,-25 -149,-46 -224,-69 15,-31 42,-45 65,-61 39,-25 35,-31 50,-78l-147 -73c-47,-23 -47,-11 -45,-58l119 18c-5,-36 -11,-51 -45,-66 -39,-18 -38,-23 -59,-48zm1437 110c8,-32 33,-46 35,-83 -22,-17 -174,-182 -176,-200 87,-16 125,-24 187,30 48,41 73,81 73,167 0,39 -40,131 -59,149l-60 -63zm-12 81c-60,-11 -76,-123 -91,-193 24,8 52,21 76,30 -5,16 -12,28 -19,42 -18,35 12,51 34,121zm-288 -150c1,-59 -9,-105 17,-128 24,15 135,118 137,153 3,70 -38,19 18,99l57 84c-34,3 -102,-9 -128,-20 -77,-32 -101,-105 -101,-188zm-364 550c33,-65 4,-177 44,-209 28,-22 108,-25 150,-18l-18 73c-30,-13 -36,-29 -66,-41 -45,23 -65,57 -69,111 -2,37 -13,134 -10,163 14,-9 43,-33 59,-38 -2,19 -42,110 -49,123 -58,12 -95,-61 -41,-164zm-1009 -726c13,20 27,39 38,58 -13,8 -67,11 -91,14 -30,3 -66,14 -83,-4 -19,-19 -180,-337 -214,-404 -133,-265 -277,-560 -413,-820 -12,-23 -25,-46 -36,-69 -42,-91 -96,-180 -141,-270l-177 -335c-12,-20 -25,-44 -37,-65 -12,-23 -19,-33 4,-70 103,6 196,182 239,264l101 199c46,94 91,175 141,261 8,13 11,22 18,33l55 98c25,42 43,89 68,131 14,23 22,44 35,66 13,20 24,44 36,66 23,42 43,93 67,132 14,23 24,43 36,65l183 321c54,95 108,227 171,329zm-430 354c32,-21 54,-33 87,-52 127,-70 263,-135 409,-150 63,-6 61,-4 115,10l0 33 -89 1c-14,48 8,58 34,76 40,29 181,77 235,99 -11,17 -103,108 -131,136 -10,10 -10,5 -12,20 22,20 194,40 231,60 -2,21 -35,61 -47,74 -20,21 -39,40 -63,60 -13,11 -24,18 -36,28 -76,64 -163,122 -248,175l-148 93c-93,54 -137,83 -237,132 -101,49 -328,173 -438,165l49 -59c15,-15 15,-12 31,-24 37,-27 126,-98 158,-118l134 -85c21,-15 47,-29 69,-41 25,-14 44,-25 71,-40 111,-67 491,-276 518,-358l-204 27 40 -51c25,-28 169,-187 179,-211 -22,-8 -37,-6 -64,-6 -125,0 -494,195 -621,287l-303 264c-22,18 -36,34 -59,51 -23,16 -102,85 -133,88 13,-53 38,-100 69,-139l71 -86c9,-15 10,-16 23,-28 119,-119 134,-141 280,-240 11,-7 22,-16 33,-23 10,-7 20,-10 32,-18l199 -115c11,-6 20,-12 32,-18l105 -53c60,-28 69,-11 68,-49 -47,8 -89,19 -131,38 -33,15 -85,29 -119,45 -55,26 -326,158 -365,186 -24,18 -41,30 -68,47 -55,35 -117,118 -164,165 -35,35 -78,73 -109,112 -24,29 -31,44 -53,57 -45,28 -177,18 -244,18 19,-27 131,-89 168,-111 56,-34 117,-71 174,-105l201 -151c115,-113 133,-124 271,-216zm-590 841c46,-22 95,-49 142,-69 130,-57 165,-111 251,-168 43,-29 117,-101 160,-132 11,-8 4,-4 13,-13l115 -93c46,-32 146,-103 202,-105 -8,52 -59,123 -89,155l-80 68c-32,28 -101,72 -145,105 -70,52 -125,86 -199,148 -34,29 -77,60 -105,94 -49,57 -126,161 -143,258 72,-1 156,-15 215,-29 89,-21 73,-22 136,-42 65,-21 64,-21 130,-52l157 -81 250 -168c60,-47 356,-256 393,-264 10,11 26,30 33,42 22,-3 99,-40 125,-46 1,102 -70,210 -134,274 -40,39 -152,133 -196,159 -99,61 -215,174 -334,221 -131,53 -209,56 -346,58l41 -62c15,-20 29,-38 44,-57 -6,-10 -15,-16 -25,-21l-128 164c-22,27 -17,28 -3,63 148,8 404,-83 542,-143 74,-33 121,-58 186,-102 55,-37 180,-132 222,-176 63,-66 149,-194 246,-203 -8,16 -14,22 -24,36 -105,155 -180,238 -326,364 -129,110 -374,175 -538,211 -105,22 -331,64 -441,61 8,-21 93,-123 110,-153 -15,-14 -35,-22 -54,-29 -65,-25 -318,86 -471,106 8,-23 205,-307 213,-331 -91,-74 -153,17 -267,43 20,-35 78,-70 122,-91zm226 626c27,-87 193,-113 288,-134 146,-32 486,-63 591,-103 128,-49 260,-120 373,-186 64,-36 93,-92 145,-134l121 -86c13,-10 25,-16 38,-26 2,46 -3,87 -19,125 -29,69 -49,73 -83,108l-98 88c-33,29 -112,84 -148,102 -55,29 -110,56 -174,76 -214,65 -461,132 -668,208 -23,8 -66,30 -86,34 -3,-41 0,-70 -16,-106 -15,-36 -40,-42 -83,-32 -41,9 -102,28 -139,47 -14,7 -25,14 -42,19zm1302 -220c37,-16 160,-139 201,-180 11,-12 14,-18 30,-23 -1,23 -15,58 -22,85l-20 60 -4 10c-14,28 -91,21 -108,41 -18,23 -15,149 -15,182 119,12 216,-32 313,-57 -1,33 -15,64 -15,95 0,26 16,59 32,75 40,40 93,57 150,59 2,73 81,156 73,208 -6,32 -66,43 -93,52 -23,8 -84,33 -104,33 12,-101 25,-140 0,-241 -12,-46 -32,-50 -61,-59 -1,45 8,102 11,152l10 147 39 11c-12,9 -39,14 -58,19 -29,8 -45,18 -58,9 46,-18 49,-37 36,-96 -9,-39 -21,-70 -24,-111 -7,-84 0,-190 -1,-276 -22,0 -54,-4 -71,3 -32,20 -8,146 3,175 14,33 25,49 25,90 0,88 -15,161 -14,250 -45,6 -42,0 -83,14 -32,11 -180,35 -233,47 -131,29 -158,50 -284,86 -2,-41 17,-108 17,-147 -3,-93 32,-108 -28,-244 -12,-27 -13,-32 -17,-63 -2,-20 -6,-50 -6,-70 0,-29 5,-58 -5,-71 -8,2 -10,-9 -12,33 -1,16 -2,26 -3,39 -3,28 -3,55 -6,83 -17,147 -23,177 11,312 12,48 22,95 34,143 -31,-8 -37,-13 -54,-40 -31,-51 -41,-144 -41,-211l19 -318c9,-78 155,-168 227,-202 43,-20 138,-73 180,-72 0,62 0,59 15,129 7,28 11,57 20,86 8,27 18,52 29,77 39,93 62,87 10,237 -17,48 -47,109 -14,159 22,-5 41,-42 50,-64 31,-81 71,-321 40,-401 -11,-26 -8,-21 -31,-32 -41,-20 -71,-78 -75,-112 -8,-73 3,-24 -15,-111zm251 -232c19,-13 45,-46 65,-55 1,51 -5,170 17,198l23 -15c1,-39 0,-79 0,-119 0,-93 8,-74 -35,-86 13,-13 36,-42 54,-49 44,93 47,176 47,276l-66 12c-1,1 -3,1 -4,2l-4 1 -4 1c-27,7 -76,11 -104,11 7,-32 53,-102 11,-177zm20 228c46,-7 88,-18 132,-23 3,74 3,74 -45,106 -22,15 -45,24 -72,33 -27,9 -60,12 -88,18 -28,6 -55,15 -83,20 -13,-39 -16,-20 -1,-66 8,-21 12,-41 18,-66 27,-4 46,-4 72,-9 23,-5 43,-9 67,-13zm17 744l234 -73c14,30 23,65 37,97l82 182c24,57 61,125 86,180 13,28 25,65 37,94 32,73 64,154 102,229l64 134c34,64 58,109 98,165 71,100 177,214 311,214 64,0 107,-1 151,-49 55,-60 30,-197 7,-271 -11,-36 -35,-81 -46,-115 61,-6 122,53 156,95 78,101 70,194 70,306 0,87 -101,164 -185,195 -88,32 -232,43 -333,19 -96,-22 -129,-49 -194,-94 -20,-14 -34,-23 -53,-40 -70,-62 -122,-129 -173,-203 -65,-94 -150,-272 -193,-379 -19,-49 -36,-92 -55,-136 -51,-125 -102,-285 -155,-417 -5,-13 -52,-118 -48,-133zm353 -1661c7,-21 43,-58 58,-73l65 -66c34,8 35,16 57,-3 17,-14 25,-27 46,-36 5,5 14,11 20,16l-28 25c-34,24 -184,143 -205,149l-13 -12zm181 519c-14,-44 -15,-52 -15,-96 0,-180 196,-446 389,-446 58,0 80,-7 102,40 -26,15 -132,-2 -216,43 -22,12 -106,56 -127,61l15 61c-12,13 -20,20 -32,35 -18,21 -23,17 -32,39 42,18 33,45 95,45 42,0 94,2 135,-1 20,-26 7,-27 45,-36 20,-4 32,-17 43,-32l61 -91 70 0c-6,19 -76,97 -99,134 29,20 45,4 74,-10 44,-23 104,-72 90,-129 -4,-15 -13,-22 -24,-31 -18,-14 -17,-11 -44,-11 -110,0 -120,4 -237,17 13,-37 68,-28 108,-33 46,-7 71,-11 79,-57 115,-11 257,-29 368,-29 68,0 199,264 202,294 -65,4 -381,97 -470,119 -83,21 -80,28 -143,52l54 111c8,14 13,20 20,35 24,51 123,244 152,285 68,98 131,78 278,78 50,0 70,-15 96,-12l-1 73c-93,4 -212,1 -307,1 -35,0 -75,93 -89,127 -21,50 -41,102 -62,153 -25,63 -94,284 -149,284 -112,0 -121,15 -175,-80 -42,-76 -89,-196 -123,-280 -7,-17 -18,-42 -21,-60l141 -89 -150 -595 -101 31zm577 -1124c51,-140 45,-153 148,-153 52,0 97,54 97,102l0 46c0,51 -43,71 -87,87 -86,32 -173,-43 -158,-82zm312 43c-3,-13 5,-73 7,-93 7,-58 -94,-123 -63,-224 8,-26 60,-107 77,-125 97,-105 80,-88 209,-88 59,0 144,71 180,108 86,86 127,184 56,298 -24,39 -39,45 -73,70 -26,18 -71,37 -101,48 -76,27 -220,32 -292,6zm572 -188c28,-96 -2,-217 -72,-286 -138,-135 -176,-127 -367,-133l0 -24c79,-4 172,8 235,29 85,29 112,50 164,100 113,109 104,350 58,399 -47,-10 -28,-51 -18,-85zm106 -114c0,-101 -82,-216 -152,-275 -43,-35 -137,-108 -196,-125 -171,-53 -142,13 -261,6l-20 -63c65,11 59,26 137,-35 15,-11 18,-18 37,-26 12,23 47,61 76,77 47,25 60,-12 100,-32 43,44 18,114 134,133 71,12 54,-1 76,58 13,32 23,58 37,96 107,14 96,-2 78,75 -11,47 -21,90 7,114l41 33c-14,15 -40,66 -54,88 -40,62 -1,41 7,92 -136,0 -47,-27 -47,-216zm129 16c-7,-12 -11,-28 -15,-46 45,-17 145,-67 187,-89 30,-15 57,-30 89,-46l246 -160c12,-9 26,-19 40,-29 123,-85 228,-171 338,-271l141 -130c32,-27 34,-35 71,-64 21,-17 114,-109 129,-140 -67,1 -85,16 -123,36 -14,6 -20,8 -34,16 -33,19 -93,66 -121,92l-322 308c-79,56 -76,71 -184,133 -118,68 -110,55 -232,84 13,-52 125,-147 169,-184 12,-9 22,-19 33,-27l418 -331c107,-86 353,-208 493,-195 -12,26 -41,60 -60,86 -21,32 -41,58 -63,85 -98,123 -172,198 -284,309 -83,82 -72,70 -159,137 -30,22 -52,40 -85,64 -28,20 -52,45 -81,67 -48,37 -211,153 -266,179 -119,56 -180,95 -325,116zm246 96c23,-18 29,-30 63,-47 15,-7 22,-11 36,-19 44,-24 118,-50 186,-89 62,-34 198,-134 253,-188 38,-37 74,-71 111,-108 101,-101 97,-119 228,-212 14,-10 22,-13 35,-21 33,-21 70,-44 106,-59 -7,63 -136,232 -174,270 -38,38 -73,73 -110,110 -35,35 -78,66 -125,96 -23,15 -48,28 -69,41 -58,37 -232,135 -286,154 -46,15 -229,75 -254,72zm-383 -363l-43 -98c12,-10 22,-25 33,-37 39,-46 198,-202 243,-240 13,-12 25,-25 38,-34 18,-11 20,-16 38,-30l111 -96c6,-5 14,-12 18,-16 10,-7 11,-7 20,-14 24,-21 49,-44 75,-61 51,-34 299,-164 359,-191 43,-19 237,-113 277,-138l86 -51c-5,26 -6,35 -18,56 -61,107 -149,167 -250,245 -66,52 -141,97 -210,146 -94,67 -115,91 -195,156 -14,11 -26,17 -42,30l-369 266c-30,20 -57,34 -86,54 -16,10 -74,51 -85,53zm-432 -287c-2,-122 96,-286 165,-389 15,-23 32,-41 48,-62 53,-73 113,-148 193,-197 12,-7 19,-15 31,-23 32,-25 166,-95 214,-117l226 -106c-5,18 -3,46 -53,64 -83,28 -143,67 -213,117 -67,48 -119,91 -179,151l-163 171c-8,10 -15,21 -23,32 -44,62 -48,50 -92,128 -42,73 -86,200 -154,231zm301 -249c31,-41 71,-98 105,-132 10,-11 17,-20 28,-31l30 -30c21,-21 37,-37 61,-57 42,-34 37,-26 70,-48l72 -48c76,-50 220,-131 305,-169 112,-51 57,-31 177,-61 -21,69 -62,129 -112,169 -51,42 -119,71 -177,102 -22,12 -52,28 -74,36 -26,11 -52,24 -75,36 -91,49 -118,58 -203,131 -41,35 -74,69 -109,111 -35,42 -146,233 -162,284 -69,-28 -60,-29 -55,-56 16,-81 73,-174 119,-237zm-1817 2837c-20,-35 -15,-78 -15,-115 0,-32 20,-99 27,-133 23,-116 22,-154 5,-273 -6,-38 -16,-102 -18,-140 -1,-50 -6,-100 17,-145 18,-34 56,-61 101,-53 127,25 66,160 50,207 -40,-2 -58,-8 -71,-41 -10,-25 -26,-49 -49,-57 -14,16 -16,21 -8,41l47 119c44,112 38,203 38,318 0,42 -4,66 -33,82 -42,22 -30,26 -43,71l105 -27c1,38 13,94 -7,126 -30,52 -116,69 -146,20zm717 -1424c23,-38 64,-70 96,-101 20,-20 78,-88 98,-98 11,13 43,91 49,108 18,-4 22,-14 40,-23 14,8 25,30 36,41l-240 56c-23,5 -58,15 -79,17zm-251 81l-5 -128c29,7 62,23 87,33 48,19 51,5 98,22 -10,12 -24,14 -45,22l-135 51zm618 -200l53 -1 -17 -86 51 -1 -1 106c-45,12 -57,19 -108,12l22 -30zm-903 1236c15,-25 134,-18 163,-15 31,4 56,-3 87,-3 3,18 -5,64 -13,80 -44,0 -90,-1 -134,0 -43,1 -85,12 -121,14 1,-13 13,-67 18,-76z"/>
   <path class="fil0" d="M2002 3897c-9,-24 -18,-44 -25,-68 -6,-20 -14,-55 -26,-67 -51,30 -78,139 -79,211 0,122 2,139 16,274 2,25 0,58 16,78 10,12 36,43 47,50 4,-30 19,-132 32,-151 16,-22 30,-17 31,-60 1,-67 6,-220 -12,-267z"/>
   <path class="fil0" d="M1864 4303c0,-58 -33,-156 -56,-199 -61,-114 -19,-148 -20,-211 -92,-1 -77,61 -88,168 -3,28 20,43 55,90l-14 11c13,27 51,149 66,188 7,20 14,48 23,65 36,-24 34,19 34,-112z"/>
   <path class="fil0" d="M2509 4027c-1,47 -3,84 9,125 23,76 7,77 63,70 -6,-78 -3,-175 -72,-195z"/>
   <path class="fil0" d="M4214 4791l-238 15 -2 -113c99,-1 117,19 147,-36 11,-21 15,-12 47,-76 10,-20 18,-16 26,-37l15 -32 1 -3 1 -4 1 -3 16 -22c9,-9 5,-8 17,-8l0 -44 -479 0c-5,55 -2,535 -1,633 0,36 2,14 9,28 8,15 -1,13 9,29 3,7 9,11 15,23l51 101c9,11 11,8 19,19 11,14 26,55 39,75 15,23 10,5 30,46 10,20 11,39 37,37l0 -362 220 14c9,11 17,30 24,44l57 77c31,58 6,18 39,64 6,9 7,13 11,22l82 126 1109 2c0,-64 -38,-89 -56,-128 -18,-38 -41,-85 -60,-121 -24,-45 -39,-65 -64,-119 -10,-21 -20,-40 -29,-59 -11,-21 -21,-45 -32,-62 -44,-72 -116,-246 -159,-294 -11,-13 -24,-42 -33,-61l-46 -93c-13,-25 -8,-25 -20,-27 -33,0 -35,4 -47,26 -11,23 -17,21 -28,43 -7,13 -19,39 -25,48l-60 88c-12,16 -16,34 -26,50 -11,19 -17,18 -30,43 -32,63 -37,49 -56,92 -6,13 -47,64 -53,95 -7,33 10,34 23,50 11,15 14,29 28,44 13,15 19,29 33,43 49,49 46,116 110,53l54 -82c21,-25 15,-29 30,-37 22,9 30,40 48,66 7,11 10,12 17,21 7,9 8,16 14,24 15,21 28,31 42,75l-519 -15 -101 -151c-21,-41 -4,-18 -32,-53 -29,-36 -6,-48 0,-55 9,-11 8,-16 15,-27 7,-13 10,-11 19,-24 6,-9 7,-17 16,-26 14,-14 9,-1 19,-22 13,-27 39,-58 52,-76 27,-40 -2,-38 78,-48 119,-16 63,-14 108,-62 9,-10 21,-15 45,-40 15,-16 19,-35 34,-51 39,-40 72,-56 64,-107l-389 0c-87,1 -82,52 -106,87 -10,16 -46,56 -55,73l-74 125c-12,15 -11,26 -24,39 -17,17 -19,15 -27,40z"/>
   <path class="fil0" d="M3545 2117c-22,-56 41,-79 53,-115l-42 -1c-31,0 -73,37 -76,67 -2,19 -1,52 -1,72 1,29 9,39 39,39 53,0 60,6 97,-14 -16,-32 -61,-30 -70,-48z"/>
  </g>
 </g>
</svg>
