<?xml version="1.0" encoding="UTF-8"?>
<!DOCTYPE svg PUBLIC "-//W3C//DTD SVG 1.1//EN" "http://www.w3.org/Graphics/SVG/1.1/DTD/svg11.dtd">
<!-- Creator: CorelDRAW X7 -->
<svg xmlns="http://www.w3.org/2000/svg" xml:space="preserve" width="22.8598mm" height="22.7752mm" version="1.1" style="shape-rendering:geometricPrecision; text-rendering:geometricPrecision; image-rendering:optimizeQuality; fill-rule:evenodd; clip-rule:evenodd"
viewBox="0 0 2286 2278"
 xmlns:xlink="http://www.w3.org/1999/xlink">
 <defs>
  <style type="text/css">
   <![CDATA[
    .fil0 {fill:black}
   ]]>
  </style>
 </defs>
 <g id="Capa_x0020_1">
  <metadata id="CorelCorpID_0Corel-Layer"/>
  <g id="_307461392">
   <path class="fil0" d="M1071 1628l18 30c-11,0 -13,8 -18,-30zm156 -26c0,9 -8,46 -10,56 -17,1 -9,-1 -20,-2 0,-5 4,-9 6,-13 3,-5 5,-9 8,-14l16 -27zm0 0l0 0zm-248 -135l10 16c-11,0 -10,1 -10,-16zm332 16c-9,0 -8,-1 -14,-1 1,-5 18,-33 20,-35 0,8 -1,11 -1,20 0,7 1,16 -5,16zm-545 -275l0 0zm781 -158l0 -3c9,0 10,-2 16,-6 2,27 4,41 -12,66l-18 37c0,-19 23,-39 27,-67 2,-9 2,-19 2,-30 -8,1 -2,3 -15,3zm46 -81l1 -2 -1 2zm-1045 -229l0 -20c3,4 2,7 2,16 11,0 7,-4 8,3 -6,0 -6,1 -10,1zm1188 -10l1 10c-11,-1 -10,-2 -11,-4 3,-1 1,0 7,0 0,-6 0,-9 1,-13 1,-2 2,-3 3,-4 0,5 -2,8 -1,11zm-205 349c0,161 -85,277 -186,339 -7,4 -13,8 -20,11 -10,5 -7,5 -15,18l-48 83c-20,35 -53,90 -71,124 -4,7 -8,13 -12,20 -5,8 -35,58 -36,64 -3,-3 -7,-11 -10,-15l-18 -32c-4,-6 -6,-11 -10,-17 -7,-11 -12,-21 -19,-32 -6,-11 -12,-22 -19,-33 -6,-11 -12,-22 -18,-33l-76 -130c-10,-17 -4,-11 -27,-24 -11,-7 -21,-13 -31,-20 -5,-3 -10,-7 -14,-11 -22,-17 -22,-18 -41,-37 -17,-17 -32,-38 -45,-58l-14 -23c-2,-4 -4,-6 -5,-9 -11,-21 -23,-51 -29,-74 -4,-13 -7,-27 -9,-42 -2,-12 -5,-33 -5,-47 0,-8 0,-17 0,-25 0,-15 0,-11 -5,-21 -7,-11 -13,-21 -19,-32 -36,-65 -77,-131 -113,-196 -7,-13 -73,-126 -75,-131l1202 0 -54 95c-27,46 -55,96 -82,141l-75 131c-3,5 -1,8 -1,16zm137 -389l0 0c0,0 0,0 0,0zm-1053 0l1 0c0,0 -1,0 -1,0zm330 -63c0,-6 1,-5 1,-11l9 0c0,5 1,16 2,20 2,12 7,29 5,41l-6 12c-2,2 -1,1 -4,2 0,-7 2,-11 2,-16 -1,-10 -9,-28 -9,-48zm479 -10c5,3 15,9 22,9 0,26 22,52 44,29 5,-7 7,-11 10,-14 1,6 7,17 -5,34 -5,8 -7,11 -20,11 -33,0 -51,-40 -51,-69zm-74 10l2 29c-2,8 -11,25 -19,31 -8,5 -9,4 -21,4 2,-3 7,-7 13,-15 10,-15 15,-30 21,-47 1,-2 2,-4 2,-6 2,-3 1,-2 3,-4 0,3 -1,4 -1,8zm-384 -13c8,0 8,-1 11,10 2,10 15,59 3,66 -3,2 -1,1 -5,1 0,-5 1,-3 1,-7 0,-15 -2,-40 -6,-54 -2,-5 -4,-10 -4,-16zm370 1l0 0zm-405 12c0,23 8,32 8,64l-12 0c2,-22 2,-12 -1,-36 -2,-20 -8,-26 1,-40l8 0c-2,3 -4,7 -4,12zm-20 2c0,22 4,27 4,37 0,27 2,25 -13,25 0,-6 2,-5 2,-11 0,-19 -11,-51 5,-65 3,-3 8,-5 6,1 -1,4 -4,5 -4,13zm-41 -15c-3,3 -5,3 -8,6 -8,6 -18,35 -25,50 -4,8 -2,9 -9,21l-18 0c5,-9 20,-20 28,-40 7,-14 16,-34 32,-37zm0 0l2 -2 -2 2zm112 -4c13,3 24,51 24,69 0,8 1,12 -7,12 0,-24 -4,-50 -13,-72 -1,-3 -2,-6 -4,-9zm-100 81l-5 0 4 -47c2,-10 8,-32 20,-33 -6,5 -7,8 -10,16 -8,16 -4,27 -3,46 1,11 5,18 -6,18zm-40 0c10,-19 11,-28 17,-44 6,-16 11,-32 27,-36 -3,5 -7,3 -14,16 -3,7 -6,15 -8,24 -6,36 8,40 -22,40zm156 -85c5,0 5,2 8,6 2,3 3,5 4,9 4,7 6,11 9,19 2,9 10,39 10,47 0,5 0,1 -1,4 -7,0 -5,-1 -9,-20 -1,-9 -3,-16 -5,-24 -2,-9 -7,-23 -12,-31 -2,-3 -4,-5 -4,-10zm11 -4c6,1 15,11 17,17 3,6 7,17 10,24 4,11 7,27 16,35 5,5 4,4 4,13 -5,-1 -12,-14 -15,-18 -11,-17 -8,-45 -28,-66 -3,-4 -2,-1 -4,-5zm10 -4c7,1 9,4 12,8 8,10 19,25 24,36 5,9 8,19 13,28 2,4 5,7 9,11 4,4 8,6 11,10 -12,0 -13,-2 -23,-17 -16,-24 -16,-46 -35,-65 -3,-3 -10,-8 -11,-11zm376 8c0,20 7,56 20,71 2,2 5,5 7,7l6 5c2,1 2,1 3,2 -17,0 -18,3 -31,-9 -39,-36 -16,-96 -16,-112l2 0c1,7 4,11 7,16 5,9 2,10 2,20zm-125 85l-43 0c-16,0 -24,-25 -25,-40 3,4 2,6 4,11 15,33 69,24 96,-30 8,-16 29,-65 29,-82 4,3 2,0 3,7 4,40 -9,71 -28,99l-10 14c-5,7 -17,21 -26,21zm140 -138l17 11c13,7 3,-4 9,17 2,6 3,10 5,15 9,19 18,9 25,8 2,1 4,3 5,5 -8,36 -60,-27 -61,-56zm0 0l0 0zm-88 -7c-2,8 -32,58 -35,62l-18 22c-13,10 -29,11 -48,11 3,-2 0,0 8,-3 50,-15 69,-81 80,-86 2,-1 3,-2 4,-2 4,-2 5,-3 9,-4zm0 0l0 0zm-86 -18l0 0zm100 87c1,-4 5,-9 7,-12 16,-26 10,-66 21,-77l21 -19c-1,21 -12,39 -17,61 -3,13 -4,18 -11,28 -5,7 -14,15 -21,19zm-100 -87c7,6 14,13 28,11 12,-1 20,-8 27,-14 2,-2 11,-9 11,-9 4,-3 5,1 16,-3 10,-3 19,-9 28,-14 -1,6 -3,14 -5,19 -10,27 -60,43 -81,35 -10,-4 -22,-14 -24,-25zm106 3l16 -23c5,-6 14,-20 22,-20 9,0 7,16 -12,30 -4,2 -7,5 -11,7 -9,6 -10,4 -15,6zm84 -47l0 0zm1 -1l-1 1 1 -1zm-120 28l21 -24c3,-4 8,-8 12,-11 5,-4 10,-5 17,-7l4 5c-4,6 -17,21 -22,24 -6,4 -22,13 -32,13zm5 -50l-1 1 1 -1zm3 -2l-3 2 3 -2zm2 -1l-2 1 2 -1zm0 0c3,-4 -1,-2 5,-2 -2,2 -1,1 -5,2zm114 38l-1 2c0,18 11,2 20,-2 10,-4 26,0 36,1 24,4 50,4 78,4 -3,2 -5,3 -9,3l-3 2c-2,1 -1,1 -4,1 -1,1 -6,2 -8,2 -6,1 -14,2 -20,2l-38 3c-12,1 -27,0 -33,8 -6,6 -3,6 -15,6 -9,0 -11,0 -14,-7 -6,-13 8,-33 18,-41 13,-12 13,-4 32,-30 4,-6 14,-22 15,-28 1,0 18,11 28,-4 18,9 47,3 67,12 10,5 13,13 10,27 -2,10 -4,24 -11,29 -5,-11 -2,-26 -27,-13 -49,24 -43,11 -83,9 -21,-1 -31,9 -38,14zm-109 -40c4,-4 11,-5 16,-5l-1 1c0,0 -2,0 -2,0 -2,1 -2,1 -4,1 -3,1 -5,2 -9,3zm-11 6c-3,4 -17,16 -19,26 -29,0 -44,-19 -44,-47 2,1 1,0 2,3 3,4 3,6 8,11 23,24 42,9 53,7zm110 -23c-15,0 -19,-1 -19,-16 0,-6 10,-2 14,-1 0,21 22,17 25,1l4 0c0,14 -10,16 -24,16zm9 -13c-2,2 -1,5 -4,2 -2,-3 1,-2 4,-2zm-3 57c2,-8 13,-17 19,-22 21,-16 27,-38 34,-49 7,-10 17,-14 28,-9l1 14c-14,9 -13,4 -24,-2 -2,4 -3,5 -6,10 -8,17 -17,34 -34,44 -12,7 -13,11 -18,14zm-46 -84l3 1 -3 -1zm-81 -10c0,-11 -1,-29 7,-37 0,18 0,30 13,46 5,6 8,9 15,14 7,5 11,6 17,8 3,2 1,1 3,2 -7,0 -13,3 -20,2 -7,0 -13,-1 -22,-1 -2,-7 -13,-16 -13,-34zm129 -1l0 0zm0 0l-2 -1 2 1zm-12 -14c1,1 1,1 3,3 1,2 1,2 2,4 2,2 4,3 5,6 -2,-1 -6,-3 -7,-5 -3,-3 -4,-4 -3,-8zm0 0c-1,-2 -1,3 -1,-4 1,2 1,-1 1,4zm-2 -7l0 0zm0 0l-4 -9c0,-4 1,-7 3,-10 0,8 1,13 1,19zm-34 32c-8,-1 -20,-6 -25,-13 -3,-4 -5,-24 -5,-31 0,-6 4,-16 8,-18 0,10 -5,20 3,37 9,18 14,17 19,25zm-22 -62l0 -3 0 3zm-593 871c-4,-3 -7,-6 -8,-10 -4,1 -5,3 -9,5 15,26 15,15 23,22 2,1 4,9 5,11 -14,0 -16,0 -23,-8 -4,-5 -9,-14 -10,-23l-5 0c-4,20 4,42 25,48 11,4 11,1 20,0 -3,7 -6,49 -8,60 -3,20 -8,38 -12,58 -9,42 -14,72 -25,114 -7,26 -26,105 -26,131 0,9 1,8 5,12l20 16c7,5 16,8 29,6 5,-1 19,-10 21,-14 -5,2 -10,5 -16,6 -9,2 -13,2 -19,-1 0,-18 18,-114 22,-139 2,-9 3,-15 4,-23 1,-8 -1,-7 5,-8 6,-1 8,0 10,-4 -4,0 -16,-1 -18,-3 -1,-2 2,-15 3,-19l16 -94c2,-7 3,-12 3,-19 7,0 7,1 14,-1 5,-1 10,-4 13,-7 -8,2 -17,4 -24,2 -5,-2 -3,-2 -7,-4 0,-15 3,-27 3,-43l26 39c10,13 8,7 5,29 -6,39 -15,103 -18,142l-10 95c-2,16 -4,33 -6,49l15 10c8,8 22,16 34,16 8,0 17,-2 20,-6 -16,0 -29,7 -24,-25 1,-8 1,-16 2,-24 0,-7 2,-18 2,-24 1,-9 1,-16 2,-25l6 -74c3,0 9,-2 11,-2 3,-1 4,-1 5,-2 4,-1 3,-1 5,-2 -32,0 -29,9 -23,-44 3,-25 7,-48 7,-72 5,2 7,6 11,9l20 20c3,5 1,14 0,18l-4 77c1,54 -2,106 -2,160 5,2 8,5 13,8 3,3 10,5 14,7 5,2 11,3 19,2 5,-1 11,-4 13,-9 -4,2 -16,4 -19,3 -6,-3 -5,-11 -5,-20 0,-18 1,-31 1,-49 0,-33 0,-66 0,-99 10,0 16,-3 24,-7 3,-2 4,-2 5,-6 -5,4 -7,5 -15,5 -6,1 -16,1 -20,-1 -3,-6 1,-59 1,-70 6,4 12,7 18,11 3,3 15,10 19,11 0,28 0,52 1,78 0,18 2,38 2,57 0,8 2,11 2,18 0,9 0,51 2,57 2,5 28,23 37,24 11,0 24,1 31,-9 -13,1 -13,5 -24,-3 0,-27 -5,-55 -6,-82 0,-8 -1,-12 -1,-20l-5 -52c-1,-6 -1,-6 2,-9 4,2 5,7 7,10l20 34c6,11 16,86 18,105 2,14 4,14 16,21 15,8 25,12 42,5 2,8 19,33 24,42 4,8 21,34 23,43 5,-1 6,-6 8,-10 7,-12 43,-71 45,-79 22,5 19,18 60,-7 4,-2 2,0 4,-4l20 -126c2,-15 11,-25 18,-37 3,2 7,4 12,5l-2 19c-1,6 -1,15 -1,20l-7 81c0,14 -2,26 -2,41 -4,3 -5,5 -11,5 -4,0 -9,-2 -13,-2 8,12 29,11 38,7 6,-2 10,-6 15,-9 3,-3 10,-10 14,-11 0,-17 3,-37 3,-54l4 -108c2,-16 1,-38 1,-56 4,-1 14,-8 19,-11 6,-4 11,-9 17,-13l2 29c0,10 -1,22 0,32 1,10 6,19 -10,18 -6,0 -10,1 -15,0 -8,-2 -7,-3 -12,-5 5,7 18,13 29,13 0,10 1,15 1,24 0,39 -2,85 1,124 3,25 -6,22 -25,17 6,8 20,12 32,7 17,-6 25,-14 29,-15 0,-50 -3,-100 -3,-150l-1 -32c0,-14 -4,-52 -4,-65 0,-8 -1,-10 -1,-17 13,-8 28,-29 32,-30 0,13 2,26 4,38 3,26 5,51 8,75 2,20 -11,14 -27,13 2,1 2,1 4,2l18 4c0,19 7,76 7,98l4 48c0,7 4,19 -1,23 -5,6 -15,3 -23,3 6,8 27,7 39,1 4,-2 12,-7 15,-10 6,-5 8,-8 15,-11l-11 -99c-4,-31 -6,-67 -11,-99 -4,-31 -8,-66 -13,-97 -4,-29 -4,-17 15,-49 2,-3 3,-5 5,-8 2,-4 3,-6 5,-9l5 -9 5 59c-13,9 -16,3 -31,2 4,4 10,7 16,8 14,2 9,-13 20,51 2,14 15,74 13,83 -8,0 -12,1 -18,1 3,4 0,2 6,3 3,1 4,1 8,1 4,17 11,64 14,85 3,19 14,70 14,85 -13,6 -29,-3 -34,-3 2,3 15,12 21,12 20,2 32,-7 47,-21 9,-8 6,-14 4,-28 -7,-56 -26,-113 -37,-168 -8,-41 -23,-106 -28,-144 -1,-10 -4,-22 -4,-31 -5,0 -8,-2 -12,-3l0 -2c10,1 8,4 20,0 14,-4 23,-13 26,-27 1,-4 0,-8 0,-12 0,-7 2,-8 -5,-9 0,7 -5,17 -9,22 -6,9 -9,9 -23,9 1,-19 21,-10 26,-32l-6 -7c-5,4 -4,8 -10,12l5 -21c2,-6 0,-4 3,-7 0,15 6,22 22,22 5,-12 -6,-18 33,-76 8,-10 14,-23 19,-35 1,-4 2,-7 3,-11 0,-5 1,-9 1,-13 1,-8 0,-19 0,-27l-7 -4c-5,3 -4,5 -10,7 -3,1 -11,1 -16,0 -6,-1 -11,-7 -12,-13 -1,-3 -1,-3 1,-5 5,21 21,19 33,11 0,-35 -9,-14 -5,-52 1,-8 1,-13 5,-16l-3 25c-2,13 2,17 6,34 3,16 21,9 28,4 0,-7 0,-10 -1,-16 -1,-4 -4,-9 -5,-13 -2,-13 5,-43 8,-62 1,-9 -1,-25 1,-33 5,8 2,32 1,41 -2,17 -12,39 -5,58l4 18c4,8 29,9 29,-5 0,-14 -8,-16 -7,-39 1,-14 5,-26 7,-38 2,-13 1,-28 1,-42l-4 -31c-1,-4 -2,-4 1,-7l4 24c4,34 4,40 -3,74 -5,28 -4,27 1,48 3,11 0,13 12,16 5,1 17,-1 18,-7 4,-10 -9,-22 -5,-48 2,-16 7,-29 7,-48 0,-31 1,-47 -9,-74 -2,-4 -2,-5 -4,-9 -3,-6 -4,-7 -1,-10 2,9 11,21 14,42 4,21 4,48 1,71 0,4 -2,3 1,5 6,2 10,-12 12,-15 13,-26 8,-28 12,-41l0 -2c0,-9 1,-19 0,-29 0,-10 2,-16 2,-27 0,-20 -2,-36 -2,-57 -3,3 -4,9 -7,13 -3,6 -4,7 -8,12 -5,5 -16,18 -17,24 -4,-1 -2,0 -5,-2 3,-4 4,-2 7,-8 12,-17 26,-28 29,-50 1,-10 7,-13 9,-22l2 0c1,3 2,3 3,7 3,9 2,20 4,29 4,11 11,18 20,24 1,-2 2,-2 3,-5 1,-1 2,-4 3,-6 2,-4 3,-7 6,-11 19,-32 12,-51 4,-83 -4,-1 -5,-1 -9,-2 -6,-1 -5,0 -6,-5l-15 0c0,-8 -8,-22 -14,-26 0,5 3,11 5,15 -14,-3 -23,-10 -29,-11 3,4 0,14 0,22l-3 0c2,-8 1,-20 1,-30 2,2 22,17 25,14 1,-1 -1,-8 -1,-10 -1,-16 4,-19 2,-38 11,8 21,9 33,2 -1,-8 -7,-26 -15,-28 4,-6 42,-10 10,-31l-21 -10c0,0 0,0 0,0 31,0 46,-33 77,-42 9,-2 17,1 11,-7 -29,-44 -110,-22 -137,5 -9,9 -15,19 -12,35 3,19 9,18 19,28 10,9 16,18 10,34 -19,49 -65,71 -117,77 -29,3 -63,1 -95,1 4,-5 33,-24 15,-57 -6,1 -8,10 -12,15 -23,30 -45,-16 -36,-24 6,-3 11,3 20,-9 5,-7 0,-18 -10,-16 -4,1 -6,4 -11,3 -8,-3 -13,-26 -13,-35 11,0 23,1 25,-7 -10,-5 -28,-2 -17,-29 7,-15 21,-12 39,-14l49 -4c8,-1 35,-5 38,-16 -6,-4 -8,-2 -16,-2 -20,0 -41,0 -59,-2 -11,-1 -24,-4 -34,-5 -15,-1 -21,7 -29,12 2,-9 17,-14 29,-14 13,-1 26,2 38,4 30,4 42,-14 65,-19 4,3 4,2 5,8 2,7 1,5 5,9 13,0 15,-16 17,-26 9,-42 -23,-44 -61,-45 -10,0 -12,-2 -19,-4 -3,-12 0,-22 -23,-16 -10,2 -3,-5 -7,-14 -9,0 -4,0 -9,3 -4,3 -4,1 -9,3 -10,-15 -13,-11 -27,-20 -11,-7 -14,-17 -14,-35 -8,1 -17,9 -18,17 -1,14 7,16 4,27 -17,0 -36,-19 -40,-38 -2,-12 4,-11 -1,-22 -16,4 -26,32 -23,48 1,10 6,19 -9,11 -21,-13 -18,-15 -23,-40 -9,0 -11,7 -14,14 -11,24 -8,49 6,68 6,9 4,9 -2,17 -11,15 -40,9 -51,-3 -5,-4 -3,-6 -8,-7 -8,16 -1,65 44,65 -2,24 -31,42 -52,27 0,0 -15,-14 -8,7 1,5 4,11 7,16 13,16 22,14 30,18 -1,3 -6,11 -9,23 -4,18 -11,31 -25,42 -3,3 -17,11 -21,12 1,16 43,7 55,-1 -3,10 -22,30 -35,29 -20,-2 -24,-20 -28,-36 -8,0 -6,6 -6,15 0,15 1,31 11,42l2 2c2,2 2,1 3,3l-120 0c-7,-13 -17,-9 -28,-36 -2,-5 -5,-10 -7,-15 -7,-13 -24,-43 -41,-47l1 -23c-6,1 -12,7 -18,10l0 21 -3 0c0,-5 1,-16 0,-18 -2,-4 -9,1 -14,2 0,3 0,7 0,11 0,7 1,7 -3,10l0 -20c-4,0 -13,2 -16,4l-3 0c-7,0 -8,1 -15,1l-2 19c0,-12 4,-20 -9,-19 -13,1 -10,3 -10,18l-2 -17c-18,0 -17,-8 -17,15l-2 -16c-6,0 -12,-2 -18,-3 -1,7 -4,10 -5,17 -17,0 -34,8 -42,21 -9,13 -14,29 -23,42 -5,6 -5,6 -11,11 -4,3 -10,6 -10,12 -50,0 -97,5 -144,-14 -20,-8 -34,-17 -46,-33 -6,-6 -12,-15 -16,-23 -13,-25 -4,-34 16,-50 8,-7 10,-17 9,-31 -1,-37 -72,-57 -104,-54 -16,2 -29,8 -40,19 -3,3 -7,6 -7,12 27,0 38,15 55,28 10,7 20,15 35,15l-5 2c-7,4 -30,14 -29,24 1,9 19,9 24,15 -9,2 -15,19 -15,28 5,3 7,5 16,5 8,0 11,-4 16,-7 -2,12 -1,15 2,24 2,12 1,15 -2,25 6,-2 9,-2 14,-6l13 -9c0,6 -2,8 -2,15 1,7 2,8 2,15l-4 -22c-5,1 -7,4 -12,6 -4,2 -12,4 -16,5 1,-4 2,-4 3,-7 1,-3 2,-5 2,-8 -4,1 -6,8 -8,11 -4,6 -5,5 -5,15 -3,-1 -1,0 -3,-1 -3,-3 3,0 -2,-3 -3,4 -5,3 -10,5l-12 5c-7,2 -6,7 -10,23 -8,36 6,54 22,83 4,-1 4,-1 7,-3 9,-10 25,-32 26,-45l3 0c2,6 2,1 2,10 1,5 1,8 3,12 2,6 6,13 10,17l21 27c1,1 1,2 0,4 -5,-1 -6,-6 -9,-11 -3,-4 -6,-7 -9,-12 -14,-16 -15,-23 -17,-26 0,49 -29,111 -19,138 2,4 16,34 23,30 5,-2 2,-1 4,-14 4,-26 10,-52 19,-76 2,-5 4,-10 6,-14 2,-4 4,-10 8,-11 0,9 -10,29 -12,43 -2,9 -5,41 -4,51 1,8 2,16 4,24 12,50 -1,39 -1,73 5,3 11,7 19,5 12,-3 8,-7 11,-17 5,-23 7,-16 1,-46 -7,-36 -7,-63 1,-99 3,3 3,2 1,7 0,2 -1,7 -2,10 -2,20 -4,45 -1,65 4,24 12,35 4,60 -3,8 -3,10 -3,21 9,5 25,10 28,-4 2,-7 3,-11 5,-17 5,-18 -3,-38 -6,-55 -1,-12 -1,-29 -1,-43 6,6 0,25 7,57 8,34 4,33 -1,54 -5,22 15,22 23,18 5,-3 4,-6 5,-12 4,-18 7,-21 4,-42 -1,-5 -2,-9 -3,-14 7,5 9,32 6,42 -3,13 -12,31 8,32 8,1 10,0 14,-4 5,-4 5,-4 5,-12l3 0c0,13 -10,15 2,19 6,2 7,1 10,5 -9,0 -8,-1 -15,-3 0,29 -1,34 9,54 7,12 19,28 20,44 -1,-1 -1,-1 -2,-2l-9 -21c-22,-43 -20,-28 -20,-81 -6,1 -2,2 -7,3 -13,4 -18,-2 -26,-7 -4,1 -4,2 -8,3 0,19 -1,35 4,50 10,31 42,65 48,90 2,7 2,17 5,23 10,0 18,-4 20,-13l2 -8c0,0 0,0 0,-1 1,10 6,18 7,27z"/>
   <path class="fil0" d="M1182 2204l0 0zm-117 -56l0 0zm-32 39l14 -10c11,-8 25,-19 28,-32 3,-7 -1,-10 14,-8 8,2 4,1 9,4 -5,22 -44,44 -65,46zm74 -48c9,0 14,-1 21,-3 3,4 5,6 9,9 21,18 19,53 42,67 5,4 8,1 13,6 -28,0 -30,-6 -49,-33l-36 -46zm75 65c-21,-14 -8,-26 -38,-63 -3,-4 -5,-4 -7,-7 6,-2 9,0 16,10 3,4 7,15 9,21 4,7 6,12 9,19l11 20zm49 -75l0 0zm-82 -1c3,-1 11,-7 13,-12 5,4 14,16 18,21 13,22 7,42 39,58 8,4 18,8 8,15 -2,2 -5,3 -8,4 -16,6 -31,-15 -37,-27l-14 -31c-14,-31 -12,-19 -19,-28zm38 -14l0 0zm0 0l0 0zm-18 -8c5,2 3,3 8,10l33 40c7,8 19,19 21,36 -8,-5 -18,-7 -23,-14 -17,-22 -9,-34 -33,-61 -4,-3 -9,-5 -6,-11zm-138 -10c12,6 25,10 37,17 -6,8 -10,7 -3,21 -4,7 -13,14 -20,19 -16,12 -41,24 -54,43 -3,5 -5,9 -9,12 0,-41 25,-28 50,-65 8,-12 3,-39 -1,-47zm-619 7c-3,-3 -2,-1 -2,-8 5,1 2,1 2,8zm900 -12l0 0zm-912 -5c4,3 2,11 -4,12 -4,1 -2,1 -4,-2 8,0 8,-2 8,-10zm683 4c9,1 27,11 31,16 -16,0 -2,2 -24,-11l-7 -5zm0 0l-3 -1 3 1zm-683 -4l-2 -1 2 1zm912 -11l0 0zm-284 -10l0 0c0,0 -1,0 0,0zm148 -4c17,5 31,39 91,45 21,3 53,18 64,34 11,14 14,57 -16,43 -6,-24 10,-36 -58,-56 -35,-10 -53,-11 -81,-31 0,-6 2,-10 2,-17 0,-8 -2,-11 -2,-18zm-151 3l0 0c0,0 0,0 0,0zm-2 -2l0 0zm0 0l-3 -1 3 1zm153 -1l0 0zm-156 0l-2 -1 2 1zm-2 -1l-2 -1 2 1zm-2 -1l-2 -2 2 2zm-588 30c-10,0 -26,-11 -26,-22 0,-14 3,-20 12,-31 3,-3 4,-5 6,-7 4,-4 25,-18 31,-19 2,8 13,17 18,24 -3,5 -5,10 -7,16 -5,12 -13,39 -34,39zm570 -64c18,0 14,2 26,13 3,2 4,3 7,6 22,22 39,27 72,34 14,2 28,9 39,15 -4,7 -9,9 -18,11l-14 -11c-20,-14 -42,-13 -56,-22l-32 -19c-5,-3 -9,-8 -14,-12 -6,-6 -7,-9 -10,-15zm25 0c22,0 11,1 31,12 10,5 20,9 32,12 20,5 61,10 61,27l-2 9c-5,-1 -10,-5 -15,-7 -6,-3 -10,-4 -17,-6 -24,-7 -45,-8 -67,-25 -4,-3 -7,-7 -11,-11 -5,-4 -9,-6 -12,-11zm26 -1c38,0 37,-4 75,9 17,5 45,19 45,41 0,18 -4,28 -17,41 -17,18 -39,16 -62,14 -14,-1 -17,3 -21,-5 7,-10 34,-5 60,-13 24,-7 30,-31 24,-44 -8,-17 -52,-21 -79,-30 -6,-2 -9,-3 -14,-6l-11 -7zm-103 11c3,0 2,-1 5,-1 3,14 11,18 11,25l-31 15c-27,12 -78,36 -106,36 -20,0 -26,0 -44,-5 -22,-5 -35,-14 -46,-32 -19,-31 -9,-74 17,-99 22,-22 70,-13 99,-4 12,4 20,8 31,13 14,5 48,19 62,22 0,9 4,16 5,24 -6,-4 -7,-4 -15,-4 2,3 7,10 12,10zm68 22c-9,-2 -31,-26 -33,-36 5,0 3,-2 9,8 8,15 22,26 24,28zm298 34c4,-8 10,-12 11,-24 -11,-7 -5,1 -37,4 -16,2 -29,-1 -41,-6 -9,-4 -23,-14 -30,-20 -6,-5 -22,-20 -26,-25 23,-12 43,-18 71,-35 19,-11 48,-32 76,-22 14,5 20,15 24,29 5,15 7,27 6,47 0,18 -8,26 -19,33 -2,2 -5,3 -7,5 -4,2 -5,4 -9,6 -5,3 -13,7 -19,8zm-357 -84l9 6c12,7 14,42 71,65 11,5 54,23 60,31 -18,0 -9,5 -24,-4 -6,-4 -13,-6 -20,-9 -20,-9 -34,-15 -52,-25 -4,-2 -6,-3 -10,-5 -7,-5 -11,-8 -17,-15 -4,-5 -8,-12 -10,-19 -2,-4 -3,-7 -4,-11 -1,-4 -2,-11 -3,-14zm845 72c-38,0 -75,-17 -105,-37 -14,-10 -25,-18 -48,-18 8,-13 22,-47 22,-68 12,6 42,10 61,10 49,0 91,-21 112,-21 23,0 43,2 53,27 7,18 8,41 0,59 -9,17 -22,24 -39,32 -8,4 -16,8 -25,11 -8,2 -22,5 -31,5zm-403 -82l0 0zm-460 -6l0 0zm430 79c10,-18 10,-21 10,-44 0,-7 -1,-7 -1,-14 14,0 57,-11 69,-16 64,-25 123,-94 165,-94 26,0 48,18 48,45 0,57 -40,117 -95,131 -20,5 -28,3 -48,3l-51 -4c-15,-2 -31,-5 -47,-7 -28,-4 -22,-2 -50,0zm-927 -119c0,-29 24,-31 49,-63 3,-5 7,-10 11,-12 8,-5 29,-8 43,-8 19,0 39,12 52,24l37 40c17,17 42,42 61,55 7,4 19,9 30,9 -6,13 -9,27 -9,46l-48 11c-45,8 -85,9 -129,-4 -16,-5 -34,-9 -49,-16 -26,-13 -48,-60 -48,-82zm541 9l0 7c19,13 48,5 49,-12 4,1 6,3 10,5 8,5 22,12 24,22 -21,0 -37,-1 -55,-2 -56,-5 -36,-35 -27,-35 8,0 13,11 -1,15zm416 37l44 -30c23,-18 28,-27 39,-35 4,-4 5,-2 9,-2l30 8c-7,9 -66,45 -85,51 -8,2 -26,8 -37,8zm-85 78l0 0zm-805 -214l0 0zm838 64c-2,3 -4,6 -6,10 -2,4 -5,6 -7,10 -3,-3 -4,-5 -8,-7 -20,-16 -21,-21 -46,-33l-22 -11 -2 -33 -5 0c0,12 -1,18 -1,30l-23 -8c-7,-2 -18,-5 -27,-5 5,-8 27,-16 35,-52 25,13 36,-10 52,-10 6,0 8,17 11,23 7,10 42,18 46,24 3,3 5,10 11,16 5,5 6,-1 1,20 -1,6 -4,10 -4,16 -5,-2 -25,-17 -31,-22l-9 -8c-10,-9 -18,-14 -25,-26 -7,-10 -17,-13 5,16 5,7 10,13 17,19l38 31zm62 -143c9,-13 25,-21 41,-24 8,-1 22,2 28,4 28,7 40,28 40,56 1,37 -24,87 -49,112 -3,3 -6,5 -9,8 -19,18 -61,48 -84,61 -2,-4 -3,-11 -5,-16 -2,-5 -4,-10 -7,-13 -6,-9 -12,-13 -22,-18 10,-15 12,-14 21,-38 8,-22 14,-68 22,-96 5,-16 13,-29 24,-36zm-562 -2c26,-6 20,-11 27,-26 1,-3 2,-3 7,-5l30 -12c9,14 19,15 32,15 15,0 21,-7 26,-15l30 40c13,18 43,31 63,42 37,22 27,5 70,37 56,42 61,24 114,45 5,2 8,3 12,6 33,15 28,12 54,33 4,4 6,5 10,10 -30,0 -2,10 -48,-6 -38,-14 -94,-37 -132,-53 -16,-6 -29,-10 -43,-18 -21,-13 -21,-16 -47,-30l-30 -16c-6,-3 -13,-7 -19,-11 -8,-5 -15,-12 -20,-9 3,9 41,29 50,34 6,4 12,7 18,11 11,8 22,14 34,22 47,28 107,46 158,68 6,3 35,17 40,18 -3,3 -5,3 -9,6 -35,20 -34,18 -69,36 -19,9 -23,11 -32,5 -7,-4 -15,-8 -19,-11 -3,-3 -4,-5 -8,-8 -22,-17 -27,-21 -53,-38 -15,-11 -30,-19 -46,-31l-16 -14c-10,-10 -26,-19 -41,-35 -9,-9 -21,-22 -31,-29 -5,-5 -10,-10 -15,-15 -4,-4 -16,-16 -17,-9 0,5 56,59 59,62 11,9 21,18 33,27l86 66c6,5 12,9 17,14l-20 -3c-8,-1 -17,-1 -25,-1 -1,-20 -34,-32 -41,-39 -4,-4 -2,-4 -4,-9 -1,-4 -3,-7 -5,-9 -4,-6 -9,-9 -15,-12 -10,-3 -12,-1 -20,-7 -61,-48 -28,-27 -97,-65 -17,-10 -21,-10 -29,-25l-19 -36zm792 116c-9,-2 -13,-5 -24,-5 -18,0 -38,9 -49,16 4,-18 44,-84 54,-99 11,-17 19,-29 31,-45l29 -34c3,-2 5,-3 8,-6 20,-19 44,-32 74,-32 32,0 30,31 30,52 0,25 -11,54 -26,69 -14,14 -38,31 -56,39 -20,10 -51,15 -71,45zm-1130 -35c6,-8 23,-17 31,-24 17,-14 28,-38 36,-44 22,-18 32,-16 46,-36 7,-11 25,-46 30,-50 6,-4 17,0 24,0 16,0 25,-12 37,-18 18,-8 19,26 52,26 23,1 12,16 33,21 17,4 6,6 22,32 2,3 4,5 7,7 4,4 5,1 8,6l19 36c8,15 11,19 26,28 29,16 58,30 83,52 4,3 13,9 15,13 -12,1 -24,7 -31,15 -5,7 -15,21 -15,32 -22,-6 -80,-60 -93,-73 -19,-20 -23,-23 -37,-46 -6,-9 -10,-17 -15,-27 -6,-12 -9,-25 -16,-27 -6,14 21,56 27,65 11,15 41,50 56,61l38 33c9,7 17,14 27,21l10 7c4,3 6,12 10,20 -6,-1 -30,-11 -38,-13 -13,-5 -24,-10 -36,-15 -12,-5 -26,-9 -40,-11 -12,-2 -39,-5 -49,0 -8,-12 -16,-24 -24,-37 -21,-32 -26,-53 -34,-89 -5,-20 -6,-34 -6,-58 -6,0 -5,2 -6,9 -2,14 -1,31 0,45 2,12 5,28 9,39 6,20 12,37 23,56l25 39c-15,8 -23,15 -33,30 -34,-1 -49,-27 -67,-41l-53 -56c3,-4 8,-8 12,-12 12,-12 26,-29 31,-44 4,-11 21,-75 17,-83 -5,2 -4,2 -5,8 -11,37 -16,66 -40,98 -4,6 -20,22 -27,23 -12,-8 -17,-14 -37,-20 -26,-6 -34,2 -52,2zm1031 -126c5,3 6,0 10,-2 -1,4 -7,9 -10,11 -5,4 -1,2 -8,3 -6,1 -3,0 -7,3 3,4 -1,2 5,3 -3,4 -16,10 -20,14 -5,-6 -16,-11 -22,-14 2,-7 2,-16 4,-23 13,-50 64,-59 64,-11 0,21 -13,2 -16,16zm-962 43c-14,4 -30,37 -36,41 0,-6 1,-8 1,-16l2 -68c0,-3 -2,-3 -5,-3l-7 75c-3,29 3,19 -22,38 -5,3 -7,7 -12,9 -11,-24 -4,-23 -1,-29 6,-15 19,-73 24,-95 2,-4 3,-4 -1,-7 -4,2 -1,-2 -5,10l-11 37c-2,6 -12,40 -17,46 -3,-12 -4,-25 -8,-37 -3,-12 -3,-6 12,-28 3,-4 5,-8 8,-13 3,-6 4,-9 7,-15 6,-11 7,-22 12,-33 7,2 9,6 18,6 14,0 17,-7 28,-8 7,15 1,17 21,26 8,4 1,6 14,21 8,9 7,10 13,14 -8,13 -9,12 -19,18 -3,2 -4,4 -8,5 -3,-7 -7,-19 -9,-27 -3,-9 -7,-20 -9,-28 -5,2 -3,-1 -3,4l9 41c1,5 3,12 4,16zm-214 -69c23,-5 41,-7 63,9 15,11 30,28 37,46 7,17 9,34 13,54 7,31 14,42 16,50l-18 22c-2,3 -4,5 -7,7 -1,-4 -1,-6 -4,-8 -3,-2 -7,-2 -11,-2 6,11 11,10 14,13 -5,1 -4,2 -8,5l-4 -4c-2,-1 -3,-2 -4,-3 -22,-14 -53,-27 -77,-37 -32,-13 -60,-32 -60,-71 0,-22 -1,-41 14,-56 12,-11 18,-16 34,-24 0,3 2,8 3,10 6,8 14,1 2,-9l-3 -2zm1434 63c4,-9 5,-29 5,-43 9,-2 29,-18 37,-24 16,-13 42,-62 75,-78 17,-8 70,-11 70,36 0,48 -23,64 -65,85 -18,9 -34,12 -55,18 -22,5 -39,6 -67,6zm-1207 -124c2,-2 -3,-2 4,-2 -2,1 1,1 -4,2zm7 -3l-2 2 2 -2zm-7 3c-7,4 -39,3 -51,6 -7,1 -13,5 -10,16 1,7 10,10 13,15 -7,0 -31,-22 -30,-29 2,-10 27,-11 35,-11 8,0 15,0 23,0 9,0 15,-1 22,-1 0,0 0,0 0,0l-4 1c-2,1 -3,1 -6,1l-37 1c-13,2 -40,5 -22,18 1,-17 28,-16 47,-16 7,0 11,-1 20,-1zm-313 31l-1 -2c-4,-9 -1,-9 -1,-19 6,1 8,10 12,6 2,-2 0,-5 -2,-6 -1,-1 -6,-2 -8,-3 6,-9 18,-17 31,-17 2,7 0,10 7,11 0,-9 0,-6 -3,-11 7,1 8,5 14,13 10,14 13,23 15,40 1,4 0,9 0,12 -2,10 -2,6 -13,16 -3,2 -5,4 -9,3 -17,-3 -42,-33 -42,-43zm-5 -48c2,0 3,0 6,3l1 1c-1,4 0,3 -4,5 2,-9 1,-2 -3,-9zm23 -3l0 0zm-10 -4c0,4 3,4 7,5 -3,3 -1,4 -5,1 -3,-2 -7,-8 0,-13 -1,3 -2,3 -2,7zm1526 -13c0,-18 16,-26 25,-26 21,0 36,44 36,63 0,0 -5,5 -6,7 -5,-2 -12,-3 -18,-5 -18,-6 -37,-20 -37,-39zm-7 -30c6,0 6,0 7,5 -3,-2 -5,-2 -7,-5zm177 29l-2 1c-3,4 -5,3 -8,8 -5,-3 -14,-6 -21,-7 0,-19 0,-34 7,-47 20,-40 59,-4 50,16 -4,9 -16,26 -26,29zm-153 -35l0 0zm-1390 10c-3,-2 -7,-9 -9,-13 6,-2 13,-2 21,-2 -4,5 -10,5 -12,15zm1379 -13c0,5 2,3 5,7 -11,-1 -7,-11 -6,-13l2 0c0,3 -1,3 -1,6zm-1225 72c4,-3 10,-5 11,-12 1,-6 -3,-12 -7,-15 -25,-14 -110,31 -152,-9 -10,-10 -25,-26 -29,-40 -3,-10 4,-10 12,-9 15,0 32,-1 41,5 0,16 -31,19 -16,34 4,4 10,5 15,5 7,1 28,-1 36,-2 29,-4 84,-12 106,2 25,16 7,41 -12,42 4,-3 16,-8 19,-19 3,-12 -9,-19 -16,-22 -15,-6 -47,-5 -67,-2 -18,2 -54,7 -71,5 -9,-1 -20,-7 -17,-21 2,-10 16,-11 18,-20 -7,-2 -8,-2 -18,-2 -25,0 -30,-4 -21,13 2,4 6,10 9,13 27,33 53,34 99,27 23,-3 59,-15 72,1 10,13 -1,25 -12,26zm1417 -94l-1 -1 1 1zm-1 -1c-8,-5 1,-18 7,-10 -5,0 -4,-1 -7,1 -1,6 -1,2 0,9zm-13 -17c2,2 2,0 2,4 0,4 0,2 -2,4 -2,-4 0,-2 0,-8zm-167 43c0,-9 0,-14 -7,-17 -3,-1 -7,0 -9,2 -4,3 -2,4 -4,8 -3,8 -13,1 -14,11 -1,8 2,13 10,13 -13,26 5,53 29,64 7,3 17,6 25,8l-11 16c-2,3 -4,5 -6,7l-5 5c0,0 0,0 0,1l-17 14c-7,4 -11,7 -18,11 -1,-24 -17,-35 -38,-38 -18,-2 -46,8 -60,17 -35,22 -58,55 -82,88 -19,26 -36,54 -50,83l-24 51 -11 8c-5,4 -8,2 -14,0 -10,-2 -20,-5 -31,-7 23,-34 47,-86 33,-129 -2,-8 -4,-10 -8,-17 23,-12 55,-35 50,-66 -4,-21 -22,-36 -45,-30 -27,7 -44,42 -44,72 -41,-9 -58,5 -84,31 -6,7 -9,9 -13,17 -3,7 -6,15 -8,23 -2,7 -4,15 -6,24 -1,8 -4,17 -4,26 -8,-5 -6,-15 -18,-21l-28 -12c-15,-7 -9,-9 -16,-23 -13,-28 -38,6 -53,4 -5,-1 -10,-5 -15,-5 -10,2 -14,29 -22,39 -6,7 -14,13 -21,19 -5,3 -7,1 -13,-1 -4,-3 -8,-4 -13,-7 -8,-4 -17,-10 -24,-16 -22,-16 -23,-18 -52,-28 -20,-7 -33,-18 -52,-27 -47,-24 -51,-75 -70,-67 -13,6 -4,14 -27,14 -8,0 -11,0 -15,-4 -13,-12 -7,-12 -25,-6 -10,3 -19,7 -27,12 -13,6 -6,18 -16,24 -2,2 -13,4 -15,4 -10,-1 -15,-14 -19,-22 -1,-4 -3,-11 -5,-14 -8,-12 -17,-4 -25,-14 -7,-9 -9,-16 -24,-16 -16,0 -17,-3 -27,-13 -20,-21 -30,-14 -52,0 -21,14 -34,-14 -55,23 -5,9 -10,17 -14,26 -6,-3 -12,-12 -16,-18 -8,-12 -1,-11 -16,-19 -17,-8 -7,-38 -38,-22 -5,-3 -9,-6 -10,-12 7,-8 24,-8 35,-10 19,-3 56,-7 56,-34 0,-28 -27,-39 -51,-39 -44,0 -74,9 -104,9 -10,0 -14,1 -18,-5 2,-3 4,-3 7,-6 7,-5 18,-16 10,-25 -7,-9 -61,-13 -67,-6 -13,13 15,43 23,52 23,23 40,32 77,28 25,-3 47,-7 71,-10 8,-1 17,0 17,10 -21,11 -93,-5 -90,23 0,5 3,10 6,13 3,4 6,7 10,10 -11,0 -13,6 -16,15l-8 24c-4,9 -19,36 -25,40 -15,-32 -42,-60 -79,-64 -11,-1 -22,1 -32,4 -4,1 -6,3 -9,3 0,-23 -3,-32 -15,-52 -16,-27 -19,-22 -42,-21 9,-18 -18,-29 -18,-7 -7,2 -14,1 -15,8 -2,10 1,14 10,14 -6,8 -8,14 -8,28 0,17 12,30 22,42 6,8 17,16 28,19 -6,8 -9,17 -11,30 -7,56 10,86 61,107l45 19 41 23c-9,13 -19,13 -19,42 0,13 5,26 10,37 2,4 4,6 5,11 -11,3 -33,20 -42,31 -8,10 -15,27 -11,41 2,7 3,7 6,12 -10,-2 -15,4 -15,16 4,3 7,8 18,3l9 10c8,-2 13,-4 13,-15 21,5 41,-17 47,-38l7 -21c2,0 15,7 25,10l28 8c51,13 69,17 126,8 21,-4 40,-8 60,-12 1,3 2,9 6,17 7,16 18,29 34,37 20,10 52,15 81,12 21,-3 36,-10 54,-17 6,-3 11,-4 17,-7 16,-7 43,-18 57,-27 1,-1 3,-2 4,-3l3 -2c24,16 23,13 42,24 15,8 17,40 12,48 -1,4 -8,12 -11,15 -20,17 -34,20 -40,41 -7,28 10,29 18,17 13,-18 16,-24 41,-39 13,-8 20,-15 31,-22 -3,13 -43,35 -46,37 -4,4 -3,4 -1,9 18,4 39,-6 51,-12 8,-4 14,-9 20,-14 6,-5 12,-13 15,-19 4,2 3,2 6,6 5,7 7,5 15,18 24,35 33,57 69,52 5,-1 7,0 8,-5 15,4 16,5 29,-2 0,10 0,14 10,15 25,2 36,-20 30,-42 -7,-28 -29,-41 -40,-62 7,0 53,14 59,18 27,18 10,27 18,39 4,8 32,14 37,-8 7,-27 -3,-40 -19,-54 -4,-4 -20,-15 -25,-15 2,-4 4,-3 9,-5 4,-1 6,-2 10,-4 6,-2 13,-5 18,-9 8,-4 10,-5 20,-8 45,-11 75,3 122,7 18,1 34,3 53,3 32,0 58,-10 81,-30 9,-8 21,-19 27,-29 5,0 17,1 22,3 13,4 26,15 39,22 4,2 6,3 9,5 36,22 85,32 125,20 17,-6 21,-9 35,-17 34,-17 46,-48 38,-85 -4,-20 -14,-37 -34,-44 -57,-20 -101,37 -197,10 -13,-4 -8,-4 -11,-16 -4,-12 -12,-24 -21,-30 19,-29 55,-33 83,-50 7,-4 13,-8 19,-13l19 -15c16,-16 16,-17 24,-35 2,-6 0,-3 4,-5l4 -1c1,0 4,0 5,0 6,-1 4,-1 10,0 7,1 14,-1 22,-1 14,-1 63,-13 76,-19 10,-4 22,-10 31,-16 5,-3 9,-6 13,-9 17,-12 25,-19 32,-40 7,-18 9,-40 1,-59 -3,-7 -6,-8 -10,-14 2,-3 5,-4 9,-6 12,-8 33,-32 31,-48 -1,-10 -7,-14 -11,-21 8,0 15,-3 15,-13 0,-13 -17,-7 -19,-7 -2,-3 -5,-7 -8,-9 -7,1 -16,7 -12,15 -18,0 -29,6 -37,23 -8,16 -9,29 -9,52 -13,1 -23,3 -33,9 -12,5 -17,13 -24,18 -5,-22 -11,-45 -29,-58 -8,-6 -12,-5 -25,-5z"/>
   <path class="fil0" d="M383 954c-12,0 -24,-30 -28,-40l-4 -13c-1,-3 -1,-2 -3,-4 0,7 -1,13 -1,22l-1 96c0,19 1,34 1,52l3 63c1,5 1,9 1,14 2,39 10,109 16,148 1,6 3,16 2,24 -4,35 -1,50 -11,85l-3 10c0,-12 0,-28 -1,-39 -2,-34 -9,-69 -13,-103l-5 -53c0,-3 0,-6 0,-10 -4,-49 -4,-100 -4,-150 0,-44 5,-89 11,-133 1,-6 3,-12 3,-19 -4,5 -9,17 -13,23l-15 20c-3,2 -7,6 -10,7 -4,3 -7,5 -12,6 -5,1 -9,0 -15,-1 -5,-1 -9,-3 -14,-3 0,17 0,35 0,52l1 64c0,6 1,6 1,13 0,8 0,17 1,26l3 50c0,8 1,18 2,24l8 71c15,107 22,155 53,266 1,2 21,68 28,62 2,-3 -7,-51 -8,-57 -3,-27 -4,-60 -2,-88 1,-8 2,-8 4,-15 9,-36 15,-56 15,-95 3,4 3,8 5,12l11 37c5,12 10,22 18,32 3,3 5,6 9,7 0,-26 -8,-42 -8,-68 0,-53 9,-65 23,-111 2,-8 6,-24 6,-33 4,3 2,0 3,6 1,3 1,5 1,9 1,4 3,11 3,16 3,13 20,74 37,76 4,-18 -6,-37 1,-82 4,-23 10,-46 15,-69 1,1 12,42 17,53 5,11 15,40 27,43 0,-17 -4,-30 -3,-46 1,-29 2,-61 7,-90 2,-15 3,-31 3,-47l2 5c1,3 1,3 1,6l15 33c4,11 13,33 23,39 2,-24 6,-57 6,-80 0,-33 -19,-32 -9,-106 1,-7 1,-14 3,-20l5 -20c-12,8 -21,30 -32,10 -4,-7 -8,-13 -11,-21l-5 -12 -2 34c-1,5 0,12 0,17 0,9 -1,11 -2,18 0,26 0,124 -3,142 -3,21 -5,44 -5,67l-1 0c0,-16 -5,-39 -5,-70 0,-9 0,-17 0,-26l7 -128c1,-13 4,-40 8,-48 -5,2 -2,0 -4,4l-9 15c-5,7 -9,13 -16,16 -14,-9 -27,-32 -27,-50l-2 0c0,30 0,60 0,89l4 87c0,18 9,65 5,79 -4,12 -7,23 -10,36 -1,7 -4,31 -8,36 0,-21 -1,-37 -1,-58 0,-31 -2,-120 1,-147 1,-6 0,-14 0,-20l4 -57c0,-5 1,-14 1,-18 1,-7 1,-13 1,-19 -3,3 -9,15 -12,20 -2,5 -3,7 -6,10 -2,4 -5,9 -9,9 -15,0 -25,-30 -30,-34 0,13 1,36 -1,48 -4,31 2,64 2,96l5 94c4,44 7,36 -5,85 -2,7 -4,13 -6,19l-5 16c-1,3 -1,1 -2,3 0,-9 0,-18 0,-27 1,-27 -5,-73 -5,-101 1,-9 -1,-15 -1,-25 0,-20 -4,-59 -1,-77l1 -25c4,-48 11,-97 15,-145 -3,2 -3,6 -5,10 -4,14 -23,71 -34,71z"/>
   <path class="fil0" d="M1714 889c0,21 -4,32 -12,48 -1,3 -2,4 -3,7 -2,4 -3,4 -5,7 -3,-1 -4,-2 -7,-4 1,9 4,19 5,29 4,48 -19,86 -19,156 0,11 4,54 11,59 5,-1 6,-4 10,-13l16 -34c1,-3 2,-6 3,-9 2,-5 0,-6 4,-9 0,23 17,40 23,54 9,23 5,41 5,69 6,-4 16,-31 20,-40 3,-7 6,-14 9,-21l6 -22c1,0 1,-1 1,-1 2,11 9,23 14,33 14,29 23,62 12,95 -2,7 -5,11 -5,19 15,-4 30,-46 34,-59 1,-4 3,-7 4,-12l3 -11c0,0 0,-1 1,-1 0,38 18,56 24,92 3,18 5,34 2,53l-6 52c7,-2 12,-17 15,-24l9 -20c1,-5 0,-4 3,-6 0,19 5,36 7,53 3,23 3,21 3,42 0,7 2,8 1,15 -1,18 -6,34 -10,50 -2,7 -4,15 -7,22 -3,5 -7,19 -8,24 7,0 10,-7 14,-11 20,-27 31,-55 42,-87 4,-13 9,-28 12,-41 20,-83 39,-170 53,-256 3,-15 5,-29 7,-44 16,-114 14,-130 14,-247 -4,5 -4,15 -13,28 -4,6 -14,18 -20,22 -5,-4 -15,-16 -20,-22 -3,-3 -5,-7 -8,-12 -3,-6 -3,-10 -7,-14 1,5 3,10 5,15 49,149 -22,348 -45,496 -1,6 -2,11 -3,18 0,4 -2,12 -2,18l-1 0c0,-25 -8,-44 -9,-68 -1,-30 5,-38 11,-67 15,-80 27,-157 34,-238 1,-10 4,-24 4,-35 0,-10 1,-28 2,-37 2,-9 0,-105 -2,-113l-2 7c-4,15 -15,37 -26,46 -9,7 -20,-6 -25,-12 -6,-5 -10,-10 -14,-17l-4 -7c0,8 11,34 13,44 4,15 8,33 10,49 3,21 5,46 4,69l-3 42c-2,18 -4,34 -7,51l-11 76c-1,5 -1,8 -2,14l-3 40c0,5 0,10 0,15 -1,5 -1,7 -1,14l-2 0c0,-7 -3,-18 -5,-24 -9,-26 -18,-36 -18,-71 -1,-18 8,-70 11,-94 1,-3 1,-9 2,-14l3 -40c1,-14 0,-30 2,-43l2 -29c0,-10 0,-19 1,-29 0,-6 -1,-7 -1,-13 -1,-5 0,-10 0,-15 0,-21 -3,-38 -3,-58 -4,3 -3,11 -5,16 -4,10 -15,36 -22,42 -10,8 -29,-18 -34,-26 -2,-2 -2,-3 -4,-6l-4 -7c1,6 8,25 10,33 4,12 6,25 9,37 14,84 0,172 0,258l-3 0c0,-11 -9,-29 -13,-38 -5,-13 -11,-24 -15,-37 -5,-13 1,-30 2,-44 3,-46 10,-168 6,-201 -1,-11 -2,-25 -4,-35 -1,-4 -1,-8 -3,-11 0,22 -4,42 -12,61 -11,27 -19,9 -34,-5 -6,-7 -10,-15 -14,-23l-1 -2c-2,-2 -1,-1 -2,-2 1,10 16,47 19,62 13,63 7,95 7,159 0,1 1,5 1,8 0,8 -1,13 -2,19 -1,12 0,28 0,40 0,0 0,-1 0,-1 0,1 0,0 0,0l-10 -21c-8,-12 -14,-23 -16,-40 -6,-34 -3,-49 0,-83 3,-35 5,-93 1,-130 -1,-13 -5,-27 -5,-41 -4,5 -2,12 -3,17 0,2 0,1 -1,2z"/>
   <path class="fil0" d="M1412 1337l-80 -80c-4,3 -6,9 -15,16 -3,2 -4,4 -8,7l-27 20c-4,3 -16,11 -20,12l-23 -49c-2,-4 -6,-13 -7,-18l29 -22c12,-9 17,-17 26,-27 12,-15 32,-54 33,-72l71 0 0 -9c1,0 39,5 39,-3l0 -5 20 0 0 13 25 0c0,-15 -2,-13 15,-13l0 -7 20 0c0,24 -5,53 -10,73 -3,11 -5,21 -9,32 -3,10 -8,21 -12,30l-22 42c-2,4 -5,8 -8,12 -14,21 -18,25 -31,42 -3,2 -4,3 -6,6zm-129 -542l42 0 0 159 -42 0 0 -159zm-134 116c60,0 114,36 145,87 7,12 19,39 21,57l69 0 0 8 38 0 0 8 36 0 0 -13 7 0c9,0 -2,13 6,13l12 0 0 30c-4,-2 -8,-1 -14,-1l0 12 -11 0c0,-16 4,-12 -32,-12 -4,0 -4,3 -4,9l-38 0 0 7 -69 0c-1,20 -20,60 -33,76 -17,21 -34,36 -59,49 2,8 5,13 9,20 1,3 2,6 4,9 4,8 22,46 22,50 12,-1 65,-40 74,-53l80 79 48 -61c35,-55 56,-126 56,-193l-26 0 0 -13 26 0c0,-103 -49,-209 -126,-274 -2,-2 -3,-3 -6,-5 -4,-4 -8,-7 -12,-11 -59,-48 -147,-78 -223,-78l0 200z"/>
   <path class="fil0" d="M1622 385c0,-31 22,-35 50,-38 13,-2 27,-3 40,-4 8,-1 9,4 14,8 28,22 33,32 69,39 34,7 82,7 116,-3 10,-3 43,-13 53,-8 5,3 9,5 12,11 5,9 0,25 -3,35 -2,6 -7,6 -13,8 -5,2 -11,3 -16,5 -12,3 -23,6 -36,8 -64,12 -146,9 -207,-8 -24,-7 -79,-26 -79,-53zm-1156 68c-34,0 -63,-2 -93,-8 -10,-2 -49,-11 -56,-15 -5,-2 -5,-9 -7,-16 -4,-15 -4,-25 8,-33 12,-7 18,-3 38,1 13,3 23,6 38,9 37,6 79,4 114,-5 11,-3 19,-7 27,-12 15,-10 20,-17 30,-27 7,-7 6,-4 15,-3 14,1 23,1 36,3 11,2 23,4 31,7 14,7 17,18 17,31 0,28 -56,47 -80,53 -36,9 -73,15 -118,15zm1518 -71l38 13c16,5 27,8 19,28 -5,12 -13,23 -17,35 -9,24 -14,45 -7,72 -7,-2 -24,-16 -28,-22 -32,-43 7,-92 -2,-118l-3 -8zm-1687 17c0,21 28,71 0,108 -4,7 -20,21 -28,23 6,-27 2,-47 -7,-71 -4,-13 -12,-23 -17,-36 -10,-23 6,-24 37,-35 7,-2 15,-4 20,-6 -2,6 -5,9 -5,17zm1331 -51l0 0zm317 20c-4,2 -20,4 -26,6 -38,11 -48,10 -92,10 -16,0 -46,-6 -56,-11 -7,-4 -34,-25 -38,-30 8,2 45,3 55,4 17,2 35,4 53,6 41,6 65,15 104,15zm-317 -20l15 -29c4,-10 9,-23 9,-36 8,0 13,1 20,2 7,1 12,2 19,3 14,2 26,4 39,7 49,9 101,19 149,31 14,3 47,13 58,21 3,2 4,2 4,7 -14,7 -56,-4 -75,-7 -37,-8 -131,-17 -163,-13 -16,2 -23,1 -40,4 -13,2 -25,4 -35,10zm-1283 6c0,-5 0,-5 4,-7 2,-2 4,-3 7,-4 38,-20 212,-52 258,-58 7,-1 12,-2 20,-2 0,12 4,25 8,34l15 28c-16,-7 -67,-12 -91,-12 -39,0 -79,4 -115,9 -29,3 -51,9 -79,14 -10,2 -17,-2 -27,-2zm1608 0c-2,-14 -18,-20 -29,-25 -64,-25 -255,-56 -321,-65 -32,-5 -66,-8 -98,-12 -17,-2 -35,-3 -50,-5l-90 -7c-6,0 -6,-1 -13,-1 -18,0 -35,-3 -52,-3 -11,0 -16,-1 -27,-1 -4,0 -9,0 -14,0 -6,0 -6,-1 -12,-1l-41 -1c-23,-1 -100,-2 -119,0 -15,2 -32,0 -47,1l-79 3c-6,0 -8,1 -13,2 -7,0 -22,0 -39,2 -15,2 -58,3 -76,6 -17,2 -33,2 -51,5 -16,2 -33,4 -49,6 -16,1 -32,4 -49,6 -71,8 -213,35 -279,52 -16,4 -28,7 -42,13 -12,5 -29,10 -30,25 -23,-12 -27,-41 -41,-69l-24 -59c-6,-14 -7,-11 -7,-27 0,-18 20,-25 34,-30 8,-3 15,-6 23,-8l77 -20c18,-4 34,-8 53,-12 56,-12 105,-22 161,-31 71,-12 127,-18 198,-26l59 -6c25,-3 65,-3 90,-6l62 -3c21,0 40,-1 62,-1 12,0 20,-2 32,-1 257,0 488,20 727,74 48,11 107,23 152,40 30,12 44,22 28,54 -12,23 -37,95 -51,118 -5,7 -8,9 -15,13zm-8 14c9,-6 18,-3 28,-16 5,-8 11,-20 16,-30 13,-28 26,-68 38,-94 6,-11 11,-22 8,-36 -6,-23 -33,-30 -53,-37 -45,-15 -93,-25 -142,-36 -49,-11 -98,-21 -150,-29 -63,-11 -130,-20 -195,-27l-164 -14c-22,0 -43,-2 -64,-2 -9,0 -13,-1 -21,-1 -8,0 -15,0 -23,0 -9,0 -13,-2 -21,-2l-112 0c-9,0 -12,2 -21,2 -8,0 -15,0 -23,0 -9,0 -13,1 -21,1 -16,0 -27,1 -43,1 -18,0 -61,4 -83,5 -13,1 -29,3 -42,4 -50,2 -111,11 -160,18 -53,7 -103,15 -154,24 -57,11 -164,33 -219,49 -28,9 -80,20 -74,57 2,14 8,21 12,33l20 48c9,22 22,62 39,73 22,14 48,8 74,3 61,-12 99,-14 160,-19 -4,6 -13,13 -19,18 -25,20 -55,19 -88,23 -11,1 -23,-1 -35,-1 -27,-1 -71,-20 -94,-16 -19,3 -37,11 -56,17 -70,24 -1,52 -1,126 0,13 -5,20 -5,32l5 4c13,-3 40,-26 46,-37 9,-15 12,-31 11,-50 0,-7 -2,-12 -2,-18 13,7 43,12 59,15 11,2 22,4 34,5 10,0 23,2 35,2 12,0 25,0 37,0 11,0 24,-2 35,-2 23,-2 44,-7 65,-12 20,-5 39,-12 56,-20 31,-13 52,-33 39,-67 -2,-5 -4,-9 -6,-13 -11,-18 -27,-45 -27,-69l118 -16c25,-3 51,-4 75,-7 29,-4 85,-8 110,-8l32 -2c5,-1 11,-1 16,-1l148 -3c44,0 88,1 132,2 7,0 8,1 15,1l80 4c37,2 117,9 154,14 8,1 19,3 29,4 18,1 71,8 89,12 0,24 -15,50 -26,68 -23,37 -8,65 30,81 19,7 37,15 57,20 10,2 20,4 30,7 56,11 121,10 175,1 15,-3 50,-11 61,-16 -1,12 -4,24 -2,38 2,12 6,22 11,30 5,10 33,34 46,37l5 -4c0,-25 -12,-26 1,-70 5,-17 22,-42 24,-57 3,-24 -27,-29 -45,-35 -14,-5 -29,-13 -46,-14 -5,0 -11,2 -18,2z"/>
   <path class="fil0" d="M756 1038c2,-33 19,-88 33,-117 16,-33 42,-74 69,-101 2,-2 3,-3 4,-4 23,-26 62,-55 92,-71 4,-2 8,-4 12,-6 4,-3 9,-4 13,-6 23,-12 34,-13 52,-20l-465 -2c2,6 86,149 94,164 21,39 50,84 71,123 3,6 21,38 25,40z"/>
   <path class="fil0" d="M961 1047l-106 0 0 -12 -50 0c-3,0 -4,1 -4,3l0 34 -28 0 4 -39c11,-71 38,-130 82,-184 2,-2 4,-4 6,-6 14,-18 46,-45 64,-58 13,-9 41,-26 56,-33 22,-9 40,-17 65,-23 22,-6 51,-11 78,-11l0 186c-27,0 -64,15 -86,30 -24,16 -42,34 -57,59 -6,11 -14,28 -18,40 -1,5 -1,14 -6,14zm-194 32l34 0 0 13c-40,0 -35,-3 -33,18 3,28 1,28 8,59 6,26 14,46 23,68 9,23 26,51 41,71l21 25c4,5 5,9 11,13l79 -79 25 22c9,8 39,29 49,31l36 -79c-4,-1 -13,-7 -17,-10 -17,-11 -30,-23 -43,-40 -14,-19 -25,-42 -30,-66 -1,-4 0,-9 -5,-9l-115 0c-5,0 -4,4 -4,13l-39 0 0 -87 39 0 0 13 119 0c5,0 4,-4 6,-13 8,-33 22,-53 42,-77 12,-15 41,-33 59,-41 17,-7 37,-12 56,-13 4,-1 6,0 6,-4l0 -196c-70,0 -137,23 -190,56 -15,9 -32,21 -46,33l-11 11c-5,4 -9,6 -13,11 -27,30 -59,70 -74,108 -20,48 -34,91 -34,149z"/>
   <path class="fil0" d="M1149 1366l0 95c72,0 144,-25 203,-64 9,-6 17,-12 25,-19l24 -21c-2,-8 -59,-58 -68,-70 -18,12 -21,21 -56,41 -30,16 -66,29 -99,32 -17,2 -29,0 -29,6z"/>
   <path class="fil0" d="M852 494c1,-1 5,2 2,1 0,0 -4,2 -2,-1zm-1 0l-5 0c2,-1 -3,-1 2,-1 3,1 1,1 3,1zm-18 -2l12 1c-5,0 -9,1 -12,-1zm-6 -19c4,0 7,0 9,1 4,1 5,1 6,5 -6,0 -4,-1 -11,-4 -1,0 -1,-1 -1,-1l-2 0c0,-1 -1,-1 -1,-1zm-14 0l7 0 0 1 -7 0 0 -1zm42 -1l0 0zm0 0l-2 -1 2 1zm-112 -5l0 0zm1 -1l-1 1 1 -1zm109 5l-6 -7c4,1 5,3 6,7zm-107 -7l-2 2 2 -2zm101 0l-1 -1 1 1zm-1 -1l-1 -1 1 1zm-1 -1c-4,-1 -2,0 -4,-3 3,1 2,0 4,3zm-99 2c8,-12 27,-3 46,-3 12,0 16,-1 26,-3 8,-1 18,-6 23,1 -16,-3 -32,4 -49,4 -15,0 -24,-6 -37,-3 -6,2 -5,3 -9,4zm87 28c-20,0 -40,6 -66,-6 -3,-1 -1,-1 -3,-2l43 -5c6,0 16,-2 22,0 5,1 9,8 17,4 5,-10 -9,-15 -19,-15 -11,0 -22,3 -33,5 -15,2 -26,-12 -46,0 -5,3 -6,5 -6,13 -6,-2 -9,-9 -11,-15 -3,-7 -3,-13 -3,-23 0,-10 6,-19 14,-24 16,-12 58,-8 78,-12 9,-1 14,-4 21,-5 6,27 -6,30 18,48 13,10 13,23 12,37 0,6 -1,11 -1,16l-14 -12c9,0 13,-5 13,-15 -2,-26 -29,-19 -29,-54 -16,8 -38,5 -52,6 -5,1 -12,2 -17,3 -12,1 -21,4 -27,12 -8,10 -7,16 -6,30 9,-6 10,-14 26,-13 11,0 13,5 38,3 8,-1 29,-6 36,-4 3,1 8,6 11,8 5,4 8,5 8,14 -6,3 -8,5 -16,2 -8,-2 -9,-3 -18,-4 -14,-2 -27,3 -41,3l0 2c17,2 2,3 24,2 4,-1 9,0 14,0 2,0 5,0 7,0 2,0 2,0 4,0 2,1 1,0 2,1zm35 -77c0,-10 6,-18 18,-18 31,0 61,6 89,-13 15,22 25,26 25,64 0,15 -9,28 -17,35 -22,18 -41,15 -41,39 0,31 6,59 -25,59 -11,0 -21,-15 -24,-24 -6,-14 -1,-17 -13,-36 1,-5 7,-11 9,-25 6,-34 -11,-46 -18,-66 0,-2 -3,-12 -3,-15zm127 63c1,-5 6,-7 10,-10 0,-13 -2,0 0,-20 2,-20 -6,-38 -16,-54 -11,-15 -13,-10 -14,-20 -2,-23 -13,-26 -32,-18 -13,5 -24,5 -41,6 -7,0 -12,1 -21,1 -35,0 -34,17 -45,25 -8,7 -25,1 -25,21 -26,0 -68,-1 -82,21 -12,20 -4,49 8,58 9,8 10,3 10,-9 13,-9 30,-7 37,-1 -8,0 -10,1 -17,1 -8,1 -11,0 -11,8 10,2 25,11 42,11 20,1 34,-3 52,1 8,2 14,9 19,15l2 3c7,11 11,10 14,29 3,14 6,15 7,21 -5,2 -4,7 -4,18 6,2 9,2 17,2l0 -6c4,3 1,2 4,7 21,0 11,1 17,-3 1,5 3,4 10,4 7,0 8,1 9,-5 0,-4 -1,-11 -1,-13 0,-5 2,-6 2,-13l1 8c20,0 15,-4 14,-20 -5,0 -7,1 -14,1l0 -2c7,0 7,-2 14,-2l0 -15c-15,0 -11,4 -15,-1 5,0 7,-1 14,-1 0,-16 2,-20 -8,-18 2,-2 2,-3 6,-4l19 -3 3 -9c0,5 0,4 1,7l13 -3c0,-15 -4,-14 1,-18z"/>
   <path class="fil0" d="M1135 1695c0,-66 0,-132 0,-198 0,-40 9,-10 -89,-34l-57 -18 143 247c2,3 0,2 3,3z"/>
   <path class="fil0" d="M1023 1194c5,-2 27,-26 33,-32 8,-8 28,-26 33,-33 -1,-7 -6,-10 -9,-18 -14,-41 7,-60 9,-68 -1,-1 -61,-64 -68,-66 -1,5 -36,39 -40,92 -1,19 -1,31 3,51 2,10 5,19 9,28 5,11 13,27 21,36 2,4 5,7 9,10z"/>
   <path class="fil0" d="M1194 1043c15,22 20,41 11,66 -3,9 -6,12 -11,18 6,8 26,27 34,35l25 25c3,3 5,6 10,7l15 -21c5,-7 8,-14 12,-23 24,-53 16,-119 -21,-164 -5,-6 -4,-8 -10,-9 -1,6 -61,64 -65,66z"/>
   <path class="fil0" d="M1641 1463l0 0zm0 0l-2 -1 2 1zm0 -21l0 0zm5 -6l2 0 -2 0zm2 -9l0 0zm4 -5l0 0c0,0 0,0 0,0zm-1 -3l0 0zm17 -5c2,2 1,2 2,4 1,2 1,3 2,5 -3,-2 -4,-4 -4,-9zm-11 2l0 0zm-1 -3l1 3 -1 -3zm-13 3l0 0zm25 -5l0 3c0,0 0,0 0,0 0,0 -1,-1 -1,-1 0,-3 0,-1 1,-2zm36 0l1 0c0,0 -1,0 -1,0zm-1 -3l0 0zm0 0c0,-1 -1,1 -2,-3 -1,-6 0,-4 1,-4l1 7zm-35 3c1,-3 2,-6 6,-7l5 -1c-2,5 0,10 -3,15 0,-7 1,-7 1,-14 -3,2 -6,5 -9,7zm25 -12c-2,6 1,1 -4,3 -4,2 -2,-4 -3,4 -6,-4 -7,-3 -4,-5 1,0 10,-2 11,-2zm3 -1l-3 1 3 -1zm2 -1l-2 1 2 -1zm-9 -8l0 0zm56 -1c0,0 0,0 0,0l0 0c0,0 -1,0 0,0zm-56 1l-1 -1 1 1zm9 8c0,0 1,-1 1,-1l6 -4c4,-3 5,-4 8,-5 -2,4 -2,2 -2,9 -4,-3 -7,-4 -9,2 -3,-1 -1,0 -4,-1zm-10 -9l-1 -1 1 1zm55 -5c2,2 2,-3 2,4 -2,-2 -1,1 -2,-4zm-56 4l-1 -1 1 1zm-3 -4l2 3 -2 -3zm-1 -2l1 2 -1 -2zm14 0l0 0zm12 -2l1 1c0,0 -1,-1 -1,-1zm-2 -1l0 0zm0 0l-1 -1 1 1zm16 -26c2,1 1,-1 2,2 2,5 1,1 -1,3l-1 -5zm19 -12l0 0zm6 -5l3 7c-4,-3 -3,0 -3,-7zm0 0c-1,-1 0,1 -1,-2 0,-2 0,-3 0,-5l1 0 0 7zm-30 0l0 0zm-91 -8l0 0zm123 -4c0,6 0,2 -2,4 0,-7 0,-2 2,-4zm-24 4l0 0zm-79 -9l0 0zm0 0c0,5 -2,6 -1,8 2,7 2,-1 5,7 3,-1 2,0 7,-6 0,0 0,0 0,0 -1,7 -7,8 5,16 1,-3 1,-3 3,-5 -1,5 -2,3 -2,9l8 4c2,-4 1,-4 1,-9l1 0c0,8 0,8 3,14 6,-1 9,-3 10,-8 0,0 0,0 0,1l1 3c1,2 0,1 1,4 7,-1 10,-5 12,-10l1 5c8,-1 9,-3 9,-12l1 2c1,0 1,1 1,1 2,1 0,1 4,1l1 -8c3,2 2,2 5,3 2,-6 3,-1 3,-11l3 2c4,-5 5,-5 3,-12 6,2 1,6 6,4 2,-2 2,-7 2,-11 5,6 0,6 7,7 2,-5 1,-7 4,-12l0 10c8,0 5,-5 12,-7 -3,5 -5,4 -6,11 5,0 13,3 16,4 7,2 9,4 10,11 -3,-2 -5,-5 -10,-8 -3,-1 -15,-5 -15,-2 0,0 0,0 0,0 0,10 1,13 9,11 -3,4 -2,3 -9,3 -6,-13 0,-13 -3,-19 -4,1 -2,0 -3,1l-2 2c0,0 0,1 0,1l0 -3c-11,1 -8,9 -8,20 -1,-1 0,1 -1,-2l0 -14c-9,6 -5,13 -3,22l-2 0c-1,-6 -1,-8 -1,-16 -10,7 -4,17 -3,21 -5,-4 -5,-5 -5,-13 -5,4 -4,5 -4,14 -1,-3 -1,-4 -1,-8 -5,1 -2,2 -6,3 0,13 4,13 6,19 -4,-1 -4,-3 -5,-6 -2,-3 -2,-7 -3,-11 -10,3 -2,16 -1,22l-4 0c-1,-6 -2,-10 -2,-17 -13,4 -1,23 -1,23 -7,-5 -8,-12 -7,-20 -3,0 -6,1 -8,2 0,13 1,15 6,22 -4,-1 -6,-4 -7,-8 -1,-3 -2,-12 -2,-14 -6,2 -6,2 -6,9 -1,8 -1,5 1,13l-2 0c0,8 1,6 -1,9 -12,20 -18,11 -18,22 -7,-3 -6,1 -6,1 -5,1 -5,1 -5,6 -3,0 -4,-1 -5,2 -1,4 0,2 2,6 -5,-1 -6,0 -6,7 6,0 2,1 4,2 -6,0 -5,-1 -8,1 0,4 1,3 3,5 -5,1 -5,3 -5,8 0,1 1,6 1,7 1,3 1,1 2,5 -3,-2 -6,-3 -11,-4 0,16 9,22 13,27 -8,-2 -15,-15 -17,-23 -4,0 -6,1 -9,3 3,-12 18,-2 19,-18 -3,-1 -4,-1 -9,-1l0 -1c6,0 6,0 9,-2l2 -5 -5 -3c0,0 -1,0 -1,0 0,0 0,0 -1,-1 8,0 6,1 10,-2 0,-6 -1,-3 -3,-8 4,2 4,4 7,0 3,-3 2,-5 0,-8 10,-1 12,-10 10,-14 6,1 9,1 14,-1 0,-5 -1,-5 -1,-9 2,1 3,2 6,2 2,-2 5,-5 5,-10 -1,-3 -3,-4 -6,-4l-3 -1c2,-4 3,-6 3,-12l-5 0c0,-11 8,-15 -9,-15 1,-4 1,-4 1,-9l-7 -4c-2,4 -2,5 -5,8 0,-4 1,-7 2,-10 -11,-7 -4,-5 -11,-3 1,-3 2,-5 0,-9 -1,-2 0,2 -1,-3 -4,1 -6,3 -9,5 1,-6 3,-4 1,-9 -1,-5 -3,-5 -9,-5 0,-6 -1,-8 -6,-9 -9,-3 -22,14 -25,19 1,2 2,3 5,5 13,11 8,6 21,13 13,8 1,7 16,17 4,3 4,2 7,5 7,8 8,4 13,9 4,5 2,12 -4,14 -6,3 -13,0 -16,7 -3,6 1,15 0,20l-9 12c-4,5 -8,5 -13,10 -7,8 -9,25 2,30 10,4 7,1 12,10 4,5 8,7 13,10 5,2 12,4 19,3 5,-1 12,-3 13,-10 -5,3 -10,5 -15,3 -6,-3 -7,-6 -9,-13 3,-5 9,-7 9,-16 -1,-8 -4,-13 1,-21 12,-15 34,9 56,-17 6,-8 18,-19 29,-22 11,-3 10,0 17,5l3 -24c-5,2 -4,-1 -7,11l-1 -1c-1,-7 3,-4 -1,-7 -6,-3 -6,3 -6,7 -1,-2 -1,-4 -1,-7 -4,2 -4,3 -4,10 -4,-4 -2,-5 -1,-10 -7,0 -3,2 -7,1 -3,-1 2,-1 -3,-1l-3 13c0,-5 1,-7 -1,-11 -10,8 -4,18 -4,19 -8,-6 1,-8 -6,-11l16 -22c4,-9 5,-10 12,-17 6,-5 9,1 15,2 8,-12 7,-1 14,-14 11,3 5,6 11,11 5,-4 4,-4 4,-12 0,-13 -3,-26 -20,-26 -2,-22 -33,-27 -41,-7 -2,6 -8,21 -12,24 -3,2 -9,4 -12,6 -6,1 -9,2 -17,2 -10,-14 -8,-8 -14,-12 -4,-2 -3,-5 -5,-8 -2,-4 -4,-4 -7,-7 -4,-4 -2,-11 -8,-17 -9,-9 -8,0 -18,-15l-10 -11c-12,-8 -8,13 -9,18 -1,9 -5,10 6,8 13,-4 1,4 1,13 5,0 5,-1 8,-3 -1,5 -2,4 -2,10l5 4c5,-1 2,-2 7,-4 -4,7 -3,12 5,14 4,-3 1,-2 5,-5z"/>
   <path class="fil0" d="M1825 572c28,0 52,12 67,26 8,9 14,15 20,26 24,44 26,79 48,116 9,14 23,31 40,31 2,-5 8,-12 10,-31 4,-27 -23,-100 -35,-128 -6,-14 -13,-26 -22,-39 -7,-10 -5,-8 -12,-9 -36,-8 -38,-11 -77,-1 -7,2 -12,3 -20,5 -11,1 -16,0 -19,4z"/>
   <path class="fil0" d="M273 733c0,8 5,38 15,38 12,0 12,-13 19,-27 5,-11 10,-21 15,-31 13,-27 46,-80 63,-99l12 -12c11,-11 49,-29 63,-30l0 -2c-50,0 -46,-23 -110,-8 -17,4 -12,1 -21,14 -10,15 -18,30 -24,46 -7,18 -13,33 -19,52 -2,8 -13,51 -13,59z"/>
   <path class="fil0" d="M551 195l0 0zm38 -4l1 3 -1 -3zm0 0c-4,-3 -19,-22 -23,-27 -4,-5 -7,-9 -11,-14 -3,-4 -10,-11 -11,-15 -9,0 -29,6 -40,6l18 109c1,5 3,12 3,16l36 -6c0,-12 -10,-54 -10,-65l48 58 38 -7c0,-8 -14,-81 -16,-93 -2,-11 -4,-21 -6,-31l-36 6c0,12 10,50 10,63z"/>
   <path class="fil0" d="M1048 210l36 0 0 -68c8,6 34,68 41,68l35 0 0 -127 -36 0 0 67 -32 -59c-6,-11 -5,-8 -44,-8l0 127z"/>
   <path class="fil0" d="M1542 161c0,-8 2,-15 2,-24 12,0 35,0 35,15 0,18 -24,9 -37,9zm-48 66c14,0 26,4 39,4 1,-13 5,-28 5,-42 6,0 12,0 18,1 21,4 14,15 16,36 0,6 1,5 1,10 5,2 13,2 19,3 6,0 14,2 20,2 -1,-7 -2,-3 -2,-15 0,-12 3,-14 0,-27 -3,-12 -7,-12 -12,-19 24,-6 40,-64 -20,-70 -17,-2 -56,-8 -69,-8 0,9 -3,22 -4,31l-11 94z"/>
   <path class="fil0" d="M1327 214c14,0 100,8 104,7 5,-1 2,-10 3,-16 0,-6 1,-10 1,-18 -23,0 -44,-3 -66,-3 0,-10 -1,-7 1,-15 17,0 35,3 59,3l1 -30 -56 -4c-5,-1 -2,3 -2,-15 22,0 43,4 65,4 0,-10 3,-23 3,-32l-28 -2c-9,-1 -21,-2 -30,-2l-42 -3c-10,-1 -3,5 -7,37 -2,9 -2,21 -2,30 -1,19 -4,36 -4,59z"/>
   <path class="fil0" d="M873 92l7 127 51 -3c7,0 7,-1 13,-1 4,0 9,0 13,0 6,0 6,-1 13,-1 24,-1 14,1 15,-23 0,-17 -2,-11 -15,-10 -4,0 -9,0 -14,0l-39 3 0 -12c0,-4 1,0 -1,-3 16,0 31,-2 45,-3 3,0 9,0 12,0 5,-1 2,-3 2,-20 0,-6 -1,-7 -1,-11l-59 3 0 -15 64 -3 -2 -33c-27,0 -76,5 -104,5z"/>
   <path class="fil0" d="M271 748c0,7 -2,15 -3,22 -1,8 0,17 -1,25 -4,36 -1,119 -1,154 3,3 5,5 10,6 34,12 23,-8 33,-52 5,-21 9,-41 16,-60l32 -117c-10,7 2,9 -45,37 -6,3 -20,13 -27,11 -4,-1 -6,-7 -8,-11 -4,-10 -2,-12 -6,-15z"/>
   <path class="fil0" d="M688 165c0,62 56,83 89,62 6,-4 8,-9 14,-12 0,6 1,6 1,11 9,0 16,-2 25,-2l-7 -66c-1,-5 -1,-4 -6,-4 -12,1 -24,3 -37,5 -15,2 -9,-3 -6,28 7,0 9,-1 16,-1 -1,15 -28,23 -42,5 -11,-14 -14,-58 16,-58 9,0 15,6 17,14 5,0 14,-2 19,-2 7,-1 13,-1 19,-3 -5,-19 -24,-40 -48,-40 -23,0 -36,2 -53,19 -10,10 -17,24 -17,44z"/>
   <path class="fil0" d="M945 957l39 0c3,0 3,-1 3,-4l0 -62 49 0 0 -34 -49 0 0 -27 53 0 0 -35 -95 0 0 162z"/>
   <path class="fil0" d="M382 949c3,-6 11,-37 14,-46 4,-16 7,-33 11,-49 4,-17 6,-33 11,-49 3,-12 10,-39 10,-51l-12 16c-17,18 -12,28 -21,28 -6,0 -19,-31 -22,-37 -7,-16 -8,-27 -8,-50l-15 61c-3,13 -8,35 -8,48 -1,24 -4,21 4,52 5,20 24,69 36,77z"/>
   <path class="fil0" d="M1837 199l3 37c-6,-1 -17,-3 -21,-5l18 -32zm-81 66c9,2 32,8 40,8 1,-3 7,-15 9,-15 6,0 29,6 37,7 0,8 2,11 2,19 5,0 13,3 19,4 7,1 13,3 21,3l-19 -132 -38 -8 -71 114z"/>
   <path class="fil0" d="M583 1369c0,-3 2,0 0,0 0,0 0,4 0,0zm-19 3c-1,-1 -1,-1 -2,-3 -1,-4 0,-6 2,-8l0 11zm-65 17c-1,-1 -1,1 -1,-2 -1,-7 4,-21 13,-21 -3,4 -5,3 -8,9 -3,4 -3,9 -4,14zm114 -26l0 0zm57 -73l-1 -1 1 1zm-1 -1l0 0zm-6 -40l0 0zm2 -4l0 0zm0 0l0 0zm-2 4c-1,4 -2,5 -3,9 -5,14 -1,13 -7,18 -4,4 -5,3 -6,8 -6,19 -2,7 -9,18 -4,7 -3,10 -10,16 -2,3 -5,4 -7,6 -3,3 -1,6 -4,9 -1,1 -6,4 -8,5 -3,3 -4,4 -6,8 -2,6 -4,14 -14,12 -3,-1 -5,-4 -8,-5 -8,-4 -22,-4 -31,-9 -1,0 -22,-20 -35,0 -2,3 -3,7 -4,9 -2,2 -5,2 -9,5 -8,6 -16,25 -9,40 2,5 11,15 11,0 0,-16 1,-9 7,-19l5 2 1 -2 2 -2 1 -1c0,-6 3,-7 2,-13 -1,-7 -3,-8 -7,-9 2,-2 3,-3 6,-1 7,6 -3,17 10,20 3,-4 3,-1 2,-7l-1 -4c0,-1 0,-1 0,-1 0,-3 -1,-1 1,-3 1,5 3,11 3,15l8 0 -2 -14c6,3 -2,15 11,15l1 -7c1,1 0,1 1,3 2,4 2,5 6,6 3,-2 2,-1 3,-4 6,7 10,5 10,-6l4 10c4,-1 4,-1 7,-4 0,7 2,7 9,7l1 -8c0,5 0,10 6,10 7,-1 3,-6 3,-12 0,1 0,1 0,1l5 6c8,4 4,-13 4,-13 5,4 -1,3 6,5 6,-4 4,-7 1,-12 7,1 2,3 9,3 5,-21 -1,-8 10,-13 1,-6 0,-5 -1,-11 4,2 9,3 10,-2 2,-4 -2,-5 -4,-9 6,2 1,3 10,3 5,-10 0,-8 -2,-15 4,2 7,6 12,1 5,-5 0,-7 -1,-13 5,3 13,2 7,-10l5 2c-3,-14 -6,-28 -4,-46 2,-13 1,-14 6,-30 2,-5 3,-6 3,-11 -8,6 -10,10 -25,16l-15 6c0,0 -8,16 -21,30 -2,3 -2,3 -5,6 -1,2 -18,17 -23,19 4,4 16,5 22,4 26,-5 44,-33 50,-37z"/>
   <path class="fil0" d="M423 867c0,18 1,32 8,46 4,9 12,23 20,28 9,-6 14,-27 18,-39 8,-25 23,-85 28,-112l3 -26c-4,1 -3,3 -9,8 -4,4 -6,7 -10,9 -7,6 -19,21 -26,9l-10 -20c-2,-4 -5,-9 -7,-13 -5,-11 -1,-11 -6,-14 0,10 -2,20 -2,30 -2,35 -7,49 -7,94z"/>
   <path class="fil0" d="M367 719c0,29 13,51 26,76 4,-1 5,-2 6,-5 25,-50 40,-122 46,-134 -13,0 -6,3 -19,0 -7,-29 6,-63 34,-79 2,-1 4,-1 5,-2 4,-3 2,0 4,-4 -5,1 -15,8 -20,11 -3,2 -5,3 -9,6 -4,2 -6,4 -9,7 -25,19 -40,44 -53,72 -3,8 -6,13 -8,23 -1,9 -3,21 -3,29z"/>
   <path class="fil0" d="M1857 756l17 43c13,31 28,80 33,114 2,8 4,19 4,26 11,-2 25,-32 28,-43 8,-23 4,-47 4,-66 -1,-22 -5,-43 -10,-62 -2,-10 -4,-18 -6,-29 -1,-5 -2,-9 -3,-14 -3,-10 -1,-11 -5,-14 0,6 1,8 1,12 -4,35 -8,34 -23,66 -2,4 -2,6 -6,9 -13,-1 -3,-7 -25,-31 -3,-4 -6,-8 -9,-11z"/>
   <path class="fil0" d="M1288 718l419 0 -87 151c-19,36 -45,76 -66,113 -3,6 -19,35 -23,38 0,-18 -14,-63 -21,-80 -4,-9 -7,-15 -10,-24 -7,-16 -28,-49 -38,-63 -33,-43 -62,-70 -106,-100 -11,-7 -32,-20 -44,-24 -4,-2 -7,-4 -12,-6l-12 -5zm240 320l2 0c1,-5 41,-70 47,-81 7,-14 15,-27 23,-41 23,-41 58,-100 83,-143l23 -41c5,-7 8,-14 12,-21l-467 0c3,3 9,4 13,5 49,17 82,35 122,67 2,1 3,2 5,4l34 32c42,41 72,101 90,156 4,13 13,47 13,63z"/>
   <path class="fil0" d="M460 793c7,-4 20,-22 25,-30 8,-14 27,-50 29,-64 -5,0 -23,6 -23,-13 0,-19 4,-30 8,-45 -5,1 -6,3 -10,6 -14,7 -24,6 -37,8 -7,1 -9,10 -11,19 -2,9 -3,17 -5,26 -7,55 8,56 19,82 2,4 3,7 5,11z"/>
   <path class="fil0" d="M1860 646c0,17 -9,10 -19,10 3,3 4,2 8,4 26,13 15,60 26,103 2,10 9,28 15,32 9,-14 26,-48 26,-66 0,-45 -5,-57 -28,-95 -9,-15 -22,-28 -35,-40 -15,-11 -21,-15 -37,-23 1,4 9,6 17,12 19,14 27,37 27,63z"/>
   <path class="fil0" d="M1149 1262l0 86c27,0 52,-5 76,-13 6,-2 16,-7 21,-7 0,-7 -31,-70 -37,-80 -6,3 -18,7 -27,9 -7,2 -24,5 -33,5z"/>
   <path class="fil0" d="M1825 795c-14,-1 -31,-25 -40,-31 1,6 5,13 8,20 24,62 28,85 35,150 2,13 1,9 4,10 2,2 -2,3 3,1 3,-1 2,-1 4,-3 1,-2 2,-5 4,-8 3,-6 5,-9 9,-15 9,-20 10,-29 10,-50 0,-22 -2,-43 -4,-63 -3,-20 -6,-42 -6,-63l-2 0c0,12 -12,28 -18,40 -3,6 -2,8 -7,12z"/>
   <path class="fil0" d="M693 1186l-1 3 1 -3zm0 0l0 0zm-1 3c-3,12 -13,16 -18,56 -3,21 2,48 11,61 19,25 53,33 79,21 11,-5 8,-10 12,-27 -6,3 -5,7 -21,13 -19,7 -37,4 -47,-16 -14,-27 6,-83 19,-109 6,-11 -3,-16 -5,-25l-3 0c0,10 2,17 -1,32 -2,6 -2,8 -6,12 -4,4 -8,6 -14,3 -3,-5 -1,-16 -1,-24 0,-21 -1,-11 -4,-22l-3 0c0,34 -24,46 -30,40l-3 -24c-5,1 -8,5 -13,8 -11,7 -18,8 -31,8 -10,0 -12,-2 -19,-2 2,4 1,6 6,14 18,32 67,10 86,-13 3,-3 3,-4 6,-6z"/>
   <path class="fil0" d="M1930 730c1,5 3,7 6,11 25,40 43,88 48,136 2,20 2,41 2,65 10,-6 21,-23 25,-33 11,-28 8,-48 8,-80l-4 -70c-1,-6 0,-9 -3,-11 -1,7 -7,24 -12,26 -4,2 -10,0 -13,-3 -5,-2 -8,-5 -13,-7 -8,-5 -17,-10 -24,-15 -12,-9 -18,-17 -20,-19z"/>
   <path class="fil0" d="M1592 1188l-2 -3 2 3zm0 0c2,1 7,8 9,10 10,13 48,36 73,21 6,-4 15,-15 15,-25 -15,1 -28,8 -49,-6 -7,-5 -8,-7 -12,-8 -6,12 2,37 -20,20 -4,-3 -8,-9 -10,-15 -3,-7 -4,-11 -4,-21 -12,4 -4,43 -7,46 -11,5 -18,-5 -20,-14 -3,-10 -3,-21 -3,-33 -5,5 -11,15 -8,22 1,4 3,7 5,11 2,5 3,8 5,12 6,15 13,37 14,55 2,23 -4,41 -17,50 -27,18 -36,-11 -44,-13 4,10 -1,20 9,26 8,4 18,7 31,6 18,-2 35,-16 42,-29 16,-29 11,-72 -3,-103 -2,-5 -5,-7 -6,-12z"/>
   <path class="fil0" d="M490 884c0,22 8,60 27,60 1,-6 3,-14 5,-22 6,-35 22,-88 36,-121 3,-5 7,-13 8,-18l-7 6c-5,4 -20,16 -25,16 -5,0 -11,-14 -16,-23 -4,-9 -11,-17 -11,-29 -5,3 -6,20 -7,29l-8 67c-1,11 -2,23 -2,35z"/>
   <path class="fil0" d="M1825 520c-29,0 -39,12 -57,26 -3,2 -3,4 -7,5 3,5 23,6 29,6 44,0 89,-22 141,-1 4,1 9,4 13,5 -21,-32 -69,-64 -108,-73 -19,-4 -33,-5 -56,-5l14 6c13,5 30,18 31,31z"/>
   <path class="fil0" d="M638 1473c-2,3 -4,6 -6,8 1,-5 1,-6 6,-8zm1 -17l0 0zm-44 -10c0,-3 2,-5 1,-1 0,0 0,5 -1,1zm16 -5c0,-3 2,0 1,0 0,0 -1,3 -1,0zm-28 0l0 -7 1 0c0,1 0,3 0,4 -1,3 -1,1 -1,3zm-39 -9c1,1 1,0 1,3 0,1 0,2 0,3l-1 0 0 -6zm59 1c-1,6 -2,8 -2,15l-1 0c0,-8 -1,-10 3,-15zm-7 -5l0 6 -1 0c0,0 0,-2 0,-3 1,-3 1,-1 1,-3zm-18 4l-1 3 1 -3zm-72 26l-1 0c0,-14 0,-20 9,-26 -1,4 -4,5 -6,10 -2,6 -2,9 -2,16zm19 -27l1 2 -1 -2zm102 1l0 0zm-57 -5c2,2 2,-3 1,2 0,3 0,2 -1,3l0 -5zm-12 -1c0,1 0,0 1,2 0,1 0,3 0,4l-1 0 0 -6zm6 0c1,2 1,-3 1,2 0,3 0,1 -1,3l0 -5zm35 -10l-2 1 2 -1zm-55 -4l1 2 -1 -2zm6 0c0,-3 2,0 1,0 0,0 -1,3 -1,0zm-6 0l0 0zm55 4c1,-4 4,-7 6,-9 -1,6 -2,6 -6,9zm-39 -9c4,1 3,1 4,6l-4 -6zm46 -1l-1 1 1 -1zm10 -2l0 0zm-10 2c1,-4 0,-2 3,-4 -1,3 0,2 -3,4zm-37 -4c3,1 2,0 4,5 -4,-3 -2,-1 -4,-5zm40 0l1 -3 -1 3zm1 -10l1 0 0 6 -1 0 0 -6zm17 40c-1,2 -1,1 -2,4 5,0 4,0 8,-2 -2,9 -3,0 -5,8 5,2 5,2 10,1l0 3c-11,0 -8,0 -12,-4l-9 -4c0,0 0,0 0,0l-3 -1c-2,-1 -1,5 -1,-4 -7,1 -3,-1 -7,9 0,1 -1,1 -1,1 0,-7 2,-7 3,-14l-5 4c1,-3 0,-2 2,-5 -3,-1 -2,0 -5,-2l-4 2 0 -6c-8,2 -6,12 -6,23l-1 0c0,-5 0,-9 0,-13 0,-6 1,-6 1,-13 -7,1 -2,0 -7,10 0,0 0,0 0,0 0,-8 7,-15 -4,-16 0,6 1,6 1,10l-2 9c0,-6 0,-15 -2,-19 -8,2 -4,6 -3,13 -3,-3 -3,-2 -3,-8 -6,0 -6,0 -6,6 -3,-4 -1,-2 -4,-5 -1,3 -2,3 -2,7 -3,-4 -1,-3 -3,-5 -2,-2 -4,-2 -6,-3 1,5 2,8 2,14 0,0 0,-1 0,-1l-1 -2c-3,-8 -1,-8 -6,-10 -2,5 0,7 0,13 -5,-7 1,-9 -6,-11 0,7 1,8 1,15 0,-1 -1,-1 -1,-1l0 -2c-2,-5 -1,-6 -7,-10 0,7 2,11 2,19l-2 0c0,-7 -1,-9 -1,-18l-5 0 0 7c-6,-9 -2,-8 -12,-12 0,0 -1,0 -1,0 0,0 -1,-1 -1,-1 3,0 7,0 8,-1 6,0 1,1 7,2 1,-1 1,-2 1,-2l2 -4c1,7 9,14 9,-1 2,3 1,3 5,6l2 -4 1 3c7,-1 4,-2 7,-1 1,1 2,4 9,1l4 -2c5,0 6,1 7,-7 4,6 -5,-1 2,3 2,1 0,1 4,1 -1,-6 -4,-10 -6,-15 9,2 19,36 34,20 4,-4 0,-2 4,-4 -1,3 -5,10 -6,13 6,-2 9,-5 14,-7 -3,5 -5,3 -5,9 4,-2 5,-3 9,-5 -2,7 -3,6 -4,10 3,-1 2,-1 8,-1zm-23 -40c0,10 -4,20 -15,20l0 -3c9,0 10,-7 14,-16 0,0 0,0 1,0 0,0 0,-1 0,-1zm-18 14c2,-6 3,-2 7,-8 2,-3 2,-7 2,-12l1 0c0,10 0,19 -10,20zm-13 -9l0 0zm7 -6l-2 1 2 -1zm1 -2l-1 2 1 -2zm-8 0l0 0zm8 0l0 0zm-43 -2l-1 3 1 -3zm28 -1c0,-4 2,-1 1,0 0,0 -1,3 -1,0zm-22 0l0 0zm-6 1l0 0zm-12 -3c-1,4 0,2 -2,4 1,-4 0,-2 2,-4zm57 0c0,-3 2,0 0,0 0,0 0,4 0,0zm-39 2l0 -3 0 3zm-15 5c1,-4 2,-6 5,-8 -1,5 -2,5 -5,8zm11 -9l-1 3 1 -3zm-12 1l-2 1 2 -1zm41 -2l-1 2 1 -2zm-41 2c0,-6 -1,-2 1,-4 0,7 0,2 -1,4zm-6 -2c0,3 1,1 -2,3 1,-3 0,-1 2,-3zm0 0l0 -5 -2 0 -1 1 -2 2 -1 2c2,5 6,9 13,10 2,1 -3,0 4,1l15 -4c9,-2 10,-4 18,1l0 8c-3,2 -8,6 -13,7 -7,1 -42,-13 -44,11 -2,13 -11,10 -12,29 0,12 3,27 17,27 -1,-4 -8,-11 3,-28 14,1 14,11 26,1l5 -4c2,-1 1,-1 2,-2 2,-3 -2,-2 5,-3 10,-2 15,-2 24,3 1,1 2,2 4,3 12,18 40,6 47,6 5,9 9,12 3,24 -6,8 -1,20 7,22 3,-8 9,-5 9,-20l-11 0c2,-1 3,0 6,-1 8,-1 3,2 5,-2 0,0 3,-1 -2,-3 -3,-2 -4,-1 -8,-1l10 -1c0,-11 -1,-11 -10,-9 1,-4 -1,-1 3,-2 1,-1 3,-1 5,-1 -1,-5 0,-3 -2,-6 -5,-4 1,0 -4,-6 -4,-6 2,1 -4,-8l-6 -8c-3,-4 -2,-7 -7,-6 0,-6 0,-5 -2,-10 -3,-4 -1,-6 -6,-5 1,-5 2,-4 1,-8 0,-2 -1,-5 -2,-8 -3,-1 -1,-1 -4,1 0,-5 0,-6 -5,-7 -1,4 0,1 -1,6l-1 3c0,0 0,1 0,1 0,-7 2,-8 -4,-9 -14,-2 -6,16 -19,19 4,-5 8,-10 10,-19 -5,0 -2,0 -6,-2 -3,-2 -4,-2 -7,-3 -1,12 -2,11 -5,11 2,-4 4,-6 1,-12l-5 4c-1,-3 0,-2 -1,-4l-6 1c0,0 0,0 0,0 -1,0 -1,0 -1,0l-8 -2c0,0 -1,0 -1,0l-7 2c0,0 -2,-2 -2,-2 -1,1 -1,2 -1,2l-2 3c0,0 0,1 0,1l0 -5c-3,0 -3,-1 -5,3l-1 2c0,-5 0,-3 -1,-6 -4,1 -1,3 -8,-2 -1,2 -1,3 -1,3 0,0 0,1 0,1l-1 2c0,0 0,0 -1,1z"/>
   <path class="fil0" d="M1792 675c0,12 2,22 -8,25 -1,0 0,0 -2,0l-2 1c22,6 16,24 17,49 1,16 14,38 27,42 4,-4 5,-8 7,-14 9,-17 19,-26 19,-54 0,-20 -5,-54 -15,-69 -37,0 -40,-11 -50,-14 4,7 7,23 7,34z"/>
   <path class="fil0" d="M341 561c31,0 64,-26 145,-13 13,3 21,5 36,5 -1,-4 -1,-3 -5,-6 -16,-12 -26,-27 -58,-27 3,-14 21,-29 37,-33 0,-1 3,-1 4,-2 2,-1 2,0 4,-2 -43,0 -63,4 -99,22 -12,6 -34,23 -43,32 -6,5 -18,18 -21,24z"/>
   <path class="fil0" d="M1639 1033c0,36 1,47 -16,81l-22 39c-5,5 -4,1 -4,15 0,15 10,34 25,35 0,-17 4,-28 10,-40 5,-9 13,-21 20,-31 17,-26 21,-59 21,-95 0,-4 -1,-5 -1,-9 -7,0 -8,-2 -14,-3 -4,7 -9,8 -19,8z"/>
   <path class="fil0" d="M611 1028c0,42 0,70 23,106 10,16 27,38 28,59 0,3 -1,10 2,10 15,0 24,-24 24,-42 0,-4 -9,-16 -14,-24 -6,-9 -9,-16 -14,-25 -5,-10 -8,-17 -11,-28 -3,-9 -5,-24 -5,-34 0,-12 6,-15 -4,-17 -8,-1 -10,-2 -13,-8 -6,1 -8,3 -16,3z"/>
   <path class="fil0" d="M1748 805c-2,0 -26,-18 -30,-21 1,5 5,13 7,18 3,7 5,11 7,18 10,24 30,95 30,121 6,-1 9,-9 12,-18 2,-7 4,-15 6,-24 6,-31 7,-104 1,-138 -1,-5 -1,-6 -4,-8 0,14 -12,28 -18,41 -3,6 -4,11 -11,11z"/>
   <path class="fil0" d="M638 1520l6 -4c2,-1 5,-2 6,-4 4,-3 5,-8 7,-14 4,8 -7,21 -19,22zm21 -47l0 1c0,0 0,-1 0,-1zm-22 -52l0 0zm1 -4l0 0c0,0 0,0 0,0zm16 -63l0 0zm0 0l-1 -1 1 1zm-1 -1c-3,-2 -6,-3 -9,-5 -5,3 -7,3 -7,10 3,2 7,3 11,8 -6,-2 -5,-4 -13,-4 -3,12 0,6 -8,10 0,14 0,7 2,14 -18,0 -1,12 -1,12l-6 0c0,6 1,7 4,11 5,5 4,3 11,3l0 2c-6,2 -4,1 -5,4 3,2 1,2 5,3 2,4 -1,2 5,2 -2,3 -4,5 -2,9 2,4 4,1 9,1 -5,7 -4,2 -4,14l7 0c0,-7 0,-2 1,-4 1,4 0,2 2,4 -2,4 -4,3 -3,8 1,3 4,4 6,7l-5 0c0,9 0,8 5,11 -8,2 -6,8 -3,13 -10,0 -8,3 -15,7 0,13 6,23 -11,23 4,15 29,12 36,-11 4,-14 4,-4 11,-11 2,-3 4,-12 4,-17 0,-8 -3,-10 -8,-14 -10,-8 -8,-20 -12,-33 -1,-5 -3,-11 -7,-15 -3,-3 -9,-7 -10,-12 -1,-5 3,-14 6,-16 5,-6 8,-2 11,-12 4,-15 2,-5 11,-10 5,-3 1,-12 5,-17 3,-3 4,-2 7,-5 6,-9 -7,-6 14,-20 -3,-5 -8,-7 -11,-12 -4,-5 -5,-10 -12,-11 -1,5 -3,5 -2,9 1,2 2,4 3,8 -3,-2 -3,-3 -8,-3 -5,8 -2,7 0,15 -4,-2 -4,-3 -9,-6 0,8 1,11 1,16 -3,-1 -3,-2 -6,-5 -7,14 -2,13 0,19z"/>
   <path class="fil0" d="M1742 561c3,4 8,5 12,8 29,22 0,27 -3,31 40,-10 36,18 60,39 10,9 42,22 46,13 0,-2 -1,-17 -1,-21 -1,-21 -16,-43 -35,-53 -27,-14 -31,-3 -64,-25l-7 5c-3,1 -5,2 -8,3z"/>
   <path class="fil0" d="M427 642c0,18 0,11 24,-1l41 -20c5,-2 9,-4 14,-7l28 -16c-34,-7 -6,-33 9,-36 -4,-5 -5,-1 -17,-9 -2,2 -4,4 -6,5 -2,2 -5,3 -8,4 -19,10 -32,6 -52,19 -19,12 -33,31 -33,61z"/>
   <path class="fil0" d="M1667 250l35 6c4,0 1,2 3,-2 0,0 19,-114 19,-123l-29 -5c-1,0 -5,0 -5,-1 -5,0 -2,-2 -4,2 0,0 -19,112 -19,123z"/>
   <path class="fil0" d="M1224 210c43,0 41,7 41,-11 -1,-6 -1,-11 -1,-17l4 -97c-46,0 -40,-8 -40,15 0,31 -4,77 -4,110z"/>
   <path class="fil0" d="M397 165l7 31c2,9 4,21 7,30l10 46c1,5 3,11 4,16 3,0 36,-8 39,-9l-29 -123c-13,3 -25,6 -38,9z"/>
   <path class="fil0" d="M1607 1041c0,59 -4,54 -32,102 -2,2 -6,10 -7,11 -3,11 -1,31 1,41 1,6 5,14 13,14 6,0 2,-5 2,-10 0,-15 -2,-22 5,-34 4,-8 9,-12 17,-27 13,-21 31,-52 31,-80 0,-22 2,-24 -9,-27 -2,2 -5,10 -21,10z"/>
   <path class="fil0" d="M648 1033c0,46 -1,46 19,86 3,7 6,12 10,17 1,3 3,5 4,8 9,16 19,14 19,49 0,4 -3,16 2,16 18,0 15,-34 15,-48 0,-8 -8,-19 -13,-27 -6,-9 -10,-16 -15,-25 -16,-33 -9,-30 -12,-49 -1,-8 1,-11 1,-19 -9,0 -18,-3 -20,-10 -6,0 -4,2 -10,2z"/>
   <path class="fil0" d="M951 1296c4,2 20,17 34,26 9,6 29,17 39,22 33,13 66,24 104,24l0 87c-40,-4 -67,-7 -105,-20 -25,-8 -49,-20 -71,-33 -5,-3 -10,-6 -14,-9 -8,-5 -16,-11 -23,-17l-24 -19 60 -61zm-69 61c5,3 29,25 50,39 8,6 18,12 27,17 5,3 9,5 14,8 6,3 11,5 16,7 40,20 101,33 146,33l0 -95c0,-6 -6,-4 -12,-4 -10,0 -33,-4 -43,-6 -41,-9 -90,-34 -120,-62 -4,-3 -5,-6 -10,-7 -2,5 -29,31 -34,35l-34 35z"/>
   <path class="fil0" d="M1155 1673l0 -192c30,0 69,-7 96,-15l29 -9c-1,4 -5,10 -7,13l-24 41c-10,18 -21,36 -31,54 -2,5 -5,8 -8,13l-55 95zm-1 -198l-5 0 0 220c4,-2 115,-195 128,-218l18 -32c-11,2 -37,14 -65,20 -22,5 -50,10 -76,10z"/>
   <path class="fil0" d="M1101 1147c18,12 27,12 48,12 14,0 26,-8 35,-13l58 59c-12,6 -11,11 -38,23 -46,20 -100,15 -143,-10 -7,-4 -12,-9 -18,-13l58 -58zm-67 58c7,10 32,23 45,29 8,4 18,7 28,9 33,9 68,4 96,-8 10,-3 17,-8 25,-13 4,-2 19,-15 23,-16 -2,-6 -63,-65 -67,-67 -4,1 -3,2 -8,4 -26,15 -51,12 -76,-4l-66 66z"/>
   <path class="fil0" d="M1758 627c0,6 -8,8 -12,9 -11,3 -9,0 -18,-1 19,16 5,27 14,45 3,7 9,10 16,13 5,2 32,10 32,-3 0,-32 -4,-51 -23,-72 -3,-4 -3,-5 -7,-8 -3,-2 -5,-4 -9,-5 1,7 7,16 7,22z"/>
   <path class="fil0" d="M1043 966l19 -13c8,-5 14,-8 23,-11 37,-16 77,-14 114,-1 10,4 37,19 42,26l-58 58c-24,-13 -46,-19 -74,-5 -3,2 -5,4 -9,5 -3,-3 -53,-50 -57,-59zm-9 1l66 67c29,-20 54,-21 84,-1l67 -66c-6,-9 -32,-24 -44,-29 -53,-22 -104,-18 -153,12 -5,4 -17,12 -20,17z"/>
   <path class="fil0" d="M495 689c15,0 26,-8 36,-13 11,-5 21,-12 30,-19 -2,-5 -3,-16 -3,-23 -8,1 -8,4 -18,2 -24,-5 -10,-15 -6,-32 -13,8 -23,18 -30,32 -7,17 -11,35 -9,53z"/>
   <path class="fil0" d="M708 1254c0,8 5,20 8,26 12,23 37,17 54,4 10,-7 11,-13 11,-29 -15,1 -19,13 -37,13 -31,0 -18,-55 -18,-68l-4 6c-4,10 -14,40 -14,48z"/>
   <path class="fil0" d="M1674 1287c7,0 12,-2 18,-3 -1,-4 -3,-4 -10,-10 -11,-9 -22,-21 -30,-34 -2,-3 -6,-11 -7,-13 -3,-3 -11,-4 -15,-6 -6,-2 -10,-5 -14,-7 -10,-6 -8,-8 -13,-9 2,4 4,9 5,14 8,30 3,16 25,42 9,11 27,26 41,26z"/>
   <path class="fil0" d="M1562 1231c0,17 -5,37 -22,37 -9,0 -12,-7 -15,-13 -4,0 -8,1 -11,3 0,10 2,18 8,25 14,16 34,18 46,-2 12,-21 7,-36 1,-57 -2,-4 -3,-8 -5,-13 -2,-4 -3,-10 -6,-12 1,9 4,18 4,32z"/>
   <path class="fil0" d="M1076 1257c5,0 8,1 12,3 17,5 26,5 40,8l0 74c-32,0 -80,-18 -82,-18l15 -34c3,-5 15,-29 15,-33zm-38 70c11,6 28,10 42,14 19,5 34,7 55,7l0 -86 -33 -5c-9,-2 -21,-6 -28,-9l-36 79z"/>
   <path class="fil0" d="M1095 1086c0,-24 20,-46 44,-46 11,0 13,-1 23,4 44,21 30,88 -20,88 -25,0 -47,-22 -47,-46zm-6 0c0,47 58,70 89,38 35,-35 9,-91 -31,-91 -18,0 -29,2 -44,17 -8,8 -14,21 -14,36z"/>
   <path class="fil0" d="M1790 1394c-1,-1 -1,0 -2,-3 -1,-2 -2,-3 -2,-4 -1,-2 1,-3 -8,-5 5,-6 12,2 12,12zm-10 -26l0 0zm-9 -6l-1 2 1 -2zm1 -3l-1 3 1 -3zm0 0c0,-6 0,-2 1,-3 0,6 0,1 -1,3zm-2 5l0 8c11,0 4,-6 10,-4 -2,3 -4,5 -5,8 1,3 0,2 2,5 -6,7 -3,-3 -2,12 -6,-4 -3,-8 -3,-15 -3,-2 -5,-5 -11,-5 -6,12 0,24 0,26l-5 -1c2,3 6,6 10,4 3,-1 7,-5 10,-8 9,1 9,5 11,13 14,-1 13,-34 -4,-38 0,-4 6,-25 -16,-22l-14 7c-12,6 -6,1 -16,0 -2,2 -5,5 -6,8 -2,6 0,6 1,11 5,-1 5,-3 8,-9 0,0 1,-1 1,-1 0,6 1,9 6,10 3,-4 3,-7 4,-9 1,4 1,4 2,8 5,-1 7,-4 8,-10 1,2 1,4 1,7 6,0 2,1 5,-1l3 -4z"/>
   <path class="fil0" d="M991 437c0,18 -5,29 -15,38 -19,18 -45,16 -45,63 0,19 -1,34 -16,38l0 2c6,1 5,2 11,0 25,-6 9,-52 16,-67 8,-17 33,-18 47,-37 22,-28 2,-74 -14,-85 1,6 7,15 10,22 3,6 6,17 6,26z"/>
   <path class="fil0" d="M615 1122c0,4 4,12 5,17 3,14 -5,27 9,27 4,0 15,-5 15,-9 0,-4 -17,-27 -25,-47l-2 -5c0,0 0,0 0,0 -1,-2 -1,-2 -2,-3l0 20z"/>
   <path class="fil0" d="M1639 1156c7,10 14,11 23,9 4,-9 1,-9 1,-19 0,-9 4,-14 5,-20l1 -24c-3,3 -7,18 -13,28 -6,9 -12,17 -17,26z"/>
   <path class="fil0" d="M881 427c0,-5 -1,-10 7,-10 0,8 4,11 8,15 -4,0 -15,0 -15,-5zm25 5c1,-1 9,-3 10,-14l5 0c-1,10 -4,14 -15,14zm-11 -14l8 1c1,0 1,0 2,0 0,3 0,5 -3,5 -7,0 -6,-2 -7,-6zm-17 6c0,10 0,9 10,11 22,2 36,3 38,-25 -10,5 -16,0 -27,0 -10,0 -21,5 -21,14z"/>
   <path class="fil0" d="M1555 504c-1,0 0,0 -2,-1l-32 1c-20,1 -53,-6 -67,-2 -11,3 -12,13 -22,15 -7,-5 -5,-14 -2,-19l1 -2c1,-4 2,-4 3,-8 -5,4 -8,9 -9,16 -3,15 4,22 14,14 5,-4 6,-12 25,-12 27,0 41,5 70,2 6,-1 15,-3 21,-4z"/>
   <path class="fil0" d="M1506 428c44,10 78,-5 78,31l3 0c3,-14 4,-27 -21,-31 -12,-1 -22,-1 -38,-4 -7,-1 -19,-6 -22,4z"/>
   <path class="fil0" d="M1437 484c10,-2 15,-8 34,-6 28,3 49,9 75,-6 9,-5 20,-12 29,-1 -1,-15 -17,-11 -28,-4 -10,7 -20,9 -35,11 -22,2 -59,-16 -75,6z"/>
   <path class="fil0" d="M729 454c0,4 1,5 1,8l3 7c0,0 0,0 0,0 0,-25 1,-36 39,-42 21,-4 66,1 68,-14 -6,1 -4,4 -13,6 -15,2 -62,-1 -83,11 -8,5 -15,14 -15,24z"/>
   <path class="fil0" d="M1001 557l0 19c8,-2 17,-8 18,-16 0,-4 0,-8 0,-12 -3,1 -14,7 -18,9z"/>
   <path class="fil0" d="M965 567l0 19c3,0 6,-1 10,-2 8,-1 6,1 6,-19 -6,0 -11,1 -16,2z"/>
   <path class="fil0" d="M965 548l0 15c7,0 10,-2 16,-2 0,-4 2,-16 -1,-18 0,0 -15,0 -15,5z"/>
   <path class="fil0" d="M1000 537c1,6 1,9 1,16 3,0 5,-1 8,-3 13,-7 9,-10 9,-23l-18 10z"/>
   <path class="fil0" d="M962 506l2 19c4,-1 13,-3 16,-4 0,-2 -2,-16 -2,-16 -2,-2 -6,1 -16,1z"/>
   <path class="fil0" d="M947 572c0,19 -1,16 6,16 13,-1 9,-2 9,-21 -9,1 -15,1 -15,5z"/>
   <path class="fil0" d="M998 497c0,5 0,6 1,10 0,5 -2,7 3,7 1,-1 12,-7 13,-11 0,-5 -2,-9 -2,-14 -4,1 -12,6 -15,8z"/>
   <path class="fil0" d="M984 566l0 15c18,0 15,-7 15,-19 0,-7 -15,0 -15,4z"/>
   <path class="fil0" d="M1000 517l0 15c8,-1 12,-6 18,-10 -2,-5 -2,-6 -2,-13 -6,1 -9,6 -16,8z"/>
   <path class="fil0" d="M964 531c0,10 -1,11 5,11 16,-2 11,-5 11,-17 -3,0 -6,0 -10,1 -4,1 -6,1 -6,5z"/>
   <path class="fil0" d="M984 545l0 11c0,7 8,1 14,0l0 -18c-5,0 -14,2 -14,7z"/>
   <path class="fil0" d="M981 503c0,7 1,9 1,17 6,0 10,-2 14,-4l-1 -18c-5,1 -10,3 -14,5z"/>
   <path class="fil0" d="M995 478c1,24 5,14 16,8 0,-4 -2,-13 -3,-15 -5,1 -10,5 -13,7z"/>
   <path class="fil0" d="M984 538c4,-1 9,-2 14,-3 0,-13 3,-17 -9,-14 -10,4 -5,5 -5,17z"/>
   <path class="fil0" d="M1676 1978c6,0 8,-3 13,-5l0 -2c-5,0 -8,-2 -13,-1 -6,3 -4,8 0,8z"/>
   <path class="fil0" d="M560 2035l0 2c4,1 5,3 10,4 2,0 2,1 6,-2 1,0 1,-1 1,-1 0,0 0,0 1,-1 -6,-9 -10,-3 -18,-2z"/>
   <path class="fil0" d="M1939 1717l0 2c4,3 7,1 11,-1 3,-2 4,-3 5,-7 -2,0 -16,0 -16,6z"/>
   <path class="fil0" d="M1407 1782c0,9 -1,15 8,16 2,-5 1,-8 -3,-13 -3,-4 -1,-2 -5,-3z"/>
   <path class="fil0" d="M1638 1878c0,5 9,3 13,-6 0,0 5,-4 -3,-3 -4,1 -10,4 -10,9z"/>
   <path class="fil0" d="M762 1995c0,-2 1,-4 1,-4 0,-5 -7,-10 -11,-11 0,7 2,14 10,15z"/>
   <path class="fil0" d="M615 1980c0,-8 2,-8 -4,-12 -3,-1 -5,-2 -7,-3 0,7 3,14 11,15z"/>
   <path class="fil0" d="M1397 1873c0,10 13,8 7,-6 -2,-4 0,-3 -4,-4 -1,5 -3,8 -3,10z"/>
   <path class="fil0" d="M456 1828c0,4 2,5 5,6 6,-8 2,-7 0,-17l-2 0c-1,3 -3,8 -3,11z"/>
   <path class="fil0" d="M1493 2039c7,3 9,0 17,-2l0 -2c-6,-1 -4,-3 -14,-3 -2,4 -2,2 -3,7z"/>
   <path class="fil0" d="M1582 2052c5,8 10,2 17,2l0 -3c-4,-1 -5,-2 -9,-3 -4,0 -6,2 -8,4z"/>
   <path class="fil0" d="M1697 1823c4,2 5,3 9,1 4,-2 6,-4 7,-8 -11,0 -12,0 -16,7z"/>
   <path class="fil0" d="M1444 1866l3 0c6,0 8,-10 9,-14 -7,2 -12,5 -12,14z"/>
   <path class="fil0" d="M1399 2056c3,5 6,6 14,3 3,-2 2,0 3,-4 -11,-1 -6,-6 -17,1z"/>
   <path class="fil0" d="M1385 1902c1,0 2,-1 2,-2 0,-6 -7,-11 -11,-13 0,7 2,15 9,15z"/>
   <path class="fil0" d="M1755 1798c1,1 3,2 3,2 6,0 12,-4 14,-7 -11,-2 -13,-3 -17,5z"/>
   <path class="fil0" d="M447 1862c1,-2 2,-4 2,-4 0,-5 -7,-10 -12,-11 0,8 3,13 10,15z"/>
   <path class="fil0" d="M1721 1794c3,1 4,4 11,-3 2,-2 3,-4 4,-7 -9,0 -14,3 -15,10z"/>
   <path class="fil0" d="M791 2016c1,0 2,-2 2,-4 0,-5 -8,-7 -14,-7 2,5 6,11 12,11z"/>
   <path class="fil0" d="M1579 1999c0,1 2,2 4,2 5,0 8,-9 10,-13 -6,1 -14,4 -14,11z"/>
   <path class="fil0" d="M1495 1827c7,0 10,-5 10,-15 -9,5 -12,7 -10,15z"/>
   <path class="fil0" d="M339 1750c1,-1 3,-3 3,-3 0,-6 -6,-11 -11,-12 0,9 2,12 8,15z"/>
   <path class="fil0" d="M1801 2039c6,7 16,0 18,-3 -7,-1 -12,-6 -18,3z"/>
   <path class="fil0" d="M1668 1803c0,3 4,4 10,-2 3,-2 4,-3 5,-7 -7,0 -15,2 -15,9z"/>
   <path class="fil0" d="M1523 1999c4,2 6,3 13,-3 3,-2 2,0 3,-4 -6,-1 -11,-3 -16,7z"/>
   <path class="fil0" d="M447 1784c2,0 4,-1 4,-2 0,-7 -6,-11 -11,-13 0,5 3,15 7,15z"/>
   <path class="fil0" d="M373 1773c2,0 4,-1 4,-3 0,-6 -6,-11 -11,-12 0,4 3,15 7,15z"/>
   <path class="fil0" d="M1394 1842c2,0 3,-1 3,-3 0,-5 -6,-10 -11,-11 0,6 2,14 8,14z"/>
   <path class="fil0" d="M1415 1841c8,0 12,-5 12,-14 -7,2 -12,6 -12,14z"/>
   <path class="fil0" d="M1924 1680c1,-1 4,-2 4,-4 0,-6 -2,-11 -5,-13 -4,7 -5,13 1,17z"/>
   <path class="fil0" d="M1911 1646c8,0 5,-12 3,-16 -7,2 -8,16 -3,16z"/>
   <path class="fil0" d="M1385 2031l0 4c8,0 12,-4 12,-13 -4,1 -12,4 -12,9z"/>
   <path class="fil0" d="M1778 1978c0,5 5,7 7,2 2,-2 2,-9 2,-13 -5,1 -9,5 -9,11z"/>
   <path class="fil0" d="M608 2041c1,4 1,5 12,5 7,0 4,-7 -1,-7 -5,0 -7,1 -11,2z"/>
   <path class="fil0" d="M754 2025l4 0c0,-10 -5,-11 -14,-11 1,6 8,11 10,11z"/>
   <path class="fil0" d="M1277 2011l0 3c8,4 10,-3 16,-4l0 -3c-2,0 -16,-2 -16,4z"/>
   <path class="fil0" d="M516 2015c9,0 3,-7 2,-8 -2,-2 -8,-3 -12,-3 1,3 6,11 10,11z"/>
   <path class="fil0" d="M1673 1853c5,0 11,-4 13,-9 -5,0 -10,0 -13,2 -3,1 -6,7 0,7z"/>
   <path class="fil0" d="M1455 1819c0,4 3,6 5,8 7,-5 2,-11 0,-18 -2,2 -5,7 -5,10z"/>
   <path class="fil0" d="M1322 2057c5,8 9,4 18,4 -2,-3 -7,-7 -12,-7 -3,0 -4,1 -6,3z"/>
   <path class="fil0" d="M639 2010c3,0 3,-1 4,-4 0,-5 -6,-9 -13,-10 1,4 6,14 9,14z"/>
   <path class="fil0" d="M395 1713c0,3 1,6 3,9 8,11 14,-1 2,-8 -2,-1 -2,-1 -5,-1z"/>
   <path class="fil0" d="M451 1946c1,5 9,15 14,11 3,-3 -2,-10 -14,-11z"/>
   <path class="fil0" d="M341 1780l4 0c-1,-8 -5,-11 -13,-12 0,4 1,4 3,7 1,3 2,5 6,5z"/>
   <path class="fil0" d="M1479 2014c0,9 11,-1 12,-1 0,0 1,-1 1,-1 3,-3 1,2 2,-5 -5,0 -15,2 -15,7z"/>
   <path class="fil0" d="M1475 1788c0,6 6,3 8,0 2,-2 4,-7 5,-10 -6,0 -13,4 -13,10z"/>
   <path class="fil0" d="M815 2106c8,0 15,0 16,-8 -6,-1 -6,-2 -10,1 -3,2 -5,4 -6,7z"/>
   <path class="fil0" d="M1574 1933c0,5 1,6 4,8 6,-4 4,-12 1,-18 -3,2 -5,6 -5,10z"/>
   <path class="fil0" d="M1444 1782c6,-5 3,-12 0,-18 -3,2 -4,6 -5,9 0,5 2,7 5,9z"/>
   <path class="fil0" d="M1719 1828l0 3c4,3 13,0 17,-5 -6,-3 -17,-3 -17,2z"/>
   <path class="fil0" d="M1364 1947l2 0c3,-4 0,-13 -5,-16 -3,5 -3,16 3,16z"/>
   <path class="fil0" d="M1791 2002c5,8 15,1 17,-2 -7,-1 -11,-7 -17,2z"/>
   <path class="fil0" d="M1829 2009c5,7 8,3 17,1l0 -3c-10,-2 -8,-5 -17,2z"/>
   <path class="fil0" d="M491 1933c7,0 5,-10 -9,-13 2,5 6,13 9,13z"/>
   <path class="fil0" d="M1835 2047c0,8 12,5 16,4 -6,-8 -16,-8 -16,-4z"/>
   <path class="fil0" d="M1698 1759l0 6c8,0 9,-2 9,-16 -2,2 -9,7 -9,10z"/>
   <path class="fil0" d="M1539 1962c4,3 8,2 12,-1 3,-3 3,-3 4,-6 -9,0 -14,0 -16,7z"/>
   <path class="fil0" d="M1845 1971c7,0 10,-5 10,-15l-8 5c-4,4 -3,6 -2,10z"/>
   <path class="fil0" d="M642 1961c0,14 -1,11 5,14 3,-7 3,-12 -4,-18 -1,2 -1,2 -1,4z"/>
   <path class="fil0" d="M1940 1646c6,0 8,-2 11,-7 2,-3 0,0 2,-4 -14,0 -19,11 -13,11z"/>
   <path class="fil0" d="M1224 2047l4 5c6,0 11,-1 14,-5 -11,-5 -12,-3 -18,0z"/>
   <path class="fil0" d="M880 2001l0 -9c-3,-2 -8,-5 -12,-6 2,7 4,14 12,15z"/>
   <path class="fil0" d="M697 2025c0,-7 1,-8 -5,-12 -2,-1 -3,-2 -7,-2 2,7 3,13 12,14z"/>
   <path class="fil0" d="M1689 2035c0,-9 0,-15 -10,-15 0,5 1,7 3,10 2,2 4,4 7,5z"/>
   <path class="fil0" d="M1469 1897c7,0 10,-5 12,-10 -16,0 -19,10 -12,10z"/>
   <path class="fil0" d="M1810 1737l0 3c6,0 6,2 9,-5 8,-16 -9,-3 -9,2z"/>
   <path class="fil0" d="M1876 1995c1,8 7,7 16,7 0,-3 -7,-11 -16,-7z"/>
   <path class="fil0" d="M1217 2025c0,3 0,1 1,5 9,-1 8,-7 8,-16 -4,1 -9,7 -9,11z"/>
   <path class="fil0" d="M1760 2022c4,1 4,3 12,0 4,-2 3,0 4,-5 -7,0 -16,-5 -16,5z"/>
   <path class="fil0" d="M535 1945l0 -2c0,-4 -9,-7 -13,-8 1,8 13,19 13,10z"/>
   <path class="fil0" d="M1300 1990c8,-4 6,-6 6,-18 -3,2 -5,4 -7,7 -2,5 -1,7 1,11z"/>
   <path class="fil0" d="M1593 2029c4,1 5,1 9,-2 3,-1 5,-3 6,-7 -10,0 -14,-1 -15,9z"/>
   <path class="fil0" d="M506 1975c9,0 5,-10 -10,-12 1,4 6,12 10,12z"/>
   <path class="fil0" d="M1302 2016l0 3c3,1 14,3 16,-4 0,0 -16,-6 -16,1z"/>
   <path class="fil0" d="M1663 1767c0,5 1,7 6,7 2,-6 3,-13 -3,-17 -1,3 -3,6 -3,10z"/>
   <path class="fil0" d="M927 2066c4,-2 12,-7 12,-11 0,-6 -6,-3 -8,-1 -3,3 -4,8 -4,12z"/>
   <path class="fil0" d="M407 1785c3,0 2,0 5,-1 -2,-9 -6,-9 -16,-9 1,3 8,10 11,10z"/>
   <path class="fil0" d="M1636 1950c0,1 1,2 2,2 6,0 9,-8 11,-12 -6,0 -13,3 -13,10z"/>
   <path class="fil0" d="M1638 1803c4,-3 4,-4 3,-9 -1,-4 -3,-7 -5,-9 -2,9 -6,13 2,18z"/>
   <path class="fil0" d="M1885 1747c4,2 4,4 11,-1 3,-1 4,-2 5,-6 -11,0 -12,-1 -16,7z"/>
   <path class="fil0" d="M1347 2044l0 2c7,4 14,-2 17,-6 0,0 -17,-4 -17,4z"/>
   <path class="fil0" d="M1945 1693c0,1 2,2 4,2 4,0 9,-7 10,-11 -7,0 -14,2 -14,9z"/>
   <path class="fil0" d="M1278 2062c7,4 15,-1 18,-6 -9,0 -15,-3 -18,6z"/>
   <path class="fil0" d="M1325 1988c5,0 11,-5 13,-10 -19,0 -17,10 -13,10z"/>
   <path class="fil0" d="M737 2055l0 2c1,1 16,6 16,0 0,-9 -14,-3 -16,-2z"/>
   <path class="fil0" d="M1691 1734c0,3 0,4 1,6 7,0 6,-5 6,-12 0,-5 1,-1 -1,-4 -3,1 -1,0 -2,1 -3,3 -4,5 -4,9z"/>
   <path class="fil0" d="M826 2036c-1,-9 -6,-10 -15,-10 2,4 2,5 5,7 4,4 3,3 10,3z"/>
   <path class="fil0" d="M368 1804c0,-9 -5,-10 -15,-10 2,4 2,5 5,8 4,3 4,2 10,2z"/>
   <path class="fil0" d="M910 2021c10,0 5,-10 -10,-10 0,6 8,10 10,10z"/>
   <path class="fil0" d="M1451 2011c0,3 1,4 2,6 7,-2 7,-7 7,-16 -5,1 -9,7 -9,10z"/>
   <path class="fil0" d="M876 2052c0,-5 -8,-7 -14,-7 1,3 3,7 5,8 3,3 9,5 9,-1z"/>
   <path class="fil0" d="M1604 1967c0,2 1,4 3,4 6,0 11,-5 12,-10 -5,0 -15,2 -15,6z"/>
   <path class="fil0" d="M1813 1973c0,4 5,4 11,-1 3,-2 3,-3 5,-6 -8,0 -16,0 -16,7z"/>
   <path class="fil0" d="M1768 1715l0 7c7,-1 9,-2 9,-16 -3,1 -3,1 -5,4 -2,2 -4,3 -4,5z"/>
   <path class="fil0" d="M382 1743c5,0 8,-7 -7,-15 0,5 3,15 7,15z"/>
   <path class="fil0" d="M576 1922c0,-6 1,-11 -11,-14 0,4 2,6 3,10 3,4 3,4 8,4z"/>
   <path class="fil0" d="M1839 1744c5,0 10,-4 12,-7 -10,-6 -23,7 -12,7z"/>
   <path class="fil0" d="M1505 2069c0,6 13,6 16,5 -7,-11 -16,-8 -16,-5z"/>
   <path class="fil0" d="M472 1869l4 0c0,-8 -4,-11 -12,-12 1,4 3,12 8,12z"/>
   <path class="fil0" d="M528 2030l0 2c10,3 15,6 16,-3 -8,-2 -3,-4 -12,-1 -2,1 -2,1 -4,2z"/>
   <path class="fil0" d="M616 1936c0,-4 0,-5 -4,-7 -2,-2 -4,-3 -7,-4 1,13 11,19 11,11z"/>
   <path class="fil0" d="M1880 1678c0,5 12,12 6,-12l-2 0c-1,5 -4,7 -4,12z"/>
   <path class="fil0" d="M578 1973c0,-6 -2,-11 -13,-12 2,8 5,12 13,12z"/>
   <path class="fil0" d="M1607 1931c0,5 11,2 12,-10 -6,0 -12,4 -12,10z"/>
   <path class="fil0" d="M827 2079c2,0 4,-1 4,-3 0,-6 -9,-8 -15,-9 2,4 7,12 11,12z"/>
   <path class="fil0" d="M1491 1864c4,0 6,-1 8,-3 2,-2 4,-6 5,-8 -14,0 -18,11 -13,11z"/>
   <path class="fil0" d="M1429 1936l0 2c6,4 13,-2 15,-7l-12 0c0,1 -3,4 -3,5z"/>
   <path class="fil0" d="M1724 2036c1,10 8,6 17,5l0 -2c-4,-2 -7,-7 -17,-3z"/>
   <path class="fil0" d="M1816 1760c1,9 7,8 16,8 -2,-3 -6,-9 -11,-9 0,0 -5,1 -5,1z"/>
   <path class="fil0" d="M843 2000c9,0 3,-7 2,-8 -3,-3 -8,-2 -12,-4 1,7 8,12 10,12z"/>
   <path class="fil0" d="M1251 2006c0,10 -1,4 1,8 9,-3 7,-14 6,-17 -4,2 -7,7 -7,9z"/>
   <path class="fil0" d="M910 2062c1,0 2,-1 2,-2 0,-6 -7,-9 -13,-9 1,5 5,11 11,11z"/>
   <path class="fil0" d="M1335 2020c4,1 5,1 8,-1 3,-2 6,-4 7,-8 -10,0 -15,0 -15,9z"/>
   <path class="fil0" d="M1861 1986c5,0 11,-4 13,-9l-12 0c-1,3 -8,9 -1,9z"/>
   <path class="fil0" d="M1709 1981c6,4 11,3 18,0 -3,-4 -8,-5 -14,-5l-4 5z"/>
   <path class="fil0" d="M1775 2062c-1,-3 -5,-8 -7,-11l-7 0c0,8 6,11 14,11z"/>
   <path class="fil0" d="M1770 1762c7,0 5,1 9,-3 3,-2 5,-4 6,-7 -9,0 -15,1 -15,10z"/>
   <path class="fil0" d="M1694 2007c6,8 10,5 17,4l0 -2c-4,-1 -2,-1 -5,-3 -4,-2 -7,-5 -12,1z"/>
   <path class="fil0" d="M1617 1873c0,8 -1,3 1,6 4,0 5,-2 6,-5 2,-2 3,-5 3,-10 -4,1 -10,5 -10,9z"/>
   <path class="fil0" d="M382 1852c7,0 6,-10 -11,-10 1,5 7,10 11,10z"/>
   <path class="fil0" d="M815 1981c4,-7 -2,-13 -9,-15 0,4 0,6 2,9 2,5 2,5 7,6z"/>
   <path class="fil0" d="M1844 1717c0,3 1,4 3,6 6,-4 5,-10 3,-18 -3,2 -3,1 -4,5 -1,1 -2,5 -2,7z"/>
   <path class="fil0" d="M1427 1907c6,0 7,0 9,-4 2,-3 3,-5 3,-10 -7,4 -12,3 -12,14z"/>
   <path class="fil0" d="M1798 2062c0,6 9,9 14,10 -1,-5 -5,-12 -11,-12 -1,0 -3,1 -3,2z"/>
   <path class="fil0" d="M792 2059c-1,-10 -7,-10 -15,-12 2,7 7,12 15,12z"/>
   <path class="fil0" d="M1395 1940c7,1 12,-3 14,-10 -9,0 -14,1 -14,10z"/>
   <path class="fil0" d="M1622 2010c4,0 11,-4 12,-9 -2,0 -15,-1 -15,5 0,2 1,4 3,4z"/>
   <path class="fil0" d="M655 2049c9,0 16,1 17,-8 -6,0 -7,-3 -13,3 -4,4 -2,1 -4,5z"/>
   <path class="fil0" d="M1735 1711l1 8c7,-1 6,-3 6,-13 0,-4 0,0 -1,-3 -3,1 -6,5 -6,8z"/>
   <path class="fil0" d="M1735 1753l1 7c7,0 6,-3 6,-12 0,-5 0,-1 -1,-4 -3,2 -6,5 -6,9z"/>
   <path class="fil0" d="M1747 1995c6,3 11,0 16,-1 -1,-7 -11,-6 -14,-4 -3,3 -1,-1 -2,5z"/>
   <path class="fil0" d="M1857 1750c2,5 2,3 4,7l14 0c-2,-3 -2,-3 -4,-5 -5,-3 -8,-4 -14,-2z"/>
   <path class="fil0" d="M1414 2022l0 5c7,0 8,-3 11,-13 -4,1 -11,4 -11,8z"/>
   <path class="fil0" d="M410 1863c10,2 4,6 17,3 -1,-10 -14,-7 -17,-3z"/>
   <path class="fil0" d="M595 2004l0 3c2,8 4,10 10,10 0,-7 1,-7 -2,-9 -2,-2 -6,-5 -8,-4z"/>
   <path class="fil0" d="M674 2000c1,-4 3,-5 -2,-11 -2,-2 -3,-3 -7,-4 0,8 1,14 9,15z"/>
   <path class="fil0" d="M363 1828c0,-6 1,-11 -11,-14 1,7 4,13 11,14z"/>
   <path class="fil0" d="M1263 2040c3,3 4,4 9,2 6,-3 7,-4 8,-7l-13 0 -4 5z"/>
   <path class="fil0" d="M413 1839l4 0c0,-7 -3,-10 -14,-11 1,4 6,11 10,11z"/>
   <path class="fil0" d="M328 1807c1,0 3,-2 3,-3 0,-7 -8,-7 -14,-9 1,7 8,12 11,12z"/>
   <path class="fil0" d="M1607 1834l0 7 4 4c8,-6 1,-9 -1,-17l-2 0c-1,3 -1,3 -1,6z"/>
   <path class="fil0" d="M1544 2060c10,2 6,1 16,-1l0 -3c-2,0 -15,-7 -16,4z"/>
   <path class="fil0" d="M856 2019l0 2c4,1 4,2 8,3 5,2 3,1 8,1 0,-10 -5,-8 -16,-6z"/>
   <path class="fil0" d="M1455 2064c12,3 6,-1 16,-2 -1,-4 -2,-5 -11,-5 -4,0 -5,3 -5,7z"/>
   <path class="fil0" d="M1436 2037c0,8 13,2 15,-5l-11 0c-1,2 -4,5 -4,5z"/>
   <path class="fil0" d="M520 1896c0,-5 -1,-7 -4,-9 -3,-1 -7,-2 -10,-3 1,5 6,13 14,12z"/>
   <path class="fil0" d="M561 2009c0,-6 1,-7 -3,-10 -2,-1 -6,-3 -9,-3 1,7 5,12 12,13z"/>
   <path class="fil0" d="M1916 1732c6,9 17,-1 18,-2 -7,-1 -14,-5 -18,2z"/>
   <path class="fil0" d="M767 2090c7,2 14,3 17,-2 -6,-9 -15,-1 -17,2z"/>
   <path class="fil0" d="M476 1996l5 0c-1,-8 -7,-10 -15,-10 1,4 1,3 4,6 2,2 3,4 6,4z"/>
   <path class="fil0" d="M422 1744l5 4c5,-7 3,-12 -5,-18l0 14z"/>
   <path class="fil0" d="M1544 2020c5,7 11,1 18,0 -2,-3 -12,-9 -18,0z"/>
   <path class="fil0" d="M1907 1705c9,0 14,-5 14,-11 -11,3 -13,3 -14,11z"/>
   <path class="fil0" d="M1588 1877c0,5 1,6 4,7 7,-4 3,-15 0,-17 -1,4 -4,7 -4,10z"/>
   <path class="fil0" d="M1641 1829c0,2 -1,5 2,5 7,0 5,-9 5,-16l-5 4c-1,2 -2,4 -2,7z"/>
   <path class="fil0" d="M1870 1709l2 1c2,1 1,1 2,1 3,0 4,-1 7,-2 5,-4 4,-3 5,-6l-12 0c-2,2 -3,3 -4,6z"/>
   <path class="fil0" d="M1955 1666c6,0 10,-6 11,-11 -20,5 -14,11 -11,11z"/>
   <path class="fil0" d="M1501 1980c0,5 3,6 7,6 2,-5 0,-12 -2,-16 -2,1 -5,6 -5,10z"/>
   <path class="fil0" d="M546 1877c-3,7 9,23 9,10 0,-5 -6,-11 -9,-10z"/>
   <path class="fil0" d="M1859 2027c0,7 9,5 16,5 -1,-2 0,-1 -1,-2 -1,0 -3,-2 -3,-2 -6,-5 -12,-4 -12,-1z"/>
   <path class="fil0" d="M415 1762c9,0 4,-10 -10,-10 1,4 7,10 10,10z"/>
   <path class="fil0" d="M865 2090c3,-2 11,-7 11,-11 0,-9 -11,-2 -11,11z"/>
   <path class="fil0" d="M402 1811l0 -3 0 -3c-3,-2 -5,-5 -10,-6 0,12 10,20 10,12z"/>
   <path class="fil0" d="M444 1809l0 -2 0 -3c-4,-2 -6,-5 -11,-6 1,12 11,20 11,11z"/>
   <path class="fil0" d="M1377 1971l5 6c6,-7 2,-9 0,-17l-2 0c-1,5 -3,6 -3,11z"/>
   <path class="fil0" d="M314 1668c0,3 2,4 4,6l4 -4c-1,-5 -3,-7 -6,-10 -1,5 -2,3 -2,8z"/>
   <path class="fil0" d="M328 1713c-1,-7 -4,-8 -12,-8 1,4 2,5 5,7 4,2 3,2 7,1z"/>
   <path class="fil0" d="M328 1690c0,5 3,4 5,4 3,-5 1,-7 0,-13 -3,1 -2,0 -3,3 -1,1 -2,5 -2,6z"/>
   <path class="fil0" d="M1966 1591c0,7 0,2 2,5 4,-1 6,-3 6,-12 -3,1 -8,3 -8,7z"/>
   <path class="fil0" d="M302 1670c1,-1 1,-1 1,-4 0,-3 -5,-7 -7,-8 0,8 -1,10 6,12z"/>
   <path class="fil0" d="M1986 1587c6,0 9,-3 10,-7 -3,0 -7,0 -9,2 -3,1 -4,5 -1,5z"/>
   <path class="fil0" d="M294 1691c0,1 -2,1 3,4 12,10 13,-6 -2,-4 0,0 0,0 -1,0z"/>
   <path class="fil0" d="M276 1679c4,2 8,5 13,2 -1,-3 -1,-4 -5,-5 0,0 -4,0 -4,1 -1,0 -1,0 -1,0l-3 2z"/>
   <path class="fil0" d="M1953 1580c0,4 2,6 6,7 2,-4 1,-5 -1,-8 -2,-3 -2,-2 -4,-4 -1,3 -1,2 -1,5z"/>
   <path class="fil0" d="M1844 1601l4 4c3,-4 3,-3 2,-7 -2,-4 -3,-5 -6,-6l0 9z"/>
   <path class="fil0" d="M1955 1607c3,1 3,1 6,2 0,-5 0,-5 -2,-8 -3,-2 -3,-3 -6,-4 0,4 1,8 2,10z"/>
   <path class="fil0" d="M1498 1750c0,5 -1,1 1,4 6,-1 5,-4 5,-12 -4,1 -6,3 -6,8z"/>
   <path class="fil0" d="M1506 1719c1,-2 2,-1 2,-4 0,-5 -1,-8 -4,-10 -1,6 -6,12 2,14z"/>
   <path class="fil0" d="M1544 1714c7,-1 6,-5 6,-13 -5,4 -8,6 -6,13z"/>
   <path class="fil0" d="M1978 1611l2 -1 4 -5c-8,0 -12,-2 -13,6l7 0z"/>
   <path class="fil0" d="M1811 1611l0 3c7,1 12,5 13,-3 -5,-2 -7,0 -13,0z"/>
   <path class="fil0" d="M1521 1699c0,6 4,5 5,5 2,-3 2,-3 2,-9 0,-5 0,0 -2,-4 -3,3 -5,8 -5,8z"/>
   <path class="fil0" d="M1856 1628c1,-4 1,-4 -1,-7 -2,-4 -1,-4 -5,-5 0,8 -1,11 6,12z"/>
   <path class="fil0" d="M1993 1575c10,-3 8,-19 1,-9 -2,4 -1,4 -1,9z"/>
   <path class="fil0" d="M1836 1623c2,-2 3,-2 4,-6 -4,-1 -7,-1 -13,-1 1,4 0,2 3,5 2,1 4,1 6,2z"/>
   <path class="fil0" d="M1835 1638l0 2c6,2 6,5 12,1 -2,-7 -6,-4 -12,-3z"/>
   <path class="fil0" d="M1861 1646l5 4c2,-4 2,-6 0,-9 -3,-4 -1,-3 -5,-3l0 8z"/>
   <path class="fil0" d="M1518 1729l0 4c5,-1 7,-3 8,-10 -3,0 -8,2 -8,6z"/>
   <path class="fil0" d="M441 2024c3,-1 6,-2 8,-3 3,-2 4,-6 1,-6 -5,0 -8,5 -9,9z"/>
   <path class="fil0" d="M433 2061c6,-1 7,-4 7,-11 -8,1 -7,3 -7,11z"/>
   <path class="fil0" d="M1969 1562l4 4c3,-5 2,-5 2,-14 -3,3 -5,5 -6,10z"/>
   <path class="fil0" d="M408 2069c4,-1 2,-1 3,-1 0,0 3,-2 3,-2 3,-3 3,-2 3,-7 -4,0 -6,-3 -9,10z"/>
   <path class="fil0" d="M1834 1602c0,-6 0,-4 -2,-8 -3,-3 -1,-2 -5,-3 0,8 -1,11 7,11z"/>
   <path class="fil0" d="M452 2052c2,-6 5,-6 2,-12 -8,2 -5,10 -2,12z"/>
   <path class="fil0" d="M436 2077c0,4 1,4 1,7 3,-2 5,-5 5,-9 0,-5 1,0 -1,-4 -2,2 -5,3 -5,6z"/>
   <path class="fil0" d="M412 2042c4,0 5,0 7,-1 4,-2 4,-2 4,-6 -8,0 -8,2 -11,7z"/>
   <polygon class="fil0" points="872,1475 873,1475 872,1473 "/>
   <polygon class="fil0" points="1930,730 1930,729 1929,730 "/>
   <path class="fil0" d="M1348 1649l1 -1c0,0 -1,1 -1,1z"/>
   <polygon class="fil0" points="1871,898 1872,901 "/>
   <polygon class="fil0" points="1508,1638 1505,1636 "/>
   <polygon class="fil0" points="1871,898 1870,895 "/>
   <polygon class="fil0" points="1857,756 1857,754 "/>
   <polygon class="fil0" points="1437,484 1436,486 "/>
   <polygon class="fil0" points="1422,1475 1420,1473 "/>
   <polygon class="fil0" points="1435,487 1434,488 "/>
   <polygon class="fil0" points="1951,898 1951,895 "/>
   <polygon class="fil0" points="1436,486 1435,487 "/>
  </g>
 </g>
</svg>
