<?xml version="1.0" encoding="UTF-8"?>
<!DOCTYPE svg PUBLIC "-//W3C//DTD SVG 1.1//EN" "http://www.w3.org/Graphics/SVG/1.1/DTD/svg11.dtd">
<!-- Creator: CorelDRAW X7 -->
<svg xmlns="http://www.w3.org/2000/svg" xml:space="preserve" width="49.1066mm" height="49.1066mm" version="1.1" style="shape-rendering:geometricPrecision; text-rendering:geometricPrecision; image-rendering:optimizeQuality; fill-rule:evenodd; clip-rule:evenodd"
viewBox="0 0 4911 4911"
 xmlns:xlink="http://www.w3.org/1999/xlink">
 <defs>
  <style type="text/css">
   <![CDATA[
    .fil1 {fill:black}
    .fil0 {fill:#020202}
    .fil2 {fill:#030303}
    .fil3 {fill:#050505}
    .fil4 {fill:#060606}
    .fil5 {fill:#090909}
    .fil6 {fill:#0D0D0D}
    .fil7 {fill:#111111}
    .fil10 {fill:#151515}
    .fil13 {fill:#181818}
    .fil11 {fill:#1D1D1D}
    .fil15 {fill:#292929}
    .fil16 {fill:#2D2D2D}
    .fil20 {fill:#4A4A4A}
    .fil18 {fill:#7E7E7E}
    .fil19 {fill:#828282}
    .fil8 {fill:#868686}
    .fil17 {fill:#9C9C9C}
    .fil9 {fill:#B3B3B3}
    .fil12 {fill:#DFDFDF}
    .fil14 {fill:#EAEAEC}
   ]]>
  </style>
 </defs>
 <g id="Capa_x0020_1">
  <metadata id="CorelCorpID_0Corel-Layer"/>
  <g id="_310679080">
   <path class="fil0" d="M2295 4735c1,0 -11,-24 34,-6 17,7 17,15 23,35 -16,-2 -16,2 -34,-5 -26,-11 -13,-8 -23,-24zm415 64c14,16 10,-26 9,14 -34,21 -13,1 -14,1l-134 -61c-14,32 6,27 -10,57 -38,-27 -36,-52 -78,-81 -37,-24 -87,-24 -118,-44 16,-76 147,-20 192,4 62,33 94,83 153,110zm-832 -212c-324,219 -627,67 -567,-145 56,-199 457,-89 497,-28 13,20 69,154 70,173zm624 29c-19,-42 24,-44 -85,-83 32,-33 162,-90 216,-107 89,-26 212,20 204,103 -2,15 -17,141 -17,142 -21,46 -117,101 -204,-7 -57,-70 7,-24 -114,-48zm-2002 -101c19,-23 34,-30 61,-30 42,45 22,112 -61,30zm3104 -84c-33,-72 119,-73 169,-85 135,-31 491,-158 543,108 10,49 -35,122 -107,133 -71,11 -167,6 -230,-16 -65,-23 -114,-55 -175,-79 -30,-12 -192,-43 -200,-61zm45 72c-30,156 -284,225 -448,177 -118,-35 -117,-28 -122,-79 -1,-1 0,-4 -1,-6 -72,8 -20,31 -101,30 -42,0 -89,-2 -114,-22 -32,-90 90,-120 174,-120 16,25 2,21 32,30 36,-43 -29,-21 98,-78 45,-21 85,-38 129,-57 84,-35 192,-88 283,-51 4,47 -18,69 -3,114 12,38 40,52 73,62zm-1697 -218c25,12 28,29 48,51 82,4 74,-41 96,-98 59,19 185,129 201,175 -36,-3 -64,-14 -108,-15 -73,-2 -326,24 -237,-113zm489 306c-31,13 -69,9 -108,10 -21,62 -33,101 -101,115 11,-61 115,-96 12,-197 -86,-83 -208,-74 -201,-27 26,14 196,3 198,136 -26,-3 -143,-79 -200,-109 -188,-98 -94,-87 -178,-134 33,183 254,159 266,275 6,48 -7,115 -45,138 -2,-55 18,-134 -22,-170 -23,25 -8,74 -33,117 -15,26 -59,61 -103,41 16,-59 95,-77 41,-176 -32,-59 -71,-93 -101,-161 -98,-222 158,-323 172,-176 -40,-14 -52,-52 -99,-34 -69,26 -116,188 103,202 76,5 192,-17 244,28l106 97c30,19 28,6 49,25zm1526 -779c11,31 6,52 13,82 10,43 16,22 44,54 -32,124 -281,147 -409,266 -212,196 -119,-208 23,-324 47,-40 247,-158 329,-78zm-2353 118c10,-88 77,-113 157,-121 140,-14 136,-1 198,71 106,123 193,140 237,186 32,33 27,53 68,76 13,-16 4,-21 17,-39 208,40 201,11 329,-22 57,-14 169,74 244,121 -1,55 -32,143 -64,171 -26,24 -112,-9 -188,15 -125,38 -175,114 -245,25 -54,-70 -112,-119 -182,-173 -125,-96 -177,-111 -293,-181 -87,-52 -57,-63 -81,-164 -33,18 -6,-13 -31,59l-6 14c-43,-21 -29,-32 -66,-66 -1,-1 -3,-3 -5,-5 -35,33 -23,52 -89,33zm-515 -73c29,-31 192,-190 209,-188 39,19 24,42 66,69 79,51 75,31 147,133 18,27 36,60 61,82 51,45 129,13 202,78 50,43 135,74 168,120 -40,46 -115,11 -161,188 -127,-24 -97,-87 -159,-125l-20 61c-95,-8 -44,-27 -83,-46 -30,30 2,27 -37,47 -10,5 -67,13 -82,15 -16,-25 -4,-44 -25,-68 -42,37 -13,35 -28,77 -11,30 -38,27 -53,64 -73,-4 -123,-45 -156,-76 -7,-44 5,-55 8,-98 -45,9 -37,37 -75,12 -25,-15 -21,-40 -35,-65 -26,8 -36,33 -73,21 -38,-13 -14,-38 -37,-64 -54,23 -25,43 -88,58 -35,-95 -6,-110 56,-160 34,-28 116,-84 159,-102l6 30c39,-3 65,-28 75,-53l-45 -10zm2199 108c28,54 47,85 -27,176 -151,189 -214,144 -289,219 -49,49 -65,131 -142,72 -5,-44 46,-136 64,-184 49,-128 61,-209 177,-314 85,-76 118,-37 166,-7l57 -31c-9,-41 -25,-57 2,-92 31,-41 65,-24 97,-13 20,93 -65,124 -105,174zm-2489 34c-37,-36 -27,-43 -39,-98 -14,-60 -22,-41 14,-96 22,-35 31,-53 76,-61 86,-15 48,-30 84,-41l105 135c-33,29 -202,147 -240,161zm-12 233c48,0 11,-47 124,-32 139,19 134,50 226,146 30,33 69,45 110,76 2,19 3,66 -8,83 -1,3 11,11 -34,17 -170,22 -390,84 -545,-12 -78,-48 -150,-147 -52,-245 60,-61 155,-58 -32,-204 -62,-48 -160,-117 -189,-201 -39,-115 23,-260 159,-184 61,34 124,162 161,237 63,125 58,173 80,319zm3206 -353c1,-39 13,-34 55,-43 163,-34 312,-328 439,-207 40,39 11,115 -14,149 -89,116 -397,132 -480,101zm-3356 -197c35,-10 173,-74 185,-29 7,26 -86,132 -97,142 -19,-9 -80,-92 -88,-113zm3507 -37c8,-31 23,-40 60,-45 10,18 23,38 19,62l-79 -17zm-3812 -55c17,-9 32,-24 59,-15 11,23 12,17 3,43 -32,16 -50,3 -62,-28zm367 21c14,-25 46,-50 85,-60 63,-15 70,5 108,30 5,44 -4,109 -32,128 -1,-42 10,-55 -6,-95 -65,-33 -94,-6 -155,-3zm-68 -44c-9,-7 1,-6 -23,-14 8,-12 19,-11 37,-11 10,48 21,92 -35,90l21 -65zm3827 -50c3,-28 22,-25 46,-15 30,12 35,18 47,43 -25,14 -101,37 -93,-28zm-3874 -15c-2,-104 100,-35 75,-117 -25,-8 -123,30 -133,36 -40,25 -58,68 -34,112 40,-6 21,-18 74,-24l-38 99c-114,13 -61,-32 -93,-75 -19,-26 -38,-12 -61,-24 -25,-14 -15,-28 -21,-63 -43,1 -52,11 -71,36 7,49 2,2 29,44l-37 75c21,47 50,37 74,84 -13,53 -30,30 -33,77 -2,47 9,131 39,165 77,85 7,59 102,110 51,27 22,21 52,50 37,35 75,15 116,90 -28,53 -70,42 -100,83 -5,22 -3,47 -10,73 -8,29 -14,26 -22,56l41 39 -75 60c-43,47 2,49 1,103 -23,20 -30,12 -49,34 14,33 19,44 59,51 24,-66 -32,-47 107,-54 12,-18 24,-50 33,-67 98,-3 -25,24 164,37 37,3 43,7 76,18 48,17 28,5 77,-2 115,-18 105,32 161,-16 39,-32 108,-32 163,-25 63,73 9,82 118,133 187,86 80,23 210,44 67,11 18,23 83,-10 29,-15 62,-17 97,-30 64,-22 97,-82 168,-63 22,90 -118,101 -91,228 38,-6 17,-20 62,-34 26,-7 59,-9 87,-16 95,-22 51,40 134,42l36 -127c70,6 157,86 261,65l-26 -57c98,8 113,141 227,133 14,-53 -9,-19 13,-45 43,34 191,80 232,15 -22,-18 -77,-31 -112,-59l92 -82c44,-38 56,-44 134,-35 244,28 296,137 558,15 142,-66 122,-157 178,-170 46,-1 41,17 92,28 47,11 53,12 58,61 80,-3 47,-6 102,25 30,16 72,8 110,16 69,15 40,0 104,-10 71,-11 128,-18 153,-101 34,-116 33,-89 -25,-179l-40 -63c-36,-49 -275,-51 -346,-34 -88,22 -231,79 -308,29 3,-81 185,-121 274,-164 200,-96 119,-181 241,-194 153,-16 242,-2 345,-92 128,-112 42,-190 70,-243 11,-22 29,-28 46,-60 -13,-38 -23,-31 -20,-76 24,-21 32,-13 50,-34 -19,-29 -50,-46 -96,-53l3 75c-108,-3 -95,-6 -113,94l-141 76c-34,-37 -3,-50 -76,-55 -87,-6 -40,-7 -85,-42 -25,15 -24,14 -39,40l37 26 2 96 58 22c-5,43 -46,77 -88,89 -99,28 -146,-120 -418,14 -50,25 -143,131 -166,190 -38,101 -49,167 -69,277 -71,19 -159,44 -226,70 -47,19 -26,40 -99,53 -59,11 -56,32 -120,30 27,-67 104,-77 173,-112 72,-36 88,-83 135,-135 39,-43 42,-14 50,-94 26,-269 53,-36 121,-288 -18,-24 -48,-48 -79,-69 -30,-19 -50,-8 -86,16 -74,48 7,76 -156,114 -142,33 -200,162 -262,278 -146,-1 -156,-166 -349,-75 -119,57 -274,-20 -367,-69 -159,-82 -149,-168 -252,-214 -54,-24 -148,-14 -210,-4 -86,13 -76,58 -131,96 -55,-28 -88,-95 -135,-132 -28,-22 -137,-113 -152,-112 -63,23 -130,146 -223,172 -49,-88 -140,-189 -151,-291 44,14 18,16 53,36 70,-43 3,-104 -65,-84 -56,17 -68,48 -154,57 -2,-54 8,-93 -60,-67 -44,18 -43,40 -97,54z"/>
   <path class="fil1" d="M2641 1638c-49,-18 -78,-66 -108,-111 28,9 43,30 63,49 20,20 33,31 45,62zm-545 498c-42,-29 -52,-145 -34,-219 56,-234 78,-215 196,-347 50,-57 98,-87 202,-77 3,83 -78,184 -133,240l-154 227 -77 176zm-61 711c66,23 2,50 107,63l32 3c32,3 24,0 27,-30l-7 -194 -58 10 -3 -28 5 -26 -6 -35 6 -18c13,-10 5,-9 30,-16 12,-3 11,-2 24,0 -73,0 -27,-1 -45,-17l-21 -15c-2,-25 -7,-11 4,-37 -8,-25 -18,-5 -17,-50 24,-20 29,-8 31,-56 8,61 1,12 -14,27l-21 -22 -4 3c-27,20 19,-1 -6,4 -16,4 14,36 -11,-40 -5,-13 -5,-15 -6,-31l25 -6 46 1c34,-10 -9,13 0,-9 5,-13 -17,-7 13,-14l-28 -9c-24,-27 -17,42 -17,-22 -5,33 -1,14 -7,14l25 -32c16,-12 25,-16 39,-22l-45 -20c-1,-131 -6,-95 48,-204 93,-186 158,-225 262,-391 17,-28 27,-64 53,-84l112 113c34,33 82,73 102,132 -14,24 23,11 -16,20 19,23 5,12 19,32l7 10c11,13 0,0 9,9 4,5 8,8 15,18 8,10 15,21 24,36 12,21 5,-8 10,23 4,23 5,11 -3,25 3,16 30,52 44,72l-12 43c5,8 8,15 18,25 23,22 -1,4 27,17 14,6 16,9 40,14l-3 1c0,0 0,1 0,1 0,0 0,2 0,2 0,0 0,3 1,3 6,24 6,0 13,41 -1,36 -1,51 -6,85 -14,8 -20,-3 -43,26l-12 17c-167,-11 -144,122 -160,270 -77,-22 -81,-110 -124,-45 8,26 -7,19 61,52 116,58 103,-2 110,-173l68 3c20,95 -98,185 -104,265 20,31 -3,22 -28,82 -9,21 6,5 -17,26l-41 36c63,23 -40,21 95,62l43 17c0,0 61,-132 80,-138l17 0c22,-20 522,-977 528,-1024 -129,-24 -487,1 -640,4 -39,-86 -57,-132 -118,-194 -128,-131 -289,-130 -410,21 -47,59 -84,98 -126,178l-553 9c-6,46 217,479 252,553 28,61 245,525 260,534z"/>
   <path class="fil0" d="M3860 1512c12,-8 19,-11 39,-11 9,25 7,55 -8,77 -25,-40 8,-20 -31,-66zm666 -454c-22,-37 -17,-79 8,-109 30,7 40,15 29,55 -8,28 -22,45 -37,54zm-4081 -168c21,32 29,81 16,119 -11,34 -3,16 -25,29 -40,-21 -52,-123 9,-148zm3174 -41c15,-29 46,-54 75,-70 52,-32 61,-20 92,14 121,134 724,-32 763,121 -95,-21 -141,-24 -240,-3 -187,38 -162,-55 -507,28 -83,21 -159,-31 -183,-90zm-1 -64c13,-70 73,-149 112,-181 48,-41 175,0 232,12 79,18 152,37 229,59l162 51c32,12 28,6 39,32 -101,17 -273,-36 -391,-44 -330,-23 -236,21 -383,71zm-3041 -46c40,-50 350,-122 403,-134 52,-12 169,-53 210,-19 33,27 100,110 112,166 -111,-10 -116,-85 -351,-50 -86,12 -302,70 -374,37zm-68 -14c-11,-48 -9,-102 -29,-148 -21,-48 -50,-66 -69,-109 -55,-124 59,-157 156,-183 182,-49 391,-89 583,-119 1037,-167 2175,-147 3185,146 124,36 217,53 198,154 -9,49 -35,80 -57,122 -16,32 -36,92 -52,119 -57,-3 -167,-39 -226,-55 -581,-160 -1131,-205 -1738,-217 -478,-10 -1276,56 -1747,208 -67,22 -152,71 -204,82zm156 211c9,-9 6,-3 19,-7 24,-9 3,4 24,-9 -12,-11 2,-4 -22,-15l-81 -22c-57,-11 -94,-5 -121,-25 29,-24 77,-20 113,-20 238,-3 351,60 546,-70 59,-39 87,-7 175,44 -17,48 -102,95 -153,112 0,0 -3,12 23,27 -9,14 -10,22 -13,39 -1,1 -3,18 -3,20 0,2 1,4 1,6l4 10c58,-34 2,-51 73,-108 28,-22 80,-61 90,-97 32,-119 -98,-185 -99,-260 287,-120 1518,-116 1913,-69 106,7 463,47 540,76 -13,54 -195,277 -63,354l103 50c49,37 -8,52 51,127 49,63 -20,119 -93,169 -33,23 -71,30 -92,64 35,60 76,38 132,10 75,-37 164,-124 185,-188 15,-48 -42,-53 -57,-109 11,-19 26,-40 63,-33 57,10 95,87 2,202 -88,109 -193,135 -237,185 10,36 8,33 33,49 36,-8 49,-29 74,-42l36 -14c28,-21 -12,-8 49,-37 56,-26 29,6 41,-49l44 11 3 -50c71,2 21,1 48,-13 2,-2 4,-3 6,-4l32 -15c-25,-14 -21,-7 -24,-35l74 14c-17,-37 -18,-11 -31,-57l70 18c-18,-34 -26,-19 -39,-56 39,3 42,17 80,24 -15,-29 -26,-33 -44,-60 37,10 62,41 98,29 -19,-41 -36,-27 -57,-57 39,8 56,31 96,29 -21,-28 -32,-32 -64,-57 10,-6 -22,-10 23,-5 12,2 16,5 22,9 7,5 34,33 39,39 77,95 -76,127 -189,208 -59,42 -104,88 -171,126 -39,22 -180,57 -186,102 27,16 58,10 92,10 -3,72 -16,112 62,119 22,-26 33,-4 37,-57 3,-29 -4,-71 -4,-104 53,-15 159,-84 209,-114 60,-35 141,-85 212,-110 77,-29 208,-27 122,-145 -55,-77 -139,-125 -161,-163 26,-17 131,-28 152,-4 32,47 -8,126 54,174 27,-18 45,-65 58,-95 21,-49 14,-88 -17,-125 -58,-70 -132,-69 -236,-75 -105,-7 -559,42 -536,-72 70,-30 330,15 415,31 289,55 225,-36 271,-141 22,-52 186,-214 12,-295 -94,-44 -245,-84 -354,-111 -1057,-265 -2255,-248 -3323,-32 -119,24 -255,54 -358,98 -181,77 -53,193 -10,298 23,58 18,131 60,168 97,84 437,-64 605,-30 -9,27 -29,34 -77,58 -48,24 -51,26 -115,24 -92,-4 -189,-7 -281,-8 -95,-1 -171,1 -229,61 -45,46 -45,174 -9,232 126,-44 90,-137 92,-192 62,-4 115,16 171,30z"/>
   <path class="fil2" d="M1435 2554c-23,-12 -2,-17 0,-21 1,1 4,4 4,5l-4 16zm1974 -1126c24,86 2,830 -1,979 -4,170 -1,292 -55,444 -44,126 -97,232 -160,332 -117,185 -307,374 -486,504 -46,34 -250,176 -317,182 -63,6 -273,-142 -314,-172 -45,-34 -110,-78 -143,-112 -129,-133 -222,-243 -314,-431 -150,-308 -139,-488 -138,-857 1,-167 1,-333 3,-500l4 -372c5,-28 1,-23 31,-27 12,-1 47,0 60,1 165,5 326,8 491,8 50,0 196,11 229,-16l133 -109c34,8 66,34 93,52l79 57c43,16 464,14 542,15l209 6c4,0 26,2 28,3 30,8 8,-3 26,13zm-1967 997l-7 26c-11,-9 -7,21 -10,-15 -8,-68 -51,-182 -71,-252 -43,-153 -85,-407 -30,-557 58,-155 120,-117 101,-211 -16,-8 -23,-4 -38,-2l-60 72c-63,82 -67,176 -82,269 -8,152 -6,281 21,422 21,105 75,284 42,382 -58,6 -116,-15 -139,47 -22,58 19,106 51,119 133,56 203,-114 217,-128 20,28 22,156 30,203 75,452 424,872 830,1065 76,36 80,54 167,11 112,-56 204,-115 291,-183 100,-78 177,-140 251,-223 36,-41 71,-82 110,-128l97 -131c44,-105 118,-186 170,-355 42,-136 42,-313 45,-462 3,-143 17,-934 4,-1011 -93,-16 -330,-5 -439,-5 -76,-1 -152,-1 -228,-2 -84,0 -128,15 -181,-47 -31,-5 -111,-69 -148,-87 -24,14 -55,44 -79,63 -133,107 -88,71 -346,71 -174,-1 -386,-11 -556,1 -12,163 -2,363 -4,530 -1,174 -5,345 -9,518z"/>
   <path class="fil0" d="M3195 1284c13,-10 -23,-18 16,-9 41,10 10,4 23,16l-39 -7zm-181 -37c21,-26 65,-62 68,0 3,69 -55,46 -68,0zm-374 24c30,-20 56,-1 160,-56 20,-11 129,-95 130,-47 0,79 -242,193 -290,103zm353 -71c-43,-33 -24,-113 26,-99l8 28c2,38 -10,57 -34,71zm76 -89c-14,-36 -18,-74 -3,-111 38,15 41,52 24,90 -14,33 -2,8 -21,21zm-139 -39c-1,-32 64,-96 91,-98 7,35 -30,98 -63,104 -47,7 -18,-1 -28,-6zm-290 23c65,-42 83,11 238,-115 23,-19 36,-43 64,-51 18,41 -31,80 -67,115 -41,42 -183,126 -235,51zm348 -172c-19,-91 60,-80 113,-63l14 6c2,51 2,71 -29,98 -37,-16 -16,-18 -37,-36 -29,-23 -21,3 -61,-5zm247 -82c10,11 1,4 16,12 19,9 48,7 67,26 -56,-1 -79,-8 -128,-23 10,-30 26,-48 47,-67 8,-7 63,-51 74,-55 56,-24 164,22 161,69 0,0 -187,-37 -237,38zm-36 -54c1,-12 -2,-13 5,-23 17,-23 12,-12 31,-20l-36 43zm-19 -64l17 -12c-3,37 2,6 -11,19 -29,30 -16,14 -49,34 -22,14 -26,26 -51,42 -1,-1 -3,-6 -4,-4 -6,12 0,-7 -21,-20 -28,16 -32,28 -71,38 28,-106 133,-70 190,-97zm-92 -68c22,6 28,15 47,33 -27,13 -43,0 -47,-33zm-88 -84c50,22 63,58 37,127 -21,54 -64,48 -78,102 -18,72 9,66 -78,98 -40,14 -106,28 -139,1 65,-28 186,-8 175,-102 -44,-13 -137,5 -167,-32 78,-24 129,-4 217,-43 -19,-42 -52,-65 -58,-95l8 -43c40,26 44,70 88,85l-5 -98zm118 8c28,10 22,5 33,39 -23,-6 -28,-10 -33,-39zm-293 560l17 -12c5,43 3,5 -10,22 -156,108 -179,58 -258,77 -2,39 11,40 35,74 7,11 4,6 8,13 213,81 251,-51 342,-72 33,36 49,80 102,99l62 -47c79,32 212,97 229,-58 -102,15 -159,20 -193,-78 -23,-67 -31,-191 7,-245 35,-23 145,24 199,-13l42 -30c-6,-23 -10,-23 -23,-37 66,-4 47,12 74,58 43,-19 70,-83 39,-130 -25,-40 -75,-58 -133,-69 -60,-12 -112,-28 -147,-58 -14,-12 -37,-38 -47,-54 -26,-43 -12,-46 -58,-54 -13,20 -18,20 -43,30 -41,-19 -52,-39 -85,-58l-26 58c-26,-17 -20,-22 -49,-32 -76,73 -17,105 -18,182 -50,22 -141,7 -188,32 -21,26 13,66 64,85l40 19c-46,21 -121,11 -172,16 19,81 97,90 189,104 -8,20 -13,23 -36,38 -92,64 -109,38 -204,51 -1,178 226,92 241,89z"/>
   <path class="fil2" d="M2484 3386c-21,-37 25,-59 40,-77 -7,32 -18,55 -40,77zm-7 -276c89,-52 163,-128 219,-129 -13,46 -123,254 -153,280 -42,38 -96,39 -96,128 0,55 21,33 -4,84 -15,30 -21,44 -44,60 -36,-66 -95,-181 -120,-262l198 -161zm-257 -681l-8 61c-29,-13 -40,-35 -45,-75l53 14zm121 -143c-9,56 -45,29 -60,11 21,-24 35,-23 60,-11zm-159 -31c23,-15 55,-10 88,-5 -15,34 -66,29 -88,5zm200 -2c-42,-1 -53,-14 -89,-27 -29,-10 -70,-11 -101,-20l16 -50c36,20 -11,12 47,26 29,7 22,3 48,17 44,23 71,8 79,54zm-44 -83c55,-11 151,-65 132,25 -15,69 -88,0 -97,-5 -20,-10 -14,-1 -35,-20zm224 -101c27,-67 175,-65 233,25 -37,-1 -63,-20 -108,-23 -42,-3 -83,2 -125,-2zm81 -150l3 -28c13,20 2,23 2,22 0,-1 -3,4 -5,6zm-510 304l45 20c-14,6 -23,10 -39,22l-25 32c6,0 2,19 7,-14 0,64 -7,-5 17,22l9 -22c89,32 112,27 127,67 -53,2 -48,0 -81,-23 -19,-13 1,-4 -27,-13 -30,7 -8,1 -13,14 -9,22 34,-1 0,9 5,6 6,7 15,14l32 19c21,10 32,10 50,20 -16,12 26,11 -27,10 -7,0 -14,-4 -21,-6 -78,-29 -100,-27 -95,-58l-25 6c1,16 1,18 6,31 25,76 -5,44 11,40 25,-5 -21,16 6,-4l4 -3 24 -4 -3 26c15,-15 22,34 14,-27 -2,48 -7,36 -31,56 36,8 52,21 60,61l-43 -11c-11,26 -6,12 -4,37 16,-2 30,-6 46,-1 33,8 9,-1 21,18l-46 -2c18,16 -28,17 45,17 -13,-2 -12,-3 -24,0 -25,7 -17,6 -30,16l51 7c-14,13 15,7 -26,14 -4,0 -26,-3 -31,-3l6 35 39 3c7,36 -9,28 -44,23l3 28 58 -10 7 194c18,-18 21,-262 28,-311 33,20 48,56 73,85 73,85 167,157 292,168 20,36 -2,49 47,70 12,5 31,8 45,14 28,12 25,16 29,23 -143,61 -82,37 -177,103 -58,40 -53,12 -163,117 -23,22 -73,71 -110,76 -38,-28 -134,-235 -152,-297l48 -12c1,0 5,0 6,-3 1,-3 5,-2 7,-3l-32 -3c-105,-13 -41,-40 -107,-63 20,68 338,718 366,746 28,-30 25,-36 61,-100 56,-98 361,-670 380,-727l-17 0c-19,6 -80,138 -80,138l-43 -17c-135,-41 -32,-39 -95,-62l41 -36c23,-21 8,-5 17,-26 25,-60 48,-51 28,-82 -40,30 -75,210 -283,38 -88,-72 -140,-120 -168,-278 18,-18 42,-37 61,-56 98,-96 82,-103 190,-148 69,-29 330,-17 349,72l12 -17c23,-29 29,-18 43,-26 -27,-4 -11,3 -32,-8 -7,-31 -9,-86 -36,-103l-14 62c-23,-25 -3,-4 -12,-61l-4 -13c-24,12 -20,17 -37,39 -6,-36 3,-25 -21,-37l-27 46c-40,-19 -15,-31 -51,-55 -15,17 -8,32 -34,47 -35,-28 -13,-39 -51,-57 -23,36 1,32 -29,65 -40,1 -42,-9 -52,-38 77,-94 290,-45 406,28 -7,-41 -7,-17 -13,-41 -1,0 -1,-3 -1,-3 0,0 0,-2 0,-2 0,0 0,-1 0,-1l3 -1c-24,-5 -26,-8 -40,-14 -28,-13 -4,5 -27,-17 -10,-10 -13,-17 -18,-25l12 -43c-46,-2 -71,-35 -156,-39 -69,-2 -108,17 -136,56 -44,63 -36,52 -125,70 -45,9 -114,38 -154,17 -38,-32 27,-111 60,-162 49,-76 168,-298 268,-133 45,75 12,142 128,113 7,-57 -54,-109 -69,-171 31,18 134,174 135,172 1,-2 4,3 5,5 8,-14 7,-2 3,-25 -5,-31 2,-2 -10,-23 -9,-15 -16,-26 -24,-36 -7,-10 -11,-13 -15,-18 -9,-9 2,4 -9,-9l-7 -10c-14,-20 0,-9 -19,-32 39,-9 2,4 16,-20 -28,-9 -40,-26 -67,-31 -46,-8 -32,10 -65,21 -152,-74 -215,49 -275,142 -30,47 -108,175 -128,226 -26,65 -7,54 -42,76z"/>
   <path class="fil1" d="M708 920c-21,13 0,0 -24,9 -13,4 -10,-2 -19,7 6,21 20,9 -65,68 -143,100 -17,135 -3,149 117,29 354,160 469,226 36,21 122,84 163,53 -12,-34 -88,-73 -127,-97 -51,-32 -94,-62 -130,-99 -151,-153 -53,-280 38,-192 -6,45 -21,38 -47,68 11,93 290,316 422,278 4,-24 33,-34 49,-67 -58,-61 -242,-64 -295,-186 -28,-64 23,-77 38,-111l-4 -10c0,-2 -1,-4 -1,-6 0,-2 2,-19 3,-20 3,-17 4,-25 13,-39 -26,-15 -23,-27 -23,-27 -45,9 -169,-15 -229,-16 -74,-2 -157,12 -228,12z"/>
   <path class="fil1" d="M495 2037c-43,4 -43,21 -46,67 -6,79 5,256 8,341 2,67 30,410 5,441 -80,-90 -30,-718 -74,-854l-37 -4c-57,86 9,618 30,748 19,115 43,225 72,334 15,55 59,269 125,268 29,-54 -29,-563 -35,-674 -6,-106 -16,-604 -48,-667z"/>
   <path class="fil1" d="M4354 2456c15,77 -32,416 -43,516 -13,121 -84,440 -82,467 73,-28 124,-203 153,-295 115,-366 207,-746 166,-1137 -44,0 -80,23 -83,61 -2,22 9,94 9,127 0,101 -28,629 -112,706 2,-81 24,-139 36,-217l29 -463c1,-60 20,-186 -45,-193 -45,66 10,361 -28,428z"/>
   <path class="fil1" d="M3547 2584c-22,-195 226,-485 156,-937 -18,-115 -133,-292 -215,-270 -26,115 107,69 151,341 45,279 -161,557 -192,796 -32,241 118,301 199,250 54,-34 67,-151 -18,-155 -50,-3 -75,34 -81,-25z"/>
   <path class="fil1" d="M3518 2998c21,-67 -2,-68 4,-130 33,19 112,112 145,153 16,20 29,27 45,45 -1,59 -14,141 16,190 19,30 69,78 120,75 5,-79 -58,-146 -5,-218 54,-73 139,19 177,17 35,-63 -24,-64 -34,-123l70 -3c4,-57 -83,-79 -140,-75 -23,2 -116,37 -156,-30 -48,-17 -74,-50 -120,-72l-164 -22c-11,66 -6,68 -31,120 -56,-5 -14,-21 -58,-14 -22,53 -4,71 22,97 34,36 2,4 20,39 12,22 3,21 31,15 1,-2 2,-5 2,-7l2 -44 54 -13z"/>
   <path class="fil0" d="M682 1991c-25,19 -23,35 -25,77 -8,229 27,490 25,662 -46,-75 -47,-462 -47,-585 -1,-73 18,-161 -70,-144 -30,165 14,636 72,815 13,38 26,75 41,111 31,70 30,74 66,84 18,-113 -12,-390 -20,-519l-34 -483c0,-2 -2,-5 -2,-6l-6 -12z"/>
   <path class="fil0" d="M4177 2568c20,76 -5,411 -9,511 150,-43 174,-701 179,-807 2,-71 13,-188 -7,-246 -39,-9 -45,-12 -50,34 -11,96 9,582 -44,623 -22,-45 36,-561 0,-658 -43,52 -42,489 -69,543z"/>
   <path class="fil1" d="M1008 3274c64,20 121,-30 141,-70 42,-83 4,-129 8,-196 3,-50 174,-172 208,-219 -196,-26 -221,70 -302,117 -45,-18 -57,-51 -136,-51 -65,-1 -98,22 -103,82l77 -4c-32,35 -86,29 -82,98 101,12 174,-14 216,55 54,89 -28,127 -27,188z"/>
   <path class="fil0" d="M741 1976c-18,73 -2,797 169,811l-68 -829c-46,-17 -39,34 -39,76l-4 384c-26,-68 -12,-260 -19,-363 -2,-46 -2,-68 -39,-79z"/>
   <path class="fil0" d="M952 1934c-26,84 32,301 3,377 -14,-37 -19,-154 -24,-205 -4,-49 0,-156 -43,-169 -16,32 7,378 14,444 13,119 98,268 169,316 15,-34 -12,-123 -19,-194 -17,-178 -30,-228 -54,-396 -9,-60 -7,-145 -46,-173z"/>
   <path class="fil2" d="M1967 896c-12,35 6,23 -32,29 14,-40 8,-20 32,-29zm32 -28l4 -15 14 5c-12,19 1,12 -18,10zm-56 12c5,-11 11,-24 17,-30 26,-31 5,-10 34,-20l-51 50zm94 -65c4,-20 11,-19 29,-27 -12,23 -5,18 -29,27zm6 -47c-2,8 -11,26 -14,30 -30,38 2,7 -36,20l50 -50zm-290 -158c131,0 110,-80 171,-21 4,4 77,149 80,159 -27,52 -92,113 -111,161 -21,54 24,170 2,236 -60,-11 -23,-36 -38,-134 -12,-76 -43,-23 -25,-130 13,-73 -67,-153 -79,-271zm-46 -15c-7,52 25,129 46,174 53,116 18,68 17,182 49,70 58,27 58,153 1,85 16,103 101,87 7,-45 8,-98 5,-147 -3,-44 -21,-94 -19,-122l26 34c109,-77 70,-75 109,-110 71,-64 21,-71 -40,-174 -39,-65 -19,-117 -111,-136 -53,-12 -60,14 -99,26 -53,16 -50,1 -93,33z"/>
   <path class="fil2" d="M3981 2849c10,-30 13,-16 31,-41l77 -152c34,-76 45,-134 71,-215 8,-80 59,-393 19,-445 -58,34 -24,461 -103,546 0,-96 64,-497 35,-547 -40,31 -39,152 -48,212 -16,104 -45,394 -62,454 -16,58 -51,139 -57,196l37 -8z"/>
   <path class="fil0" d="M3782 2726c38,-10 53,-29 74,-57 17,-23 37,-46 54,-73 89,-144 182,-547 133,-621 -66,23 -22,187 -75,261 -5,-44 -3,-89 -4,-134 0,-20 1,-44 0,-62l-14 -50c-19,33 -47,326 -62,397 -32,154 -118,288 -106,339z"/>
   <path class="fil0" d="M527 1874c9,-71 16,-140 22,-211 8,-82 31,-182 -20,-199 -65,53 -7,381 -90,414 -73,-75 23,-361 0,-473l-43 -6c-26,101 -38,262 -41,382 -2,68 -5,141 46,162 92,39 104,-11 126,-69z"/>
   <path class="fil0" d="M1686 373c-20,13 -51,14 -80,10 -6,-70 3,-59 4,-71 1,-4 3,-4 4,-6 45,-32 72,12 96,17 52,11 42,-50 29,-83 -57,-23 -45,34 -133,24l-10 -59c276,-38 165,56 260,32 2,-33 -5,-50 -18,-78 -70,-4 -356,6 -395,38 9,9 0,3 16,10 41,18 39,3 43,49 3,34 5,85 1,119 -32,24 -34,2 -51,34 28,21 83,9 125,6 44,-3 89,-6 133,-9 117,-7 168,16 176,-109 -101,-1 -30,85 -200,76z"/>
   <path class="fil0" d="M1997 155c22,27 15,4 46,25l3 173 -32 20c11,3 8,3 22,5l86 0c18,-2 -3,2 15,-3 24,-6 15,-5 21,-8l-44 -15 -4 -149c85,37 253,184 344,175l3 -198c2,-1 5,-5 7,-3l28 -9c21,-7 9,4 26,-13 -28,-26 -148,-26 -175,0 26,29 22,2 57,25l3 113c-108,-35 -193,-155 -307,-155 -24,0 -97,-4 -99,17z"/>
   <path class="fil0" d="M3710 371c14,-37 56,-61 89,-64l16 84 -105 -20zm-224 38c4,37 35,35 74,43l76 11c0,0 -11,17 29,-10 2,-12 5,-7 -15,-24l-18 -13c67,-16 179,-5 215,44l-39 23c22,29 87,39 134,46 48,6 47,1 60,-10 -46,-56 -17,63 -93,-153 -63,-177 -62,-186 -260,-29 -145,114 -103,50 -163,72z"/>
   <path class="fil1" d="M3340 3512c-32,-24 -35,-110 -72,-92 -22,10 -33,222 115,180 60,-17 54,-50 61,-108 14,31 26,84 60,98 49,21 105,-4 129,-26 9,-38 0,-144 -20,-169 -53,-70 -39,85 -52,102 -4,-14 -5,-30 -10,-47l-24 -36 -15 47c0,-2 -1,4 -2,6 -34,-118 -71,-26 -75,-20 -14,-32 -4,-26 -35,-34 -38,42 -6,86 -60,99z"/>
   <path class="fil0" d="M4347 577c-65,27 -165,-15 -193,-50 -21,-25 -9,-36 -52,-40 -17,18 -36,51 -24,73 20,20 330,114 346,10 -14,-114 -212,-102 -235,-178 113,-48 182,84 221,92 21,-20 30,-49 23,-92 -71,-4 -316,-99 -321,9 -4,92 230,102 235,176z"/>
   <path class="fil0" d="M941 447c-84,-14 5,50 -156,90 -78,19 -180,26 -194,-55 -13,-76 63,-105 127,-121 165,-43 121,52 209,29 17,-29 3,-70 -10,-97 -25,-2 -79,21 -133,25 -377,23 -406,320 -45,259 77,-13 224,-56 202,-130z"/>
   <path class="fil0" d="M3074 294c-49,-26 -70,52 -167,60 -98,8 -136,-14 -193,-61 -13,-97 52,-124 144,-128 134,-7 127,72 211,65l0 -87 -18 -3c-2,0 -5,-1 -8,-1 -2,0 -5,-1 -7,-1l-119 -3c-99,-2 -371,14 -302,161 55,119 442,123 459,-2z"/>
   <path class="fil0" d="M1078 2205c-22,-46 -18,-161 -29,-232 -7,-40 -9,-46 -47,-51 2,165 63,559 179,594 18,-36 -44,-243 -52,-294 -11,-67 -28,-268 -49,-315 -2,2 -3,3 -4,6 0,8 -11,4 -8,62 1,25 4,50 6,76 3,50 8,102 4,154z"/>
   <path class="fil2" d="M859 1831l49 44c92,-14 61,-86 93,-141 19,36 8,74 42,100 45,35 67,9 80,-28 4,-50 13,-136 -4,-174 -22,35 -20,113 -37,157 -41,-20 -33,-130 -42,-171 -32,20 -20,36 -35,70 -3,-36 2,-67 -18,-91 -29,22 -30,76 -40,121l-1 -127c-14,12 -4,-2 -13,16 -5,8 -8,18 -9,25l-12 113c7,35 1,7 10,23l13 22c-16,12 -6,9 -31,13 -11,-37 -5,-76 -2,-116 1,-18 4,-41 4,-60 0,-15 -1,-36 -12,-49 -29,45 -41,194 -35,253z"/>
   <path class="fil0" d="M4372 1721c-2,62 -14,169 7,223 21,52 77,62 116,35 12,-8 9,-7 19,-16l15 -14c3,-25 16,-46 21,-76 13,-62 26,-238 -16,-271 -50,18 -35,65 -36,162 -1,102 4,144 -57,145 -32,-58 -6,-216 -32,-290 -38,9 -28,10 -37,102z"/>
   <path class="fil2" d="M3777 2366c7,-100 92,-327 66,-384l-29 -5c-18,27 -37,230 -54,292 -18,67 -79,201 -81,257 110,-8 201,-241 219,-374 6,-41 16,-122 0,-161l-7 -11c-40,45 -12,310 -114,386z"/>
   <path class="fil2" d="M579 1929c16,3 51,28 81,-9 35,-44 50,-236 55,-292 2,-38 9,-70 -8,-102 -40,26 -46,219 -54,268 -7,45 -7,61 -45,60 -30,-57 32,-281 19,-363 -32,8 -25,-1 -36,29l-24 176c-8,90 -22,165 12,233z"/>
   <path class="fil0" d="M1595 756c1,-40 15,-55 44,-65 33,24 169,239 7,193 7,-20 3,-8 14,-22 72,-93 -44,-93 -65,-106zm-41 44c38,13 42,2 66,26 -33,24 -76,28 -105,63 33,20 78,28 123,36 54,11 96,21 119,-34 25,-61 -18,-107 -49,-187 -13,-34 -9,-38 -27,-61 -67,2 -135,56 -127,157z"/>
   <path class="fil2" d="M753 1768c30,28 49,13 22,54 -13,-3 -12,18 -23,-18 -5,-15 -1,-24 1,-36zm42 -42c-3,-15 -5,-23 -5,-39l7 -28c0,-3 2,-3 3,-5 9,23 6,48 -5,72zm-74 -74c11,55 -25,213 19,240 88,54 93,-79 103,-128 4,-57 26,-166 6,-209 -29,9 -43,52 -43,76 -4,-29 1,-40 -13,-60 -21,57 -15,110 -27,142 -5,14 -6,14 -11,21l9 -190c-54,24 -14,61 -43,108z"/>
   <path class="fil1" d="M3291 197l-41 181c-41,-2 -50,-10 -71,5 13,30 43,26 102,35 41,7 97,23 127,-1 -29,-43 49,20 -19,-14 -14,-7 -8,2 -29,-11l31 -169 66 -5c-18,-27 -50,-30 -98,-40 -39,-9 -84,-23 -126,-13 17,37 20,17 58,32z"/>
   <path class="fil2" d="M3296 3267c9,-42 9,-24 24,-33 -8,25 -6,22 -24,33zm58 -43c33,46 3,29 -3,36l3 -36zm94 121c17,-62 -8,-86 36,-121 72,21 36,78 85,88 31,-71 -76,-217 -154,-61 -27,-40 -40,-94 -120,-60 -44,19 -58,99 -34,151 24,5 28,-5 45,-21 13,38 -1,29 36,35 11,-22 16,-45 16,-78 15,23 5,42 25,67 34,-9 10,1 34,-33 17,26 5,26 31,33z"/>
   <path class="fil1" d="M1071 256c48,38 58,-31 74,63 7,40 16,79 20,119 -28,11 -41,5 -57,30 31,27 204,-26 222,-41 -53,-28 -58,28 -74,-59 -6,-37 -17,-83 -22,-119 26,-14 44,-9 57,-35 -32,-15 -187,19 -197,23 -31,13 -11,-4 -23,19z"/>
   <path class="fil2" d="M1173 2027c3,5 5,2 8,17 6,39 -8,40 -8,40 -15,-22 -16,-32 0,-57zm-9 -31c-19,-41 13,-81 -33,-105 -36,45 -2,166 8,228 12,70 22,178 85,186 12,-31 -10,-245 -11,-330 -2,-90 6,-81 -23,-96 -46,22 0,78 -26,117z"/>
   <path class="fil0" d="M4458 1474c-45,-38 -4,-159 -51,-198 -19,28 -60,316 80,272 71,-23 67,-173 60,-240 -4,-45 -6,-54 -49,-55 -9,33 -11,75 -12,113 -2,42 7,95 -28,108z"/>
   <path class="fil1" d="M3035 3475c-22,31 -44,58 -24,116 19,53 62,40 113,30 125,-25 82,-98 71,-217l-57 3c-6,20 -5,49 -11,74 -11,46 -2,12 -41,40 -29,-19 -11,-30 -51,-46z"/>
   <path class="fil0" d="M1254 3466c-13,-39 -4,-93 -14,-127 -14,-46 -51,-27 -59,24 -15,94 -22,169 86,177 52,4 87,-3 99,-42 39,-127 -18,-225 -50,-110 -15,56 -3,77 -62,78z"/>
   <path class="fil2" d="M4212 1747c-5,87 -22,222 94,201 34,-39 43,-204 44,-201 2,-39 12,-89 -2,-124 -83,8 2,187 -68,237 -48,-41 -7,-153 -30,-211 -12,-33 1,-7 -14,-20 -16,40 -17,72 -24,118z"/>
   <path class="fil0" d="M4282 1475c-50,-32 -7,-82 -53,-118 -46,36 -43,256 69,213 44,-18 47,-68 52,-119 2,-29 3,-57 3,-85 1,-47 4,-61 -14,-89 -61,37 -26,132 -57,198z"/>
   <path class="fil0" d="M4072 1755c-5,74 -11,153 56,175 78,-29 40,-127 78,-193l-7 -92c-49,1 -46,24 -50,69 -2,18 -3,39 -5,57 -1,8 -2,15 -5,22 -9,27 -4,13 -13,24 -5,-48 6,-122 -15,-164 -37,6 -36,16 -39,102z"/>
   <path class="fil0" d="M1411 3358c-25,25 -28,95 -21,142 13,79 172,105 192,3 9,-47 15,-103 -28,-123 -64,33 -7,112 -85,120 -44,-50 10,-130 -58,-142z"/>
   <path class="fil0" d="M1705 3481c0,-2 -1,-4 -2,-6 -1,-5 -2,-15 -5,-25 -14,9 0,-4 -11,13l-10 23 -27 -80c-59,-1 -58,33 -50,90 19,139 214,134 175,-31 -56,-2 -29,5 -60,36l-10 -20z"/>
   <path class="fil0" d="M3957 1713c-5,75 -10,127 14,189 49,11 67,14 77,-41 5,-32 6,-73 8,-106l0 -96c-32,14 -11,-12 -27,24 -3,8 -4,26 -6,36 -2,26 -7,56 -14,76 -28,-39 1,-89 -25,-134 -20,12 -6,-5 -19,24 -4,8 -6,21 -8,28z"/>
   <path class="fil0" d="M483 1288l10 -18c3,3 5,4 5,6l0 9c0,0 -2,2 -3,4l9 54c33,-17 -1,6 30,-32 10,-12 2,-6 13,-14l-14 79 43 -6c39,-114 11,-132 -46,-168l-11 -8c-44,12 -51,6 -72,47 -18,35 -25,63 -13,100 38,-7 46,-20 49,-53z"/>
   <path class="fil0" d="M1506 3130c24,-60 -11,-54 -54,-71 -58,-23 -26,-43 -93,-7l-12 -24c-14,-25 -17,-32 -65,-30 -22,99 -7,91 71,109 47,11 109,35 153,23z"/>
   <path class="fil2" d="M2169 1183c31,18 50,55 62,90 10,28 4,28 0,37 -35,-25 -57,-81 -62,-127zm-42 -121c20,12 27,9 14,41 -22,-10 -29,3 -14,-41zm78 278c100,15 68,-42 42,-100 -22,-47 -40,-102 -86,-117 -1,-32 7,-102 -40,-72 -41,27 -3,70 6,97 29,84 38,123 78,192z"/>
   <path class="fil3" d="M3688 2329c29,-7 33,-26 48,-60 18,-43 66,-233 25,-269l-24 97c-1,-14 -2,-38 -4,-51l-12 -27c-19,33 -42,265 -33,310z"/>
   <path class="fil1" d="M3504 1854c47,6 73,-11 113,-26 3,-39 10,-119 -23,-143 -40,17 -14,21 -36,76 -39,-36 -3,-59 -57,-64 -24,34 -9,122 3,157z"/>
   <path class="fil2" d="M1430 819c6,-17 10,-29 18,-42 19,-27 9,-14 35,-25 -7,48 -11,53 -53,67zm39 72c16,-30 -1,-22 14,-53 9,-20 18,-16 32,-37 18,-27 24,-80 14,-113 -94,13 -224,195 -60,203z"/>
   <path class="fil2" d="M3932 1704l-16 -33c-31,35 -1,75 -25,118 -28,-49 15,-97 -43,-114 -5,62 -33,170 28,212 72,-12 57,-102 56,-183z"/>
   <path class="fil0" d="M3307 3158c32,9 90,5 134,1 54,-4 89,-3 114,-32 -8,-30 3,-22 -28,-32 -59,-2 -169,-7 -220,16l0 47z"/>
   <path class="fil1" d="M623 1408c39,13 18,-33 50,16l33 -25c3,15 1,31 18,46 23,-20 27,-39 26,-88 -5,-127 -176,-52 -127,51z"/>
   <path class="fil0" d="M1545 3213c-7,-29 -16,-33 -50,-45 -57,-19 -158,-43 -215,-35 1,61 60,54 115,68 53,13 97,27 150,12z"/>
   <path class="fil0" d="M789 1345c-10,42 -19,74 -15,124 29,-19 8,-6 26,-37l16 36c31,-9 12,-3 35,-23 17,34 -9,24 30,18 39,-63 -2,-164 -92,-118z"/>
   <path class="fil2" d="M4128 1532c-11,-10 -10,2 -18,-47 -5,-33 1,-37 -26,-54 -6,52 -16,124 18,156 98,34 108,-143 60,-184 -31,32 -10,84 -34,129z"/>
   <path class="fil2" d="M3494 2100c23,-3 56,-9 69,-22 5,-5 11,-11 11,-26 -2,-42 -18,-5 -30,-52 -10,-38 13,-70 -9,-116 -70,-7 -49,64 -41,216z"/>
   <path class="fil3" d="M1667 1311c-5,-32 21,-47 42,-62 25,-17 41,-30 74,-37 -17,34 -68,95 -116,99zm-64 13c68,11 97,22 141,-22 26,-26 71,-65 78,-104 -40,-37 -82,5 -118,29 -35,24 -91,55 -101,97z"/>
   <path class="fil2" d="M3793 1875c23,-31 52,-156 13,-193 -32,26 -13,51 -22,87 -4,15 -7,15 -12,19 -14,-35 -2,-54 -25,-81 -18,23 -15,73 -13,108 4,52 8,63 59,60z"/>
   <path class="fil2" d="M1378 1927c25,34 -5,66 40,91 19,-35 18,-109 1,-144 -31,-13 -52,-9 -83,-1 0,56 -10,127 23,142l19 -88z"/>
   <path class="fil4" d="M1980 1103c-22,-21 -8,21 -9,-10 0,-17 -2,-4 6,-15 1,1 3,2 3,5l0 20zm-1 -95c-33,-25 -11,-20 3,-30l-3 30zm55 -72c14,14 22,-4 3,25 -1,-1 -25,13 -3,-25zm-28 19c-46,5 -21,-8 -61,27 4,32 20,46 18,68 -3,32 -12,25 -5,73 70,-9 39,-51 50,-142l55 -10c2,-40 3,-46 -18,-72 -20,9 -30,7 -39,56z"/>
   <path class="fil0" d="M923 1497l20 -21c51,43 1,-8 59,27 1,0 3,1 4,2 22,-26 31,-66 20,-87 -71,-76 -139,3 -103,79z"/>
   <path class="fil2" d="M1147 1797c9,19 4,11 16,24l39 3c15,-19 11,-20 24,-44l2 -119c-28,21 -25,47 -43,104 -27,-30 -12,-52 -17,-91 0,-3 -2,-10 -3,-13 -4,-14 -6,-13 -9,-16 -19,43 -12,105 -9,152z"/>
   <path class="fil2" d="M1818 1321c-11,-44 13,-76 49,-81 -4,38 -18,75 -49,81zm-52 11c96,53 141,-81 142,-109 -76,-29 -73,-4 -112,46 -16,20 -38,37 -30,63z"/>
   <path class="fil2" d="M2105 1224c13,10 32,34 32,59 0,29 3,9 -11,26 -8,-23 -23,-51 -21,-85zm75 132c-4,-40 -53,-162 -76,-186 -51,18 -34,62 -14,109 23,56 23,76 90,77z"/>
   <path class="fil4" d="M445 1815c21,-43 54,-326 34,-361 -26,35 -28,118 -33,165 -3,32 -5,63 -6,95 -3,55 -7,66 2,95 1,1 2,4 3,6z"/>
   <path class="fil2" d="M4009 1549c-14,-13 -10,-16 -16,-31 -10,-28 4,-14 -18,-32 -20,32 -12,86 3,114 114,30 88,-127 52,-137 -28,38 -6,48 -21,86z"/>
   <path class="fil3" d="M1926 1331c-7,-20 -6,-26 3,-47 15,-38 27,-35 35,-39 1,51 4,77 -38,86zm-53 12l106 11 19 -136c-57,0 -62,1 -85,41 -17,28 -32,51 -40,84z"/>
   <path class="fil4" d="M2037 1297c-5,-27 -4,-22 3,-46 26,23 33,42 24,82 -20,-10 -21,-1 -27,-36zm-33 -8l3 63 90 7c2,-38 -24,-95 -42,-130 -16,-31 -5,-21 -39,-26l-12 86z"/>
   <path class="fil0" d="M3577 1602c1,-31 -9,-49 -25,-67 -20,-23 -34,-34 -58,-40 -11,25 -19,71 -5,104 15,34 -10,7 88,3z"/>
   <path class="fil2" d="M2590 2661c24,-10 35,-8 57,0 -1,0 0,31 -45,11 -10,-5 -8,-8 -12,-11zm-77 -31l77 71c50,18 83,-20 90,-59 -39,-19 -114,-24 -167,-12z"/>
   <path class="fil0" d="M1375 2856c-20,52 15,129 64,112 12,-45 -4,-141 -64,-112z"/>
   <path class="fil2" d="M2607 2348c-14,-16 -8,-17 -63,-23 -33,-4 -52,-6 -86,-3 6,76 116,76 149,26z"/>
   <path class="fil3" d="M1153 1546l28 -9 28 16c20,-8 -7,-5 13,-4 5,1 -1,7 26,11 20,-122 -121,-112 -95,-14z"/>
   <path class="fil2" d="M1432 2122c-44,-14 -66,0 -61,45 3,37 12,65 32,84 28,-29 33,-79 29,-129z"/>
   <path class="fil0" d="M1034 1510l22 3c61,6 31,27 58,22 52,-105 -77,-143 -80,-25z"/>
   <path class="fil2" d="M3738 1559c-45,77 76,133 86,36 6,-55 -18,-56 -18,-56 -28,22 -14,31 -16,73 -53,-17 -12,-32 -52,-53z"/>
   <path class="fil5" d="M629 1810c19,-33 22,-95 26,-140 2,-26 5,-50 7,-76 1,-11 4,-32 4,-43l-10 -36c-1,2 -3,2 -3,6l-11 67c-1,25 -4,50 -7,74 -5,40 -24,117 -6,148z"/>
   <path class="fil2" d="M4458 1872c24,-29 20,-124 17,-168 -5,-58 -13,-46 -17,-51 -18,36 -20,188 0,219z"/>
   <path class="fil2" d="M3569 1992c29,-6 8,12 26,-16 12,-18 17,-71 8,-101 -79,-11 -39,107 -34,117z"/>
   <path class="fil2" d="M2866 1333l111 1 -31 -73c-23,10 -33,15 -47,28 -15,14 -26,28 -33,44z"/>
   <path class="fil3" d="M2653 2322c-7,-24 12,-13 -30,-27 -52,-19 -110,-24 -163,-15 15,17 10,14 42,19l151 23z"/>
   <path class="fil4" d="M2114 900c-55,2 -40,-36 -6,-29l6 29zm-30 30c32,5 82,-25 31,-97 -55,10 -66,62 -31,97z"/>
   <path class="fil3" d="M2041 1155c7,-33 -5,-24 26,-24 -3,33 5,17 -26,24zm-18 21c27,8 46,2 62,-16 19,-22 11,-42 2,-65 -49,2 -78,27 -64,81z"/>
   <path class="fil4" d="M2429 3344c30,-29 58,-86 88,-109 32,-24 21,1 34,-32 -49,-23 -125,79 -122,141z"/>
   <path class="fil5" d="M2117 979c4,-22 1,-5 13,-12 13,30 7,17 -9,29 -8,-11 -8,2 -4,-17zm-4 59c48,-12 55,-67 17,-100 -23,9 -35,16 -39,41 -5,31 6,46 22,59z"/>
   <path class="fil2" d="M1806 4150c-5,-42 -51,-98 -91,-102 2,36 8,41 30,65 16,17 26,38 61,37z"/>
   <path class="fil2" d="M1684 4153c8,-38 -29,-76 -74,-82 3,26 8,44 21,63l27 24c38,10 17,-1 26,-5z"/>
   <path class="fil4" d="M2043 1020c8,5 13,-5 15,15 3,29 -10,16 -13,19 -10,-21 -10,-9 -2,-34zm34 42l1 -54c-24,-10 20,-10 -25,-7 -9,0 -18,4 -24,10 -20,21 -21,126 48,51z"/>
   <path class="fil3" d="M1371 1603c15,19 21,27 52,29 12,-32 8,-61 6,-96 -22,16 -47,34 -58,67z"/>
   <path class="fil2" d="M1211 3986c29,-5 36,-2 54,-31 15,-24 18,-39 10,-61 -42,8 -59,44 -64,92z"/>
   <path class="fil2" d="M3492 2250c29,-20 55,-81 35,-115 -31,0 -30,-6 -36,43 -3,27 -1,46 1,72z"/>
   <path class="fil4" d="M1317 4169c7,-2 27,26 24,-60 -1,-41 0,-44 -30,-48 -9,33 -3,75 6,108z"/>
   <path class="fil4" d="M1562 4170c10,-16 12,24 7,-25 -1,-11 -17,-57 -48,-68 -11,36 3,96 41,93z"/>
   <path class="fil2" d="M1419 1769c-78,-46 -118,53 -28,34 30,-6 23,-8 28,-34z"/>
   <path class="fil2" d="M1824 740c48,9 39,-2 46,-8l3 -45c0,0 -27,-22 -48,1 -12,13 -4,38 -1,52z"/>
   <path class="fil4" d="M1444 4008c22,-35 3,-80 -35,-94 -6,23 -4,52 10,76 19,31 -4,9 25,18z"/>
   <path class="fil4" d="M1232 4318c42,-10 50,-71 26,-97 -29,23 -39,66 -26,97z"/>
   <path class="fil2" d="M3487 3248c-15,46 -10,74 35,86 2,-47 11,-84 -35,-86z"/>
   <path class="fil4" d="M1357 3995c11,-17 13,-21 6,-50 -10,-41 -11,-32 -32,-42 -6,41 -19,84 26,92z"/>
   <path class="fil4" d="M2799 4278c1,-28 -3,-38 -16,-60 -14,-24 -19,-33 -43,-41 3,49 22,84 59,101z"/>
   <path class="fil4" d="M1494 3912c0,0 -25,0 3,50 12,21 21,27 40,34 14,-29 -18,-87 -43,-84z"/>
   <path class="fil2" d="M1786 4282c15,-37 -6,-71 -44,-78 -2,41 11,81 44,78z"/>
   <path class="fil3" d="M2433 4277c2,-45 -13,-73 -60,-79 9,41 25,72 60,79z"/>
   <path class="fil3" d="M2331 3017c-6,-25 -4,-29 -32,-35 -21,-5 -49,-1 -70,0 20,30 67,35 102,35z"/>
   <path class="fil4" d="M1435 4172c51,-21 19,-74 -10,-91l-4 68c7,27 6,13 14,23z"/>
   <path class="fil6" d="M4458 1432c14,-35 16,-109 0,-141 -17,24 -20,115 0,141z"/>
   <path class="fil3" d="M894 3783c-41,22 -40,60 0,81 18,-26 21,-49 0,-81z"/>
   <path class="fil4" d="M1149 3940c39,0 65,-21 67,-58 -43,3 -62,19 -67,58z"/>
   <path class="fil7" d="M4273 1823c27,-27 14,-126 7,-140 -20,31 -12,100 -7,140z"/>
   <path class="fil3" d="M1949 1191c43,10 59,-33 46,-47 -22,-22 -57,7 -46,47z"/>
   <path class="fil4" d="M2750 4340c-6,-41 -25,-67 -54,-78 -12,41 17,67 54,78z"/>
   <path class="fil3" d="M1346 1721c26,34 79,20 74,-10 -31,-18 -54,-16 -74,10z"/>
   <path class="fil3" d="M799 3847c50,-2 63,-30 35,-62 -19,7 -15,-5 -28,25 -8,19 -5,19 -7,37z"/>
   <path class="fil4" d="M2599 4231c-2,-44 -5,-63 -47,-74 0,46 6,62 47,74z"/>
   <path class="fil4" d="M3329 3420c-4,33 -11,46 11,70 44,-19 30,-55 -11,-70z"/>
   <path class="fil4" d="M949 3783c-14,35 -9,55 21,74 18,-31 13,-67 -21,-74z"/>
   <path class="fil4" d="M1907 4004c9,-39 4,-63 -28,-69 -15,38 -3,61 28,69z"/>
   <path class="fil5" d="M1071 1749c19,-31 16,-78 7,-119 -20,23 -19,92 -7,119z"/>
   <path class="fil4" d="M2501 4251c2,-42 -9,-61 -43,-75 1,43 9,63 43,75z"/>
   <path class="fil4" d="M1216 4142c30,-15 34,-54 16,-80 -27,18 -24,45 -16,80z"/>
   <path class="fil3" d="M2197 4150c-3,-39 -18,-49 -53,-59 5,39 16,57 53,59z"/>
   <path class="fil4" d="M1990 3995c7,-30 10,-38 -21,-68 -2,2 -18,14 -7,44 6,17 17,20 28,24z"/>
   <path class="fil2" d="M3548 3058c3,-14 7,-28 -4,-44l-37 11 3 25c26,17 5,9 38,8z"/>
   <path class="fil4" d="M3376 3832c2,-3 20,-8 4,-33 -7,-11 -20,-15 -31,-3 -15,15 -7,46 27,36z"/>
   <path class="fil5" d="M3351 3073c33,-8 25,-3 36,-31 -4,-3 -17,-27 -37,-7 -17,16 -7,24 1,38z"/>
   <path class="fil6" d="M1486 3405c-19,24 -23,53 1,77 13,-34 20,-51 -1,-77z"/>
   <path class="fil4" d="M1266 3448c33,-7 33,-46 17,-68 -21,24 -22,27 -17,68z"/>
   <path class="fil4" d="M1554 4498c1,32 5,37 39,32 3,-34 -4,-49 -39,-32z"/>
   <path class="fil6" d="M1021 4064c31,-9 40,-19 46,-52 -22,-1 -11,-7 -30,12 -17,17 -15,17 -16,40z"/>
   <path class="fil5" d="M2596 4464c14,39 36,28 45,-8 -5,-2 8,-14 -26,-6 -6,2 -17,7 -19,14z"/>
   <path class="fil5" d="M1249 3261c31,-14 25,-30 11,-48 -29,10 -41,21 -11,48z"/>
   <path class="fil5" d="M1109 4097c29,1 44,-18 30,-46 -28,7 -31,8 -30,46z"/>
   <path class="fil4" d="M3453 4572c34,4 39,-3 36,-36 -30,-4 -41,5 -36,36z"/>
   <path class="fil5" d="M2337 4308c4,-31 -8,-42 -37,-46 3,35 5,44 37,46z"/>
   <path class="fil4" d="M681 4408c-1,4 -23,-7 -3,26 8,14 8,9 26,10l9 -34 -32 -2z"/>
   <path class="fil4" d="M4440 3702l30 -1c7,-22 9,20 4,-23 -2,-21 1,-4 -6,-16 -30,6 -26,1 -28,40z"/>
   <path class="fil5" d="M950 4003c25,1 34,-7 37,-37 -14,2 -33,0 -39,19 -11,35 -1,6 2,18z"/>
   <path class="fil4" d="M4352 3653c-5,17 -11,-17 -4,23 4,26 -4,1 8,15 24,-10 19,-1 25,-39l-29 1z"/>
   <path class="fil4" d="M844 4349c9,-15 12,20 7,-19 -3,-29 0,-6 -8,-17 -48,7 -27,38 1,36z"/>
   <path class="fil6" d="M575 3880c4,12 6,29 27,20 18,-9 8,-22 3,-35 -17,2 -26,1 -30,15z"/>
   <path class="fil3" d="M1361 3269c40,0 58,-32 -3,-34l3 34z"/>
   <path class="fil5" d="M1459 3252c-24,25 9,28 28,28 0,-17 -1,-55 -28,-28z"/>
   <path class="fil8" d="M1686 373l-74 7 2 -74c-1,2 -3,2 -4,6 -1,12 -10,1 -4,71 29,4 60,3 80,-10z"/>
   <path class="fil4" d="M3747 3857l4 34c32,-8 23,3 34,-34l-38 0z"/>
   <path class="fil7" d="M3758 4402c29,0 36,-5 35,-34 -30,-2 -35,4 -35,34z"/>
   <path class="fil6" d="M3323 4665c25,-15 21,0 17,-38 -35,5 -46,17 -17,38z"/>
   <path class="fil4" d="M2697 4592c30,-8 23,-1 24,-34 -35,-2 -43,2 -24,34z"/>
   <path class="fil4" d="M1572 4625c31,18 30,8 43,-8 -2,-2 13,-20 -26,-10 -28,7 -11,13 -17,18z"/>
   <path class="fil7" d="M665 4311c-2,3 -23,6 -1,26 11,11 22,3 33,-1 -9,-19 -13,-29 -32,-25z"/>
   <path class="fil5" d="M2662 4353c-1,-35 -5,-36 -32,-46 -4,32 6,37 32,46z"/>
   <path class="fil5" d="M2115 4153c4,-25 -6,-28 -38,-36 6,31 13,41 38,36z"/>
   <path class="fil5" d="M1612 3281c-2,-17 -1,-6 -9,-16 -37,14 -30,39 5,35 6,-16 7,19 4,-19z"/>
   <path class="fil5" d="M785 4458c1,0 7,25 38,-1 -8,-21 13,-15 -15,-18 -18,-1 -20,5 -23,19z"/>
   <path class="fil5" d="M3004 4168l1 -42c-42,15 -40,31 -1,42z"/>
   <path class="fil6" d="M1415 4434c27,3 41,1 29,-30 -29,5 -22,-6 -29,30z"/>
   <path class="fil6" d="M1729 4498c-4,32 35,33 31,0 -19,-14 -16,-11 -31,0z"/>
   <path class="fil9" d="M1173 2084c0,0 14,-1 8,-40 -3,-15 -5,-12 -8,-17 -16,25 -15,35 0,57z"/>
   <path class="fil3" d="M3103 4152c8,-10 13,17 10,-18 -2,-21 -3,-11 -10,-21 -6,6 -16,-7 -15,21 2,23 9,14 15,18z"/>
   <path class="fil10" d="M546 3750c19,-17 25,-34 -12,-34 -12,33 -12,19 12,34z"/>
   <path class="fil5" d="M1435 4601l9 -32c-18,0 -23,-4 -29,10 -12,25 12,20 20,22z"/>
   <path class="fil5" d="M3996 4463c20,18 9,19 39,5 -14,-29 -22,-30 -39,-5z"/>
   <path class="fil3" d="M699 4007c6,13 -11,10 11,17 42,11 17,-3 25,-8 -25,-33 -25,-15 -36,-9z"/>
   <path class="fil7" d="M953 4275c21,-14 23,-21 10,-45 -14,14 -30,20 -10,45z"/>
   <path class="fil6" d="M4199 4528c26,-1 27,-5 30,-30 -32,0 -33,-2 -30,30z"/>
   <path class="fil11" d="M3393 4422c19,18 13,19 37,7 -6,-17 10,-14 -16,-20 -11,-2 -20,3 -21,13z"/>
   <path class="fil6" d="M447 3779c7,16 4,32 37,8 -12,-19 -11,-28 -37,-8z"/>
   <path class="fil7" d="M3281 4567c14,-23 18,-16 0,-41 -18,13 -30,21 0,41z"/>
   <path class="fil5" d="M3223 4447c12,23 14,31 38,9 -19,-25 -15,-24 -38,-9z"/>
   <path class="fil6" d="M3069 4070c6,-5 16,5 15,-21 -1,-25 -6,-12 -15,-19 -12,20 -17,19 0,40z"/>
   <path class="fil6" d="M2747 4641c8,-39 0,-6 -8,-20 -24,16 -30,8 -8,35 14,-20 6,28 16,-15z"/>
   <path class="fil7" d="M482 3922c25,20 19,16 35,-8 -16,-14 -30,-17 -35,8z"/>
   <path class="fil5" d="M3848 3901c12,-11 8,4 14,-15 9,-31 2,-9 -3,-21 -49,22 -11,36 -11,36z"/>
   <path class="fil7" d="M605 4007c13,9 -17,8 18,9 26,0 11,-1 21,-9 -15,-26 -37,-14 -39,0z"/>
   <path class="fil6" d="M1013 4372c9,-23 6,-24 -25,-24 2,17 -8,10 7,23 24,21 17,1 18,1z"/>
   <path class="fil4" d="M1605 4457c14,-15 12,-14 11,-35 -35,10 -42,10 -11,35z"/>
   <path class="fil12" d="M795 1726c11,-24 14,-49 5,-72 -1,2 -3,2 -3,5l-7 28c0,16 2,24 5,39z"/>
   <path class="fil6" d="M3686 4082c0,-33 -4,-33 -31,-25 17,22 -14,21 31,25z"/>
   <path class="fil2" d="M4374 3779c17,26 18,27 34,0 -15,-13 21,-14 -17,-10 -20,2 -7,1 -17,10z"/>
   <path class="fil13" d="M2646 4184c2,-4 15,11 5,-20 -8,-22 -6,-12 -21,-20 -1,35 -4,23 16,40z"/>
   <path class="fil14" d="M3151 618c-11,-34 -5,-29 -33,-39 5,29 10,33 33,39z"/>
   <path class="fil5" d="M4177 3829c21,13 8,18 35,0 -2,-2 2,-15 -17,-14 -26,1 -16,-2 -18,14z"/>
   <path class="fil5" d="M2942 4315c40,13 23,11 32,-11 -37,-27 -22,1 -32,11z"/>
   <path class="fil11" d="M3882 4444c22,-23 23,-12 0,-35 -19,19 -22,15 0,35z"/>
   <path class="fil6" d="M3585 4164c16,-16 19,-3 1,-30 -33,12 -26,19 -1,30z"/>
   <path class="fil10" d="M1112 4441c23,7 5,8 25,-2 -7,-21 -1,-16 -22,-23 -9,16 -11,6 -3,25z"/>
   <path class="fil6" d="M933 4495c33,-12 21,2 31,-32 -26,7 -27,1 -31,32z"/>
   <path class="fil7" d="M4283 3821l-13 -8c-17,-4 1,-4 -23,-1 14,39 19,25 36,9z"/>
   <path class="fil6" d="M3891 3990c26,-11 11,8 20,-29 -17,5 -39,-9 -20,29z"/>
   <path class="fil4" d="M3808 4054c23,-18 16,19 24,-31l-27 7 3 24z"/>
   <path class="fil7" d="M3228 4128c30,4 15,6 25,-25 -26,8 -36,-5 -25,25z"/>
   <path class="fil7" d="M3148 4591c34,31 32,2 34,0 -10,-7 13,-11 -19,-8 -20,2 -5,-1 -15,8z"/>
   <path class="fil7" d="M3123 3953c34,-3 17,5 25,-27 -35,10 -24,-7 -25,27z"/>
   <path class="fil10" d="M3598 3996c16,12 2,9 25,7l-4 -23c-9,-2 -20,-1 -21,16z"/>
   <path class="fil2" d="M3793 3960c20,-53 2,-23 -4,-31 -9,13 -15,-18 -7,12 6,28 -20,-3 11,19z"/>
   <path class="fil5" d="M3171 4035c13,-18 11,23 7,-12 -2,-22 3,-4 -7,-17 -26,37 -6,23 0,29z"/>
   <path class="fil15" d="M4289 3754c33,-4 14,5 28,-21 -52,10 -16,6 -28,21z"/>
   <path class="fil16" d="M3114 4227l31 -27c-33,0 -24,-5 -31,27z"/>
   <path class="fil6" d="M4020 4351c39,-5 14,-2 23,-17 -30,3 -13,-2 -23,17z"/>
   <path class="fil10" d="M4104 4414c15,15 -30,12 9,8 21,-3 2,4 15,-8 -9,-6 4,-18 -24,0z"/>
   <path class="fil17" d="M1442 2425l-17 11c3,36 -1,6 10,15l7 -26z"/>
   <path class="fil18" d="M2710 4799l-5 15c1,0 -20,20 14,-1 1,-40 5,2 -9,-14z"/>
   <path class="fil8" d="M1435 2554l4 -16c0,-1 -3,-4 -4,-5 -2,4 -23,9 0,21z"/>
   <path class="fil19" d="M2832 1149c13,-17 15,21 10,-22l-17 12c14,2 12,-2 7,10z"/>
   <path class="fil5" d="M3264 4036c9,-17 15,29 4,-17 0,-1 -3,-4 -4,-6 -11,16 -15,-25 -6,12 9,38 -22,2 6,11z"/>
   <path class="fil20" d="M483 1288l12 1c1,-2 3,-4 3,-4l0 -9c0,-2 -2,-3 -5,-6l-10 18z"/>
   <path class="fil19" d="M3186 730c13,-13 8,18 11,-19l-17 12 6 7z"/>
  </g>
 </g>
</svg>
